G04 DesignSpark PCB Gerber Version 10.0 Build 5299*
%FSLAX35Y35*%
%MOIN*%
%ADD94O,0.07000X0.12000*%
%ADD102R,0.07000X0.09000*%
%ADD95R,0.05563X0.05563*%
%ADD96C,0.05563*%
%ADD98O,0.12000X0.07000*%
%ADD101R,0.09000X0.07000*%
%ADD99C,0.07000*%
%ADD93C,0.07890*%
%ADD100C,0.08000*%
%ADD97C,0.09661*%
X0Y0D02*
D02*
D93*
X250250Y580250D03*
Y600250D03*
X330250Y670250D03*
Y690250D03*
X440250Y670250D03*
Y690250D03*
X800250Y30250D03*
X810250Y50250D03*
X820250D03*
X830250D03*
X840250Y30250D03*
X880250D03*
Y50250D03*
D02*
D94*
X690250Y320250D03*
Y970250D03*
X700250Y320250D03*
Y970250D03*
X710250Y320250D03*
Y970250D03*
X730250Y320250D03*
Y970250D03*
X740250Y320250D03*
Y970250D03*
X750250Y320250D03*
Y970250D03*
X760250Y320250D03*
Y970250D03*
X780250Y320250D03*
Y970250D03*
X790250Y320250D03*
Y970250D03*
X800250Y320250D03*
Y970250D03*
X810250Y320250D03*
Y970250D03*
X820250Y320250D03*
Y970250D03*
X830250Y320250D03*
Y970250D03*
X840250Y320250D03*
Y970250D03*
X850250Y320250D03*
Y970250D03*
X870250Y320250D03*
Y970250D03*
X880250Y320250D03*
Y970250D03*
X890250Y320250D03*
Y970250D03*
X900250Y320250D03*
Y970250D03*
X910250Y320250D03*
Y970250D03*
X920250Y320250D03*
Y970250D03*
X930250Y320250D03*
Y970250D03*
X940250Y320250D03*
Y970250D03*
D02*
D95*
X560250Y960250D03*
D02*
D96*
Y830250D03*
Y840250D03*
Y850250D03*
Y860250D03*
Y870250D03*
Y880250D03*
Y890250D03*
Y900250D03*
Y910250D03*
Y920250D03*
Y930250D03*
Y940250D03*
Y950250D03*
X620250Y830250D03*
Y840250D03*
Y850250D03*
Y860250D03*
Y870250D03*
Y880250D03*
Y890250D03*
Y900250D03*
Y910250D03*
Y920250D03*
Y930250D03*
Y940250D03*
Y950250D03*
Y960250D03*
D02*
D97*
X60250Y30250D03*
Y40250D03*
Y50250D03*
X120250Y30250D03*
Y40250D03*
Y50250D03*
X170250Y280250D03*
Y550250D03*
Y710250D03*
X180250Y30250D03*
Y40250D03*
Y50250D03*
Y280250D03*
Y550250D03*
Y710250D03*
X240250Y30250D03*
Y40250D03*
Y50250D03*
X260250Y960250D03*
Y970250D03*
Y980250D03*
X300250Y30250D03*
Y40250D03*
Y50250D03*
X310250Y1040250D03*
Y1060250D03*
X360250Y30250D03*
Y40250D03*
Y50250D03*
X380250Y120250D03*
Y290250D03*
Y550250D03*
Y710250D03*
Y880250D03*
Y1040250D03*
Y1050250D03*
X390250Y120250D03*
Y290250D03*
Y550250D03*
Y710250D03*
Y880250D03*
X400250Y1040250D03*
Y1050250D03*
X420250Y30250D03*
Y40250D03*
Y50250D03*
X550250Y310250D03*
X560250D03*
X590250Y120250D03*
Y290250D03*
Y540250D03*
Y790250D03*
X600250Y120250D03*
Y290250D03*
Y540250D03*
Y790250D03*
X640250Y940250D03*
X650250D03*
X660250D03*
X740250Y30250D03*
Y40250D03*
Y50250D03*
X770250Y90250D03*
X780250D03*
X790250Y160250D03*
X800250D03*
X810250Y80250D03*
X830250D03*
X860250Y70250D03*
Y90250D03*
Y160250D03*
X870250Y70250D03*
Y90250D03*
Y160250D03*
D02*
D98*
X20250Y80250D03*
Y90250D03*
Y100250D03*
Y110250D03*
Y120250D03*
Y130250D03*
Y140250D03*
Y500250D03*
Y510250D03*
Y520250D03*
Y530250D03*
Y790250D03*
Y800250D03*
Y810250D03*
Y820250D03*
Y830250D03*
Y840250D03*
Y850250D03*
Y860250D03*
X160250Y300250D03*
Y310250D03*
Y320250D03*
Y330250D03*
Y340250D03*
Y350250D03*
Y360250D03*
Y370250D03*
Y570250D03*
Y580250D03*
Y590250D03*
Y600250D03*
Y610250D03*
Y620250D03*
Y630250D03*
Y730250D03*
Y740250D03*
Y750250D03*
Y760250D03*
Y770250D03*
Y780250D03*
Y790250D03*
Y800250D03*
X190250Y300250D03*
Y310250D03*
Y320250D03*
Y330250D03*
Y340250D03*
Y350250D03*
Y360250D03*
Y370250D03*
Y570250D03*
Y580250D03*
Y590250D03*
Y600250D03*
Y610250D03*
Y620250D03*
Y630250D03*
Y730250D03*
Y740250D03*
Y750250D03*
Y760250D03*
Y770250D03*
Y780250D03*
Y790250D03*
Y800250D03*
X370250Y140250D03*
Y150250D03*
Y160250D03*
Y170250D03*
Y180250D03*
Y190250D03*
Y200250D03*
Y210250D03*
Y310250D03*
Y320250D03*
Y330250D03*
Y340250D03*
Y350250D03*
Y360250D03*
Y370250D03*
Y570250D03*
Y580250D03*
Y590250D03*
Y600250D03*
Y610250D03*
Y620250D03*
Y630250D03*
Y730250D03*
Y740250D03*
Y750250D03*
Y760250D03*
Y770250D03*
Y780250D03*
Y790250D03*
Y800250D03*
Y900250D03*
Y910250D03*
Y920250D03*
Y930250D03*
Y940250D03*
Y950250D03*
Y960250D03*
Y970250D03*
X400250Y140250D03*
Y150250D03*
Y160250D03*
Y170250D03*
Y180250D03*
Y190250D03*
Y200250D03*
Y210250D03*
Y310250D03*
Y320250D03*
Y330250D03*
Y340250D03*
Y350250D03*
Y360250D03*
Y370250D03*
Y570250D03*
Y580250D03*
Y590250D03*
Y600250D03*
Y610250D03*
Y620250D03*
Y630250D03*
Y730250D03*
Y740250D03*
Y750250D03*
Y760250D03*
Y770250D03*
Y780250D03*
Y790250D03*
Y800250D03*
Y900250D03*
Y910250D03*
Y920250D03*
Y930250D03*
Y940250D03*
Y950250D03*
Y960250D03*
Y970250D03*
X580250Y140250D03*
Y150250D03*
Y160250D03*
Y170250D03*
Y180250D03*
Y190250D03*
Y200250D03*
Y210250D03*
Y310250D03*
Y320250D03*
Y330250D03*
Y340250D03*
Y350250D03*
Y360250D03*
Y370250D03*
Y560250D03*
Y570250D03*
Y580250D03*
Y590250D03*
Y600250D03*
Y610250D03*
Y620250D03*
Y630250D03*
X610250Y140250D03*
Y150250D03*
Y160250D03*
Y170250D03*
Y180250D03*
Y190250D03*
Y200250D03*
Y210250D03*
Y310250D03*
Y320250D03*
Y330250D03*
Y340250D03*
Y350250D03*
Y360250D03*
Y370250D03*
Y560250D03*
Y570250D03*
Y580250D03*
Y590250D03*
Y600250D03*
Y610250D03*
Y620250D03*
Y630250D03*
X760250Y110250D03*
Y120250D03*
Y130250D03*
Y140250D03*
X790250Y110250D03*
Y120250D03*
Y130250D03*
Y140250D03*
X850250Y110250D03*
Y120250D03*
Y130250D03*
Y140250D03*
X880250Y110250D03*
Y120250D03*
Y130250D03*
Y140250D03*
D02*
D99*
X70250Y900250D03*
X80250Y450250D03*
Y490250D03*
Y540250D03*
Y580250D03*
Y600250D03*
Y640250D03*
X90250Y570250D03*
Y610250D03*
Y630250D03*
Y670250D03*
X100250Y890250D03*
X110250Y900250D03*
X120250Y180250D03*
Y220250D03*
X130250Y180250D03*
Y220250D03*
Y900250D03*
X140250Y180250D03*
Y220250D03*
Y890250D03*
X150250Y180250D03*
Y220250D03*
X160250Y180250D03*
Y220250D03*
Y890250D03*
X170250Y180250D03*
Y220250D03*
Y900250D03*
X180250Y180250D03*
Y220250D03*
X190250Y900250D03*
X200250Y890250D03*
X220250D03*
X230250Y570250D03*
Y610250D03*
Y900250D03*
X250250D03*
X260250Y890250D03*
X265250Y1015250D03*
Y1065250D03*
X280250Y890250D03*
X290250Y900250D03*
X320250Y890250D03*
X330250Y610250D03*
Y650250D03*
X420250Y1090250D03*
X440250Y610250D03*
Y650250D03*
X450250Y1080250D03*
X460250Y1090250D03*
X480250Y610250D03*
Y650250D03*
Y1090250D03*
X490250Y1080250D03*
X510250Y560250D03*
Y600250D03*
Y1080250D03*
X520250Y1090250D03*
X540250D03*
X550250Y1080250D03*
X560250Y330250D03*
Y370250D03*
X570250Y1080250D03*
X580250Y1090250D03*
X600250D03*
X610250Y1080250D03*
X630250Y610250D03*
Y1080250D03*
X640250Y1090250D03*
X670250Y610250D03*
Y1080250D03*
X690250Y1090250D03*
X720250Y210250D03*
Y250250D03*
Y1080250D03*
X730250Y1090250D03*
X750250Y210250D03*
Y250250D03*
Y1090250D03*
X760250Y150250D03*
Y1080250D03*
X780250Y210250D03*
Y250250D03*
Y1080250D03*
X790250Y1090250D03*
X800250Y150250D03*
X810250Y100250D03*
Y140250D03*
Y210250D03*
Y250250D03*
Y1090250D03*
X820250Y1080250D03*
X840250Y210250D03*
Y250250D03*
Y1080250D03*
X850250Y1090250D03*
X860250Y150250D03*
X870250Y210250D03*
Y250250D03*
Y1090250D03*
X880250Y1080250D03*
X900250Y90250D03*
Y130250D03*
Y150250D03*
Y210250D03*
Y250250D03*
Y1080250D03*
X910250Y1090250D03*
X930250Y210250D03*
Y250250D03*
X940250Y1080250D03*
D02*
D100*
X330250Y1090250D03*
X340250D03*
X350250D03*
X480250Y570250D03*
Y590250D03*
X490250Y580250D03*
D02*
D101*
X90250Y920250D03*
Y930250D03*
X120250Y920250D03*
Y930250D03*
X150250Y920250D03*
Y930250D03*
X180250Y920250D03*
Y930250D03*
X210250Y920250D03*
Y930250D03*
X240250Y920250D03*
Y930250D03*
X270250Y920250D03*
Y930250D03*
X300250Y920250D03*
Y930250D03*
X440250Y1110250D03*
Y1120250D03*
X470250Y1110250D03*
Y1120250D03*
X500250Y1110250D03*
Y1120250D03*
X530250Y1110250D03*
Y1120250D03*
X560250Y1110250D03*
Y1120250D03*
X590250Y1110250D03*
Y1120250D03*
X620250Y1110250D03*
Y1120250D03*
X650250Y1110250D03*
Y1120250D03*
X710250Y1110250D03*
Y1120250D03*
X720250Y260250D03*
Y270250D03*
X740250Y1110250D03*
Y1120250D03*
X750250Y260250D03*
Y270250D03*
X770250Y1110250D03*
Y1120250D03*
X780250Y260250D03*
Y270250D03*
X800250Y1110250D03*
Y1120250D03*
X810250Y260250D03*
Y270250D03*
X830250Y1110250D03*
Y1120250D03*
X840250Y260250D03*
Y270250D03*
X860250Y1110250D03*
Y1120250D03*
X870250Y260250D03*
Y270250D03*
X890250Y1110250D03*
Y1120250D03*
X900250Y260250D03*
Y270250D03*
X920250Y1110250D03*
Y1120250D03*
X930250Y260250D03*
Y270250D03*
D02*
D102*
X50250Y470250D03*
Y560250D03*
Y590250D03*
Y620250D03*
Y650250D03*
X60250Y470250D03*
Y560250D03*
Y590250D03*
Y620250D03*
Y650250D03*
X530250Y350250D03*
X540250D03*
X0Y0D02*
M02*
