G04 DesignSpark PCB Gerber Version 10.0 Build 5299*
%FSLAX35Y35*%
%MOIN*%
%ADD16C,0.00100*%
%ADD17C,0.00500*%
%ADD92C,0.00512*%
%ADD90C,0.00591*%
%ADD91C,0.00787*%
X0Y0D02*
D02*
D16*
X250Y501031D02*
X406Y500875D01*
X719Y500719D01*
X1031Y500875D01*
X1187Y501031D01*
Y502594D01*
X1500D01*
X1187D02*
X563D01*
X2750Y500719D02*
Y502594D01*
X3531Y501656D01*
X4313Y502594D01*
Y500719D01*
X5250D02*
Y502594D01*
X6344D01*
X6656Y502437D01*
X6813Y502125D01*
X6656Y501813D01*
X6344Y501656D01*
X5250D01*
X250Y510719D02*
Y512594D01*
X1344D01*
X1656Y512437D01*
X1813Y512125D01*
X1656Y511813D01*
X1344Y511656D01*
X250D01*
X1344D02*
X1813Y510719D01*
X3531D02*
Y512594D01*
X2750D02*
X4313D01*
X5250Y510719D02*
Y512594D01*
X6813Y510719D01*
Y512594D01*
X250Y520719D02*
Y522594D01*
X1813D01*
X1500Y521656D02*
X250D01*
X2750Y522594D02*
Y520719D01*
X4313D01*
X5406Y520875D02*
X5719Y520719D01*
X6031D01*
X6344Y520875D01*
X6500Y521187D01*
Y522125D01*
X6344Y522437D01*
X6031Y522594D01*
X5719D01*
X5406Y522437D01*
X5250Y522125D01*
Y521187D01*
X5406Y520875D01*
X6344Y522437D01*
X250Y530719D02*
Y532594D01*
X1813D01*
X1500Y531656D02*
X250D01*
X2750Y532594D02*
Y530719D01*
X4313D01*
X5250D02*
Y532594D01*
X6813D01*
X6500Y531656D02*
X5250D01*
X250Y791344D02*
Y791969D01*
X406Y792281D01*
X563Y792437D01*
X875Y792594D01*
X1187D01*
X1500Y792437D01*
X1656Y792281D01*
X1813Y791969D01*
Y791344D01*
X1656Y791031D01*
X1500Y790875D01*
X1187Y790719D01*
X875D01*
X563Y790875D01*
X406Y791031D01*
X250Y791344D01*
X2906Y790875D02*
X3219Y790719D01*
X3531D01*
X3844Y790875D01*
X4000Y791187D01*
Y792125D01*
X3844Y792437D01*
X3531Y792594D01*
X3219D01*
X2906Y792437D01*
X2750Y792125D01*
Y791187D01*
X2906Y790875D01*
X3844Y792437D01*
X250Y801344D02*
Y801969D01*
X406Y802281D01*
X563Y802437D01*
X875Y802594D01*
X1187D01*
X1500Y802437D01*
X1656Y802281D01*
X1813Y801969D01*
Y801344D01*
X1656Y801031D01*
X1500Y800875D01*
X1187Y800719D01*
X875D01*
X563Y800875D01*
X406Y801031D01*
X250Y801344D01*
X3063Y800719D02*
X3687D01*
X3375D02*
Y802594D01*
X3063Y802281D01*
X250Y811344D02*
Y811969D01*
X406Y812281D01*
X563Y812437D01*
X875Y812594D01*
X1187D01*
X1500Y812437D01*
X1656Y812281D01*
X1813Y811969D01*
Y811344D01*
X1656Y811031D01*
X1500Y810875D01*
X1187Y810719D01*
X875D01*
X563Y810875D01*
X406Y811031D01*
X250Y811344D01*
X4000Y810719D02*
X2750D01*
X3844Y811813D01*
X4000Y812125D01*
X3844Y812437D01*
X3531Y812594D01*
X3063D01*
X2750Y812437D01*
X250Y821344D02*
Y821969D01*
X406Y822281D01*
X563Y822437D01*
X875Y822594D01*
X1187D01*
X1500Y822437D01*
X1656Y822281D01*
X1813Y821969D01*
Y821344D01*
X1656Y821031D01*
X1500Y820875D01*
X1187Y820719D01*
X875D01*
X563Y820875D01*
X406Y821031D01*
X250Y821344D01*
X2906Y820875D02*
X3219Y820719D01*
X3531D01*
X3844Y820875D01*
X4000Y821187D01*
X3844Y821500D01*
X3531Y821656D01*
X3219D01*
X3531D02*
X3844Y821813D01*
X4000Y822125D01*
X3844Y822437D01*
X3531Y822594D01*
X3219D01*
X2906Y822437D01*
X250Y831344D02*
Y831969D01*
X406Y832281D01*
X563Y832437D01*
X875Y832594D01*
X1187D01*
X1500Y832437D01*
X1656Y832281D01*
X1813Y831969D01*
Y831344D01*
X1656Y831031D01*
X1500Y830875D01*
X1187Y830719D01*
X875D01*
X563Y830875D01*
X406Y831031D01*
X250Y831344D01*
X3531Y830719D02*
Y832594D01*
X2750Y831344D01*
X4000D01*
X250Y841344D02*
Y841969D01*
X406Y842281D01*
X563Y842437D01*
X875Y842594D01*
X1187D01*
X1500Y842437D01*
X1656Y842281D01*
X1813Y841969D01*
Y841344D01*
X1656Y841031D01*
X1500Y840875D01*
X1187Y840719D01*
X875D01*
X563Y840875D01*
X406Y841031D01*
X250Y841344D01*
X2750Y840875D02*
X3063Y840719D01*
X3531D01*
X3844Y840875D01*
X4000Y841187D01*
Y841344D01*
X3844Y841656D01*
X3531Y841813D01*
X2750D01*
Y842594D01*
X4000D01*
X250Y851344D02*
Y851969D01*
X406Y852281D01*
X563Y852437D01*
X875Y852594D01*
X1187D01*
X1500Y852437D01*
X1656Y852281D01*
X1813Y851969D01*
Y851344D01*
X1656Y851031D01*
X1500Y850875D01*
X1187Y850719D01*
X875D01*
X563Y850875D01*
X406Y851031D01*
X250Y851344D01*
X2750Y851187D02*
X2906Y851500D01*
X3219Y851656D01*
X3531D01*
X3844Y851500D01*
X4000Y851187D01*
X3844Y850875D01*
X3531Y850719D01*
X3219D01*
X2906Y850875D01*
X2750Y851187D01*
Y851656D01*
X2906Y852125D01*
X3219Y852437D01*
X3531Y852594D01*
X250Y861344D02*
Y861969D01*
X406Y862281D01*
X563Y862437D01*
X875Y862594D01*
X1187D01*
X1500Y862437D01*
X1656Y862281D01*
X1813Y861969D01*
Y861344D01*
X1656Y861031D01*
X1500Y860875D01*
X1187Y860719D01*
X875D01*
X563Y860875D01*
X406Y861031D01*
X250Y861344D01*
X2750Y860719D02*
X4000Y862594D01*
X2750D01*
X410510Y311969D02*
X411240D01*
X410875Y312281D02*
Y310875D01*
X411031Y310719D01*
X411187D01*
X411344Y310875D01*
X412750Y311187D02*
X412906Y310875D01*
X413219Y310719D01*
X413531D01*
X413844Y310875D01*
X414000Y311187D01*
Y311500D01*
X413844Y311813D01*
X413531Y311969D01*
X413219D01*
X412906Y311813D01*
X412750Y311500D01*
Y311187D01*
X418531Y310719D02*
Y312594D01*
X417750Y311344D01*
X419000D01*
X420406Y310875D02*
X420719Y310719D01*
X421031D01*
X421344Y310875D01*
X421500Y311187D01*
Y312125D01*
X421344Y312437D01*
X421031Y312594D01*
X420719D01*
X420406Y312437D01*
X420250Y312125D01*
Y311187D01*
X420406Y310875D01*
X421344Y312437D01*
X422750Y310875D02*
X423063Y310719D01*
X423531D01*
X423844Y310875D01*
X424000Y311187D01*
Y311344D01*
X423844Y311656D01*
X423531Y311813D01*
X422750D01*
Y312594D01*
X424000D01*
X425563Y310719D02*
X426187D01*
X425875D02*
Y312594D01*
X425563Y312281D01*
X410510Y341969D02*
X411240D01*
X410875Y342281D02*
Y340875D01*
X411031Y340719D01*
X411187D01*
X411344Y340875D01*
X412750Y341187D02*
X412906Y340875D01*
X413219Y340719D01*
X413531D01*
X413844Y340875D01*
X414000Y341187D01*
Y341500D01*
X413844Y341813D01*
X413531Y341969D01*
X413219D01*
X412906Y341813D01*
X412750Y341500D01*
Y341187D01*
X419000Y340719D02*
X417750D01*
X418844Y341813D01*
X419000Y342125D01*
X418844Y342437D01*
X418531Y342594D01*
X418063D01*
X417750Y342437D01*
X420250Y340875D02*
X420563Y340719D01*
X421031D01*
X421344Y340875D01*
X421500Y341187D01*
Y341344D01*
X421344Y341656D01*
X421031Y341813D01*
X420250D01*
Y342594D01*
X421500D01*
X423219Y340719D02*
X423531Y340875D01*
X423844Y341187D01*
X424000Y341656D01*
Y342125D01*
X423844Y342437D01*
X423531Y342594D01*
X423219D01*
X422906Y342437D01*
X422750Y342125D01*
X422906Y341813D01*
X423219Y341656D01*
X423531D01*
X423844Y341813D01*
X424000Y342125D01*
X690250Y310719D02*
Y312594D01*
X691344D01*
X691656Y312437D01*
X691813Y312125D01*
X691656Y311813D01*
X691344Y311656D01*
X690250D01*
X691344D02*
X691813Y310719D01*
X692750D02*
Y312594D01*
X693844D01*
X694156Y312437D01*
X694313Y312125D01*
X694156Y311813D01*
X693844Y311656D01*
X692750D01*
X693844D02*
X694313Y310719D01*
X690250Y980719D02*
Y982594D01*
X691344D01*
X691656Y982437D01*
X691813Y982125D01*
X691656Y981813D01*
X691344Y981656D01*
X690250D01*
X691344D02*
X691813Y980719D01*
X692750D02*
Y982594D01*
X693844D01*
X694156Y982437D01*
X694313Y982125D01*
X694156Y981813D01*
X693844Y981656D01*
X692750D01*
X693844D02*
X694313Y980719D01*
X700250Y310719D02*
Y312594D01*
X701344D01*
X701656Y312437D01*
X701813Y312125D01*
X701656Y311813D01*
X701344Y311656D01*
X700250D01*
X704313Y311031D02*
X704156Y310875D01*
X703844Y310719D01*
X703375D01*
X703063Y310875D01*
X702906Y311031D01*
X702750Y311344D01*
Y311969D01*
X702906Y312281D01*
X703063Y312437D01*
X703375Y312594D01*
X703844D01*
X704156Y312437D01*
X704313Y312281D01*
X705250Y312594D02*
Y310719D01*
X706813D01*
X707750D02*
Y312594D01*
Y311656D02*
X708219D01*
X709313Y312594D01*
X708219Y311656D02*
X709313Y310719D01*
X700250Y980719D02*
Y982594D01*
X701344D01*
X701656Y982437D01*
X701813Y982125D01*
X701656Y981813D01*
X701344Y981656D01*
X700250D01*
X704313Y981031D02*
X704156Y980875D01*
X703844Y980719D01*
X703375D01*
X703063Y980875D01*
X702906Y981031D01*
X702750Y981344D01*
Y981969D01*
X702906Y982281D01*
X703063Y982437D01*
X703375Y982594D01*
X703844D01*
X704156Y982437D01*
X704313Y982281D01*
X705250Y982594D02*
Y980719D01*
X706813D01*
X707750D02*
Y982594D01*
Y981656D02*
X708219D01*
X709313Y982594D01*
X708219Y981656D02*
X709313Y980719D01*
X711813Y311031D02*
X711656Y310875D01*
X711344Y310719D01*
X710875D01*
X710563Y310875D01*
X710406Y311031D01*
X710250Y311344D01*
Y311969D01*
X710406Y312281D01*
X710563Y312437D01*
X710875Y312594D01*
X711344D01*
X711656Y312437D01*
X711813Y312281D01*
X712750Y312594D02*
Y310719D01*
X714313D01*
X715250D02*
Y312594D01*
Y311656D02*
X715719D01*
X716813Y312594D01*
X715719Y311656D02*
X716813Y310719D01*
X711813Y981031D02*
X711656Y980875D01*
X711344Y980719D01*
X710875D01*
X710563Y980875D01*
X710406Y981031D01*
X710250Y981344D01*
Y981969D01*
X710406Y982281D01*
X710563Y982437D01*
X710875Y982594D01*
X711344D01*
X711656Y982437D01*
X711813Y982281D01*
X712750Y982594D02*
Y980719D01*
X714313D01*
X715250D02*
Y982594D01*
Y981656D02*
X715719D01*
X716813Y982594D01*
X715719Y981656D02*
X716813Y980719D01*
X730250Y312594D02*
X730406Y310719D01*
X731031Y311656D01*
X731656Y310719D01*
X731813Y312594D01*
X732750Y310719D02*
Y312594D01*
X733844D01*
X734156Y312437D01*
X734313Y312125D01*
X734156Y311813D01*
X733844Y311656D01*
X732750D01*
X733844D02*
X734313Y310719D01*
X736031D02*
Y312594D01*
X735250D02*
X736813D01*
X730250Y982594D02*
X730406Y980719D01*
X731031Y981656D01*
X731656Y980719D01*
X731813Y982594D01*
X732750Y980719D02*
Y982594D01*
X733844D01*
X734156Y982437D01*
X734313Y982125D01*
X734156Y981813D01*
X733844Y981656D01*
X732750D01*
X733844D02*
X734313Y980719D01*
X736031D02*
Y982594D01*
X735250D02*
X736813D01*
X740719Y310719D02*
X741344D01*
X741031D02*
Y312594D01*
X740719D02*
X741344D01*
X742750Y310719D02*
Y312594D01*
X743844D01*
X744156Y312437D01*
X744313Y312125D01*
X744156Y311813D01*
X743844Y311656D01*
X742750D01*
X743844D02*
X744313Y310719D01*
X745250Y311187D02*
X745406Y310875D01*
X745719Y310719D01*
X746344D01*
X746656Y310875D01*
X746813Y311187D01*
X746656Y311500D01*
X746344Y311656D01*
X745719D01*
X745406Y311813D01*
X745250Y312125D01*
X745406Y312437D01*
X745719Y312594D01*
X746344D01*
X746656Y312437D01*
X746813Y312125D01*
X748531Y310719D02*
Y312594D01*
X747750D02*
X749313D01*
X740719Y980719D02*
X741344D01*
X741031D02*
Y982594D01*
X740719D02*
X741344D01*
X742750Y980719D02*
Y982594D01*
X743844D01*
X744156Y982437D01*
X744313Y982125D01*
X744156Y981813D01*
X743844Y981656D01*
X742750D01*
X743844D02*
X744313Y980719D01*
X745250Y981187D02*
X745406Y980875D01*
X745719Y980719D01*
X746344D01*
X746656Y980875D01*
X746813Y981187D01*
X746656Y981500D01*
X746344Y981656D01*
X745719D01*
X745406Y981813D01*
X745250Y982125D01*
X745406Y982437D01*
X745719Y982594D01*
X746344D01*
X746656Y982437D01*
X746813Y982125D01*
X748531Y980719D02*
Y982594D01*
X747750D02*
X749313D01*
X750250Y310719D02*
Y312594D01*
X751344D01*
X751656Y312437D01*
X751813Y312125D01*
X751656Y311813D01*
X751344Y311656D01*
X750250D01*
X751344D02*
X751813Y310719D01*
X752750Y311187D02*
X752906Y310875D01*
X753219Y310719D01*
X753844D01*
X754156Y310875D01*
X754313Y311187D01*
X754156Y311500D01*
X753844Y311656D01*
X753219D01*
X752906Y311813D01*
X752750Y312125D01*
X752906Y312437D01*
X753219Y312594D01*
X753844D01*
X754156Y312437D01*
X754313Y312125D01*
X756031Y310719D02*
Y312594D01*
X755250D02*
X756813D01*
X750250Y980719D02*
Y982594D01*
X751344D01*
X751656Y982437D01*
X751813Y982125D01*
X751656Y981813D01*
X751344Y981656D01*
X750250D01*
X751344D02*
X751813Y980719D01*
X752750Y981187D02*
X752906Y980875D01*
X753219Y980719D01*
X753844D01*
X754156Y980875D01*
X754313Y981187D01*
X754156Y981500D01*
X753844Y981656D01*
X753219D01*
X752906Y981813D01*
X752750Y982125D01*
X752906Y982437D01*
X753219Y982594D01*
X753844D01*
X754156Y982437D01*
X754313Y982125D01*
X756031Y980719D02*
Y982594D01*
X755250D02*
X756813D01*
X760250Y310719D02*
Y312594D01*
X761187D01*
X761500Y312437D01*
X761656Y312281D01*
X761813Y311969D01*
Y311344D01*
X761656Y311031D01*
X761500Y310875D01*
X761187Y310719D01*
X760250D01*
X762750D02*
X763531Y312594D01*
X764313Y310719D01*
X763063Y311500D02*
X764000D01*
X766031Y310719D02*
Y312594D01*
X765250D02*
X766813D01*
X760250Y980719D02*
Y982594D01*
X761187D01*
X761500Y982437D01*
X761656Y982281D01*
X761813Y981969D01*
Y981344D01*
X761656Y981031D01*
X761500Y980875D01*
X761187Y980719D01*
X760250D01*
X762750D02*
X763531Y982594D01*
X764313Y980719D01*
X763063Y981500D02*
X764000D01*
X766031Y980719D02*
Y982594D01*
X765250D02*
X766813D01*
X780719Y310719D02*
X781344D01*
X781031D02*
Y312594D01*
X780719D02*
X781344D01*
X782750Y310719D02*
Y312594D01*
X784313Y310719D01*
Y312594D01*
X785250Y310719D02*
X786500Y312594D01*
X785250D01*
X780719Y980719D02*
X781344D01*
X781031D02*
Y982594D01*
X780719D02*
X781344D01*
X782750Y980719D02*
Y982594D01*
X784313Y980719D01*
Y982594D01*
X785250Y980719D02*
X786500Y982594D01*
X785250D01*
X790719Y310719D02*
X791344D01*
X791031D02*
Y312594D01*
X790719D02*
X791344D01*
X792750Y310719D02*
Y312594D01*
X794313Y310719D01*
Y312594D01*
X795250Y311187D02*
X795406Y311500D01*
X795719Y311656D01*
X796031D01*
X796344Y311500D01*
X796500Y311187D01*
X796344Y310875D01*
X796031Y310719D01*
X795719D01*
X795406Y310875D01*
X795250Y311187D01*
Y311656D01*
X795406Y312125D01*
X795719Y312437D01*
X796031Y312594D01*
X790719Y980719D02*
X791344D01*
X791031D02*
Y982594D01*
X790719D02*
X791344D01*
X792750Y980719D02*
Y982594D01*
X794313Y980719D01*
Y982594D01*
X795250Y981187D02*
X795406Y981500D01*
X795719Y981656D01*
X796031D01*
X796344Y981500D01*
X796500Y981187D01*
X796344Y980875D01*
X796031Y980719D01*
X795719D01*
X795406Y980875D01*
X795250Y981187D01*
Y981656D01*
X795406Y982125D01*
X795719Y982437D01*
X796031Y982594D01*
X800719Y310719D02*
X801344D01*
X801031D02*
Y312594D01*
X800719D02*
X801344D01*
X802750Y310719D02*
Y312594D01*
X804313Y310719D01*
Y312594D01*
X805250Y310875D02*
X805563Y310719D01*
X806031D01*
X806344Y310875D01*
X806500Y311187D01*
Y311344D01*
X806344Y311656D01*
X806031Y311813D01*
X805250D01*
Y312594D01*
X806500D01*
X800719Y980719D02*
X801344D01*
X801031D02*
Y982594D01*
X800719D02*
X801344D01*
X802750Y980719D02*
Y982594D01*
X804313Y980719D01*
Y982594D01*
X805250Y980875D02*
X805563Y980719D01*
X806031D01*
X806344Y980875D01*
X806500Y981187D01*
Y981344D01*
X806344Y981656D01*
X806031Y981813D01*
X805250D01*
Y982594D01*
X806500D01*
X810719Y310719D02*
X811344D01*
X811031D02*
Y312594D01*
X810719D02*
X811344D01*
X812750Y310719D02*
Y312594D01*
X814313Y310719D01*
Y312594D01*
X816031Y310719D02*
Y312594D01*
X815250Y311344D01*
X816500D01*
X810719Y980719D02*
X811344D01*
X811031D02*
Y982594D01*
X810719D02*
X811344D01*
X812750Y980719D02*
Y982594D01*
X814313Y980719D01*
Y982594D01*
X816031Y980719D02*
Y982594D01*
X815250Y981344D01*
X816500D01*
X820719Y310719D02*
X821344D01*
X821031D02*
Y312594D01*
X820719D02*
X821344D01*
X822750Y310719D02*
Y312594D01*
X824313Y310719D01*
Y312594D01*
X825406Y310875D02*
X825719Y310719D01*
X826031D01*
X826344Y310875D01*
X826500Y311187D01*
X826344Y311500D01*
X826031Y311656D01*
X825719D01*
X826031D02*
X826344Y311813D01*
X826500Y312125D01*
X826344Y312437D01*
X826031Y312594D01*
X825719D01*
X825406Y312437D01*
X820719Y980719D02*
X821344D01*
X821031D02*
Y982594D01*
X820719D02*
X821344D01*
X822750Y980719D02*
Y982594D01*
X824313Y980719D01*
Y982594D01*
X825406Y980875D02*
X825719Y980719D01*
X826031D01*
X826344Y980875D01*
X826500Y981187D01*
X826344Y981500D01*
X826031Y981656D01*
X825719D01*
X826031D02*
X826344Y981813D01*
X826500Y982125D01*
X826344Y982437D01*
X826031Y982594D01*
X825719D01*
X825406Y982437D01*
X830719Y310719D02*
X831344D01*
X831031D02*
Y312594D01*
X830719D02*
X831344D01*
X832750Y310719D02*
Y312594D01*
X834313Y310719D01*
Y312594D01*
X836500Y310719D02*
X835250D01*
X836344Y311813D01*
X836500Y312125D01*
X836344Y312437D01*
X836031Y312594D01*
X835563D01*
X835250Y312437D01*
X830719Y980719D02*
X831344D01*
X831031D02*
Y982594D01*
X830719D02*
X831344D01*
X832750Y980719D02*
Y982594D01*
X834313Y980719D01*
Y982594D01*
X836500Y980719D02*
X835250D01*
X836344Y981813D01*
X836500Y982125D01*
X836344Y982437D01*
X836031Y982594D01*
X835563D01*
X835250Y982437D01*
X840719Y310719D02*
X841344D01*
X841031D02*
Y312594D01*
X840719D02*
X841344D01*
X842750Y310719D02*
Y312594D01*
X844313Y310719D01*
Y312594D01*
X845563Y310719D02*
X846187D01*
X845875D02*
Y312594D01*
X845563Y312281D01*
X840719Y980719D02*
X841344D01*
X841031D02*
Y982594D01*
X840719D02*
X841344D01*
X842750Y980719D02*
Y982594D01*
X844313Y980719D01*
Y982594D01*
X845563Y980719D02*
X846187D01*
X845875D02*
Y982594D01*
X845563Y982281D01*
X850719Y310719D02*
X851344D01*
X851031D02*
Y312594D01*
X850719D02*
X851344D01*
X852750Y310719D02*
Y312594D01*
X854313Y310719D01*
Y312594D01*
X855406Y310875D02*
X855719Y310719D01*
X856031D01*
X856344Y310875D01*
X856500Y311187D01*
Y312125D01*
X856344Y312437D01*
X856031Y312594D01*
X855719D01*
X855406Y312437D01*
X855250Y312125D01*
Y311187D01*
X855406Y310875D01*
X856344Y312437D01*
X850719Y980719D02*
X851344D01*
X851031D02*
Y982594D01*
X850719D02*
X851344D01*
X852750Y980719D02*
Y982594D01*
X854313Y980719D01*
Y982594D01*
X855406Y980875D02*
X855719Y980719D01*
X856031D01*
X856344Y980875D01*
X856500Y981187D01*
Y982125D01*
X856344Y982437D01*
X856031Y982594D01*
X855719D01*
X855406Y982437D01*
X855250Y982125D01*
Y981187D01*
X855406Y980875D01*
X856344Y982437D01*
X870250Y310719D02*
Y312594D01*
X871344D01*
X871656Y312437D01*
X871813Y312125D01*
X871656Y311813D01*
X871344Y311656D01*
X870250D01*
X874313Y311031D02*
X874156Y310875D01*
X873844Y310719D01*
X873375D01*
X873063Y310875D01*
X872906Y311031D01*
X872750Y311344D01*
Y311969D01*
X872906Y312281D01*
X873063Y312437D01*
X873375Y312594D01*
X873844D01*
X874156Y312437D01*
X874313Y312281D01*
X875250Y310719D02*
X876500Y312594D01*
X875250D01*
X870250Y980719D02*
Y982594D01*
X871344D01*
X871656Y982437D01*
X871813Y982125D01*
X871656Y981813D01*
X871344Y981656D01*
X870250D01*
X874313Y981031D02*
X874156Y980875D01*
X873844Y980719D01*
X873375D01*
X873063Y980875D01*
X872906Y981031D01*
X872750Y981344D01*
Y981969D01*
X872906Y982281D01*
X873063Y982437D01*
X873375Y982594D01*
X873844D01*
X874156Y982437D01*
X874313Y982281D01*
X875250Y980719D02*
X876500Y982594D01*
X875250D01*
X880250Y310719D02*
Y312594D01*
X881344D01*
X881656Y312437D01*
X881813Y312125D01*
X881656Y311813D01*
X881344Y311656D01*
X880250D01*
X884313Y311031D02*
X884156Y310875D01*
X883844Y310719D01*
X883375D01*
X883063Y310875D01*
X882906Y311031D01*
X882750Y311344D01*
Y311969D01*
X882906Y312281D01*
X883063Y312437D01*
X883375Y312594D01*
X883844D01*
X884156Y312437D01*
X884313Y312281D01*
X885250Y311187D02*
X885406Y311500D01*
X885719Y311656D01*
X886031D01*
X886344Y311500D01*
X886500Y311187D01*
X886344Y310875D01*
X886031Y310719D01*
X885719D01*
X885406Y310875D01*
X885250Y311187D01*
Y311656D01*
X885406Y312125D01*
X885719Y312437D01*
X886031Y312594D01*
X880250Y980719D02*
Y982594D01*
X881344D01*
X881656Y982437D01*
X881813Y982125D01*
X881656Y981813D01*
X881344Y981656D01*
X880250D01*
X884313Y981031D02*
X884156Y980875D01*
X883844Y980719D01*
X883375D01*
X883063Y980875D01*
X882906Y981031D01*
X882750Y981344D01*
Y981969D01*
X882906Y982281D01*
X883063Y982437D01*
X883375Y982594D01*
X883844D01*
X884156Y982437D01*
X884313Y982281D01*
X885250Y981187D02*
X885406Y981500D01*
X885719Y981656D01*
X886031D01*
X886344Y981500D01*
X886500Y981187D01*
X886344Y980875D01*
X886031Y980719D01*
X885719D01*
X885406Y980875D01*
X885250Y981187D01*
Y981656D01*
X885406Y982125D01*
X885719Y982437D01*
X886031Y982594D01*
X890250Y310719D02*
Y312594D01*
X891344D01*
X891656Y312437D01*
X891813Y312125D01*
X891656Y311813D01*
X891344Y311656D01*
X890250D01*
X894313Y311031D02*
X894156Y310875D01*
X893844Y310719D01*
X893375D01*
X893063Y310875D01*
X892906Y311031D01*
X892750Y311344D01*
Y311969D01*
X892906Y312281D01*
X893063Y312437D01*
X893375Y312594D01*
X893844D01*
X894156Y312437D01*
X894313Y312281D01*
X895250Y310875D02*
X895563Y310719D01*
X896031D01*
X896344Y310875D01*
X896500Y311187D01*
Y311344D01*
X896344Y311656D01*
X896031Y311813D01*
X895250D01*
Y312594D01*
X896500D01*
X890250Y980719D02*
Y982594D01*
X891344D01*
X891656Y982437D01*
X891813Y982125D01*
X891656Y981813D01*
X891344Y981656D01*
X890250D01*
X894313Y981031D02*
X894156Y980875D01*
X893844Y980719D01*
X893375D01*
X893063Y980875D01*
X892906Y981031D01*
X892750Y981344D01*
Y981969D01*
X892906Y982281D01*
X893063Y982437D01*
X893375Y982594D01*
X893844D01*
X894156Y982437D01*
X894313Y982281D01*
X895250Y980875D02*
X895563Y980719D01*
X896031D01*
X896344Y980875D01*
X896500Y981187D01*
Y981344D01*
X896344Y981656D01*
X896031Y981813D01*
X895250D01*
Y982594D01*
X896500D01*
X900250Y310719D02*
Y312594D01*
X901344D01*
X901656Y312437D01*
X901813Y312125D01*
X901656Y311813D01*
X901344Y311656D01*
X900250D01*
X904313Y311031D02*
X904156Y310875D01*
X903844Y310719D01*
X903375D01*
X903063Y310875D01*
X902906Y311031D01*
X902750Y311344D01*
Y311969D01*
X902906Y312281D01*
X903063Y312437D01*
X903375Y312594D01*
X903844D01*
X904156Y312437D01*
X904313Y312281D01*
X906031Y310719D02*
Y312594D01*
X905250Y311344D01*
X906500D01*
X900250Y980719D02*
Y982594D01*
X901344D01*
X901656Y982437D01*
X901813Y982125D01*
X901656Y981813D01*
X901344Y981656D01*
X900250D01*
X904313Y981031D02*
X904156Y980875D01*
X903844Y980719D01*
X903375D01*
X903063Y980875D01*
X902906Y981031D01*
X902750Y981344D01*
Y981969D01*
X902906Y982281D01*
X903063Y982437D01*
X903375Y982594D01*
X903844D01*
X904156Y982437D01*
X904313Y982281D01*
X906031Y980719D02*
Y982594D01*
X905250Y981344D01*
X906500D01*
X910250Y310719D02*
Y312594D01*
X911344D01*
X911656Y312437D01*
X911813Y312125D01*
X911656Y311813D01*
X911344Y311656D01*
X910250D01*
X914313Y311031D02*
X914156Y310875D01*
X913844Y310719D01*
X913375D01*
X913063Y310875D01*
X912906Y311031D01*
X912750Y311344D01*
Y311969D01*
X912906Y312281D01*
X913063Y312437D01*
X913375Y312594D01*
X913844D01*
X914156Y312437D01*
X914313Y312281D01*
X915406Y310875D02*
X915719Y310719D01*
X916031D01*
X916344Y310875D01*
X916500Y311187D01*
X916344Y311500D01*
X916031Y311656D01*
X915719D01*
X916031D02*
X916344Y311813D01*
X916500Y312125D01*
X916344Y312437D01*
X916031Y312594D01*
X915719D01*
X915406Y312437D01*
X910250Y980719D02*
Y982594D01*
X911344D01*
X911656Y982437D01*
X911813Y982125D01*
X911656Y981813D01*
X911344Y981656D01*
X910250D01*
X914313Y981031D02*
X914156Y980875D01*
X913844Y980719D01*
X913375D01*
X913063Y980875D01*
X912906Y981031D01*
X912750Y981344D01*
Y981969D01*
X912906Y982281D01*
X913063Y982437D01*
X913375Y982594D01*
X913844D01*
X914156Y982437D01*
X914313Y982281D01*
X915406Y980875D02*
X915719Y980719D01*
X916031D01*
X916344Y980875D01*
X916500Y981187D01*
X916344Y981500D01*
X916031Y981656D01*
X915719D01*
X916031D02*
X916344Y981813D01*
X916500Y982125D01*
X916344Y982437D01*
X916031Y982594D01*
X915719D01*
X915406Y982437D01*
X920250Y310719D02*
Y312594D01*
X921344D01*
X921656Y312437D01*
X921813Y312125D01*
X921656Y311813D01*
X921344Y311656D01*
X920250D01*
X924313Y311031D02*
X924156Y310875D01*
X923844Y310719D01*
X923375D01*
X923063Y310875D01*
X922906Y311031D01*
X922750Y311344D01*
Y311969D01*
X922906Y312281D01*
X923063Y312437D01*
X923375Y312594D01*
X923844D01*
X924156Y312437D01*
X924313Y312281D01*
X926500Y310719D02*
X925250D01*
X926344Y311813D01*
X926500Y312125D01*
X926344Y312437D01*
X926031Y312594D01*
X925563D01*
X925250Y312437D01*
X920250Y980719D02*
Y982594D01*
X921344D01*
X921656Y982437D01*
X921813Y982125D01*
X921656Y981813D01*
X921344Y981656D01*
X920250D01*
X924313Y981031D02*
X924156Y980875D01*
X923844Y980719D01*
X923375D01*
X923063Y980875D01*
X922906Y981031D01*
X922750Y981344D01*
Y981969D01*
X922906Y982281D01*
X923063Y982437D01*
X923375Y982594D01*
X923844D01*
X924156Y982437D01*
X924313Y982281D01*
X926500Y980719D02*
X925250D01*
X926344Y981813D01*
X926500Y982125D01*
X926344Y982437D01*
X926031Y982594D01*
X925563D01*
X925250Y982437D01*
X930250Y310719D02*
Y312594D01*
X931344D01*
X931656Y312437D01*
X931813Y312125D01*
X931656Y311813D01*
X931344Y311656D01*
X930250D01*
X934313Y311031D02*
X934156Y310875D01*
X933844Y310719D01*
X933375D01*
X933063Y310875D01*
X932906Y311031D01*
X932750Y311344D01*
Y311969D01*
X932906Y312281D01*
X933063Y312437D01*
X933375Y312594D01*
X933844D01*
X934156Y312437D01*
X934313Y312281D01*
X935563Y310719D02*
X936187D01*
X935875D02*
Y312594D01*
X935563Y312281D01*
X930250Y980719D02*
Y982594D01*
X931344D01*
X931656Y982437D01*
X931813Y982125D01*
X931656Y981813D01*
X931344Y981656D01*
X930250D01*
X934313Y981031D02*
X934156Y980875D01*
X933844Y980719D01*
X933375D01*
X933063Y980875D01*
X932906Y981031D01*
X932750Y981344D01*
Y981969D01*
X932906Y982281D01*
X933063Y982437D01*
X933375Y982594D01*
X933844D01*
X934156Y982437D01*
X934313Y982281D01*
X935563Y980719D02*
X936187D01*
X935875D02*
Y982594D01*
X935563Y982281D01*
X940250Y310719D02*
Y312594D01*
X941344D01*
X941656Y312437D01*
X941813Y312125D01*
X941656Y311813D01*
X941344Y311656D01*
X940250D01*
X944313Y311031D02*
X944156Y310875D01*
X943844Y310719D01*
X943375D01*
X943063Y310875D01*
X942906Y311031D01*
X942750Y311344D01*
Y311969D01*
X942906Y312281D01*
X943063Y312437D01*
X943375Y312594D01*
X943844D01*
X944156Y312437D01*
X944313Y312281D01*
X945406Y310875D02*
X945719Y310719D01*
X946031D01*
X946344Y310875D01*
X946500Y311187D01*
Y312125D01*
X946344Y312437D01*
X946031Y312594D01*
X945719D01*
X945406Y312437D01*
X945250Y312125D01*
Y311187D01*
X945406Y310875D01*
X946344Y312437D01*
X940250Y980719D02*
Y982594D01*
X941344D01*
X941656Y982437D01*
X941813Y982125D01*
X941656Y981813D01*
X941344Y981656D01*
X940250D01*
X944313Y981031D02*
X944156Y980875D01*
X943844Y980719D01*
X943375D01*
X943063Y980875D01*
X942906Y981031D01*
X942750Y981344D01*
Y981969D01*
X942906Y982281D01*
X943063Y982437D01*
X943375Y982594D01*
X943844D01*
X944156Y982437D01*
X944313Y982281D01*
X945406Y980875D02*
X945719Y980719D01*
X946031D01*
X946344Y980875D01*
X946500Y981187D01*
Y982125D01*
X946344Y982437D01*
X946031Y982594D01*
X945719D01*
X945406Y982437D01*
X945250Y982125D01*
Y981187D01*
X945406Y980875D01*
X946344Y982437D01*
D02*
D17*
X14000Y75250D02*
Y115250D01*
X26500D01*
Y75250D01*
X14000D01*
Y495250D02*
Y535250D01*
X26500D01*
Y495250D01*
X14000D01*
Y785250D02*
Y825250D01*
X26500D01*
Y785250D01*
X14000D01*
Y825250D02*
Y865250D01*
X26500D01*
Y825250D01*
X14000D01*
X26500Y145250D02*
Y115250D01*
X14000D01*
Y145250D01*
X26500D01*
X40250Y1080250D02*
Y1000250D01*
G75*
G03*
X50250Y990250I10000J0D01*
G01*
X205250D01*
G75*
G03*
X215250Y1000250I0J10000D01*
G01*
Y1080407D01*
G75*
G03*
X205407Y1090250I-9843J0D01*
G01*
X50250D01*
G75*
G03*
X40250Y1080250I0J-10000D01*
G01*
X55250Y459250D02*
G75*
G03*
X66250Y470250I0J11000D01*
G01*
G75*
G03*
X55250Y481250I-11000J0D01*
G01*
G75*
G03*
X44950Y476950I41J-14583D01*
G01*
Y463550D01*
G75*
G03*
X55250Y459250I10341J10283D01*
G01*
Y549250D02*
G75*
G03*
X66250Y560250I0J11000D01*
G01*
G75*
G03*
X55250Y571250I-11000J0D01*
G01*
G75*
G03*
X44950Y566950I41J-14583D01*
G01*
Y553550D01*
G75*
G03*
X55250Y549250I10341J10283D01*
G01*
Y579250D02*
G75*
G03*
X66250Y590250I0J11000D01*
G01*
G75*
G03*
X55250Y601250I-11000J0D01*
G01*
G75*
G03*
X44950Y596950I41J-14583D01*
G01*
Y583550D01*
G75*
G03*
X55250Y579250I10341J10283D01*
G01*
Y609250D02*
G75*
G03*
X66250Y620250I0J11000D01*
G01*
G75*
G03*
X55250Y631250I-11000J0D01*
G01*
G75*
G03*
X44950Y626950I41J-14583D01*
G01*
Y613550D01*
G75*
G03*
X55250Y609250I10341J10283D01*
G01*
Y639250D02*
G75*
G03*
X66250Y650250I0J11000D01*
G01*
G75*
G03*
X55250Y661250I-11000J0D01*
G01*
G75*
G03*
X44950Y656950I41J-14583D01*
G01*
Y643550D01*
G75*
G03*
X55250Y639250I10341J10283D01*
G01*
X67750Y22750D02*
Y57750D01*
X52750D01*
Y22750D01*
X67750D01*
X72750Y30250D02*
Y37750D01*
X67750D01*
Y30250D01*
X72750D01*
X75250Y900250D02*
X80250D01*
X79250Y925250D02*
G75*
G03*
X90250Y914250I11000J0D01*
G01*
G75*
G03*
X101250Y925250I0J11000D01*
G01*
G75*
G03*
X96950Y935550I-14583J-41D01*
G01*
X83550D01*
G75*
G03*
X79250Y925250I10283J-10341D01*
G01*
X80250Y455250D02*
Y460250D01*
X79313Y460875D02*
Y462125D01*
Y461500D02*
X75563D01*
X76187Y460875D01*
X79000Y465563D02*
X79313Y466187D01*
Y466813D01*
X79000Y467437D01*
X78375Y467750D01*
X76500D01*
X75875Y467437D01*
X75563Y466813D01*
Y466187D01*
X75875Y465563D01*
X76500Y465250D01*
X78375D01*
X79000Y465563D01*
X75875Y467437D01*
X79313Y470250D02*
X75563D01*
X77437D02*
Y471187D01*
X75563Y473375D01*
X77437Y471187D02*
X79313Y473375D01*
X80250Y480250D02*
Y485250D01*
Y545250D02*
Y550250D01*
X79313Y550875D02*
Y552125D01*
Y551500D02*
X75563D01*
X76187Y550875D01*
X79000Y555563D02*
X79313Y556187D01*
Y556813D01*
X79000Y557437D01*
X78375Y557750D01*
X76500D01*
X75875Y557437D01*
X75563Y556813D01*
Y556187D01*
X75875Y555563D01*
X76500Y555250D01*
X78375D01*
X79000Y555563D01*
X75875Y557437D01*
X79313Y560250D02*
X75563D01*
X77437D02*
Y561187D01*
X75563Y563375D01*
X77437Y561187D02*
X79313Y563375D01*
X80250Y570250D02*
Y575250D01*
Y605250D02*
Y610250D01*
X79313Y610875D02*
Y612125D01*
Y611500D02*
X75563D01*
X76187Y610875D01*
X79000Y615563D02*
X79313Y616187D01*
Y616813D01*
X79000Y617437D01*
X78375Y617750D01*
X76500D01*
X75875Y617437D01*
X75563Y616813D01*
Y616187D01*
X75875Y615563D01*
X76500Y615250D01*
X78375D01*
X79000Y615563D01*
X75875Y617437D01*
X79313Y620250D02*
X75563D01*
X77437D02*
Y621187D01*
X75563Y623375D01*
X77437Y621187D02*
X79313Y623375D01*
X80250Y630250D02*
Y635250D01*
Y895250D02*
Y905250D01*
X100250D01*
Y895250D01*
X80250D01*
X80875Y901187D02*
X82125D01*
X81500D02*
Y904937D01*
X80875Y904313D01*
X85563Y901500D02*
X86187Y901187D01*
X86813D01*
X87437Y901500D01*
X87750Y902125D01*
Y904000D01*
X87437Y904625D01*
X86813Y904937D01*
X86187D01*
X85563Y904625D01*
X85250Y904000D01*
Y902125D01*
X85563Y901500D01*
X87437Y904625D01*
X90250Y901187D02*
Y904937D01*
Y903063D02*
X91187D01*
X93375Y904937D01*
X91187Y903063D02*
X93375Y901187D01*
X85250Y460250D02*
X75250D01*
Y480250D01*
X85250D01*
Y460250D01*
Y550250D02*
X75250D01*
Y570250D01*
X85250D01*
Y550250D01*
Y610250D02*
X75250D01*
Y630250D01*
X85250D01*
Y610250D01*
X90250Y575250D02*
Y580250D01*
X89313Y580875D02*
Y582125D01*
Y581500D02*
X85563D01*
X86187Y580875D01*
X89000Y585563D02*
X89313Y586187D01*
Y586813D01*
X89000Y587437D01*
X88375Y587750D01*
X86500D01*
X85875Y587437D01*
X85563Y586813D01*
Y586187D01*
X85875Y585563D01*
X86500Y585250D01*
X88375D01*
X89000Y585563D01*
X85875Y587437D01*
X89313Y590250D02*
X85563D01*
X87437D02*
Y591187D01*
X85563Y593375D01*
X87437Y591187D02*
X89313Y593375D01*
X90250Y600250D02*
Y605250D01*
Y635250D02*
Y640250D01*
X89313Y640875D02*
Y642125D01*
Y641500D02*
X85563D01*
X86187Y640875D01*
X89000Y645563D02*
X89313Y646187D01*
Y646813D01*
X89000Y647437D01*
X88375Y647750D01*
X86500D01*
X85875Y647437D01*
X85563Y646813D01*
Y646187D01*
X85875Y645563D01*
X86500Y645250D01*
X88375D01*
X89000Y645563D01*
X85875Y647437D01*
X89313Y650250D02*
X85563D01*
X87437D02*
Y651187D01*
X85563Y653375D01*
X87437Y651187D02*
X89313Y653375D01*
X90250Y660250D02*
Y665250D01*
X95250Y580250D02*
X85250D01*
Y600250D01*
X95250D01*
Y580250D01*
Y640250D02*
X85250D01*
Y660250D01*
X95250D01*
Y640250D01*
X100250Y900250D02*
X105250D01*
Y890250D02*
X110250D01*
X109250Y925250D02*
G75*
G03*
X120250Y914250I11000J0D01*
G01*
G75*
G03*
X131250Y925250I0J11000D01*
G01*
G75*
G03*
X126950Y935550I-14583J-41D01*
G01*
X113550D01*
G75*
G03*
X109250Y925250I10283J-10341D01*
G01*
X110250Y885250D02*
Y895250D01*
X130250D01*
Y885250D01*
X110250D01*
X110875Y891187D02*
X112125D01*
X111500D02*
Y894937D01*
X110875Y894313D01*
X115563Y891500D02*
X116187Y891187D01*
X116813D01*
X117437Y891500D01*
X117750Y892125D01*
Y894000D01*
X117437Y894625D01*
X116813Y894937D01*
X116187D01*
X115563Y894625D01*
X115250Y894000D01*
Y892125D01*
X115563Y891500D01*
X117437Y894625D01*
X120250Y891187D02*
Y894937D01*
Y893063D02*
X121187D01*
X123375Y894937D01*
X121187Y893063D02*
X123375Y891187D01*
X120250Y185250D02*
Y190250D01*
X119313Y190875D02*
Y192125D01*
Y191500D02*
X115563D01*
X116187Y190875D01*
X119000Y195563D02*
X119313Y196187D01*
Y196813D01*
X119000Y197437D01*
X118375Y197750D01*
X116500D01*
X115875Y197437D01*
X115563Y196813D01*
Y196187D01*
X115875Y195563D01*
X116500Y195250D01*
X118375D01*
X119000Y195563D01*
X115875Y197437D01*
X119313Y200250D02*
X115563D01*
X117437D02*
Y201187D01*
X115563Y203375D01*
X117437Y201187D02*
X119313Y203375D01*
X120250Y210250D02*
Y215250D01*
X125250Y190250D02*
X115250D01*
Y210250D01*
X125250D01*
Y190250D01*
X127750Y22750D02*
Y57750D01*
X112750D01*
Y22750D01*
X127750D01*
X130250Y185250D02*
Y190250D01*
X129313Y190875D02*
Y192125D01*
Y191500D02*
X125563D01*
X126187Y190875D01*
X129000Y195563D02*
X129313Y196187D01*
Y196813D01*
X129000Y197437D01*
X128375Y197750D01*
X126500D01*
X125875Y197437D01*
X125563Y196813D01*
Y196187D01*
X125875Y195563D01*
X126500Y195250D01*
X128375D01*
X129000Y195563D01*
X125875Y197437D01*
X129313Y200250D02*
X125563D01*
X127437D02*
Y201187D01*
X125563Y203375D01*
X127437Y201187D02*
X129313Y203375D01*
X130250Y210250D02*
Y215250D01*
Y890250D02*
X135250D01*
X132750Y30250D02*
Y37750D01*
X127750D01*
Y30250D01*
X132750D01*
X135250Y190250D02*
X125250D01*
Y210250D01*
X135250D01*
Y190250D01*
Y900250D02*
X140250D01*
X139250Y925250D02*
G75*
G03*
X150250Y914250I11000J0D01*
G01*
G75*
G03*
X161250Y925250I0J11000D01*
G01*
G75*
G03*
X156950Y935550I-14583J-41D01*
G01*
X143550D01*
G75*
G03*
X139250Y925250I10283J-10341D01*
G01*
X140250Y185250D02*
Y190250D01*
X139313Y190875D02*
Y192125D01*
Y191500D02*
X135563D01*
X136187Y190875D01*
X139000Y195563D02*
X139313Y196187D01*
Y196813D01*
X139000Y197437D01*
X138375Y197750D01*
X136500D01*
X135875Y197437D01*
X135563Y196813D01*
Y196187D01*
X135875Y195563D01*
X136500Y195250D01*
X138375D01*
X139000Y195563D01*
X135875Y197437D01*
X139313Y200250D02*
X135563D01*
X137437D02*
Y201187D01*
X135563Y203375D01*
X137437Y201187D02*
X139313Y203375D01*
X140250Y210250D02*
Y215250D01*
Y895250D02*
Y905250D01*
X160250D01*
Y895250D01*
X140250D01*
X140875Y901187D02*
X142125D01*
X141500D02*
Y904937D01*
X140875Y904313D01*
X145563Y901500D02*
X146187Y901187D01*
X146813D01*
X147437Y901500D01*
X147750Y902125D01*
Y904000D01*
X147437Y904625D01*
X146813Y904937D01*
X146187D01*
X145563Y904625D01*
X145250Y904000D01*
Y902125D01*
X145563Y901500D01*
X147437Y904625D01*
X150250Y901187D02*
Y904937D01*
Y903063D02*
X151187D01*
X153375Y904937D01*
X151187Y903063D02*
X153375Y901187D01*
X145250Y190250D02*
X135250D01*
Y210250D01*
X145250D01*
Y190250D01*
X150250Y185250D02*
Y190250D01*
X149313Y190875D02*
Y192125D01*
Y191500D02*
X145563D01*
X146187Y190875D01*
X149000Y195563D02*
X149313Y196187D01*
Y196813D01*
X149000Y197437D01*
X148375Y197750D01*
X146500D01*
X145875Y197437D01*
X145563Y196813D01*
Y196187D01*
X145875Y195563D01*
X146500Y195250D01*
X148375D01*
X149000Y195563D01*
X145875Y197437D01*
X149313Y200250D02*
X145563D01*
X147437D02*
Y201187D01*
X145563Y203375D01*
X147437Y201187D02*
X149313Y203375D01*
X150250Y210250D02*
Y215250D01*
X155250Y190250D02*
X145250D01*
Y210250D01*
X155250D01*
Y190250D01*
X160250Y185250D02*
Y190250D01*
X159313Y190875D02*
Y192125D01*
Y191500D02*
X155563D01*
X156187Y190875D01*
X159000Y195563D02*
X159313Y196187D01*
Y196813D01*
X159000Y197437D01*
X158375Y197750D01*
X156500D01*
X155875Y197437D01*
X155563Y196813D01*
Y196187D01*
X155875Y195563D01*
X156500Y195250D01*
X158375D01*
X159000Y195563D01*
X155875Y197437D01*
X159313Y200250D02*
X155563D01*
X157437D02*
Y201187D01*
X155563Y203375D01*
X157437Y201187D02*
X159313Y203375D01*
X160250Y210250D02*
Y215250D01*
Y288687D02*
X162750Y292437D01*
X160250D01*
X166813Y288687D02*
Y292437D01*
X165250Y289937D01*
X167750D01*
X170250Y288687D02*
Y292437D01*
Y290563D02*
X173375D01*
Y288687D02*
Y292437D01*
X178375Y289313D02*
X178063Y289000D01*
X177437Y288687D01*
X176500D01*
X175875Y289000D01*
X175563Y289313D01*
X175250Y289937D01*
Y291187D01*
X175563Y291813D01*
X175875Y292125D01*
X176500Y292437D01*
X177437D01*
X178063Y292125D01*
X178375Y291813D01*
X181813Y288687D02*
Y292437D01*
X180250Y289937D01*
X182750D01*
X185563Y289000D02*
X186187Y288687D01*
X186813D01*
X187437Y289000D01*
X187750Y289625D01*
Y291500D01*
X187437Y292125D01*
X186813Y292437D01*
X186187D01*
X185563Y292125D01*
X185250Y291500D01*
Y289625D01*
X185563Y289000D01*
X187437Y292125D01*
X190250Y289000D02*
X190875Y288687D01*
X191813D01*
X192437Y289000D01*
X192750Y289625D01*
Y289937D01*
X192437Y290563D01*
X191813Y290875D01*
X190250D01*
Y292437D01*
X192750D01*
X195875Y288687D02*
X197125D01*
X196500D02*
Y292437D01*
X195875Y291813D01*
X160250Y900250D02*
X165250D01*
X160250Y1090250D02*
Y990250D01*
X90250D01*
Y1090250D01*
X160250D01*
X165250Y190250D02*
X155250D01*
Y210250D01*
X165250D01*
Y190250D01*
Y890250D02*
X170250D01*
X168063Y1051813D02*
X167750Y1051187D01*
X167125Y1050875D01*
X166500Y1051187D01*
X166187Y1051813D01*
Y1054000D01*
X169937D01*
Y1051813D01*
X169625Y1051187D01*
X169000Y1050875D01*
X168375Y1051187D01*
X168063Y1051813D01*
Y1054000D01*
X166187Y1049000D02*
X169937Y1047437D01*
X166187Y1045875D01*
X167750Y1048375D02*
Y1046500D01*
X166187Y1042437D02*
X169937D01*
Y1044000D02*
Y1040875D01*
X166187Y1038375D02*
Y1037125D01*
Y1037750D02*
X169937D01*
X169313Y1038375D01*
X167750Y558687D02*
X170250Y562437D01*
X167750D01*
X174313Y558687D02*
Y562437D01*
X172750Y559937D01*
X175250D01*
X177750Y558687D02*
Y562437D01*
Y560563D02*
X180875D01*
Y558687D02*
Y562437D01*
X185875Y559313D02*
X185563Y559000D01*
X184937Y558687D01*
X184000D01*
X183375Y559000D01*
X183063Y559313D01*
X182750Y559937D01*
Y561187D01*
X183063Y561813D01*
X183375Y562125D01*
X184000Y562437D01*
X184937D01*
X185563Y562125D01*
X185875Y561813D01*
X188063Y559000D02*
X188687Y558687D01*
X189313D01*
X189937Y559000D01*
X190250Y559625D01*
Y561500D01*
X189937Y562125D01*
X189313Y562437D01*
X188687D01*
X188063Y562125D01*
X187750Y561500D01*
Y559625D01*
X188063Y559000D01*
X189937Y562125D01*
X193063Y559000D02*
X193687Y558687D01*
X194313D01*
X194937Y559000D01*
X195250Y559625D01*
Y561500D01*
X194937Y562125D01*
X194313Y562437D01*
X193687D01*
X193063Y562125D01*
X192750Y561500D01*
Y559625D01*
X193063Y559000D01*
X194937Y562125D01*
X167750Y718687D02*
X170250Y722437D01*
X167750D01*
X174313Y718687D02*
Y722437D01*
X172750Y719937D01*
X175250D01*
X177750Y718687D02*
Y722437D01*
Y720563D02*
X180875D01*
Y718687D02*
Y722437D01*
X185875Y719313D02*
X185563Y719000D01*
X184937Y718687D01*
X184000D01*
X183375Y719000D01*
X183063Y719313D01*
X182750Y719937D01*
Y721187D01*
X183063Y721813D01*
X183375Y722125D01*
X184000Y722437D01*
X184937D01*
X185563Y722125D01*
X185875Y721813D01*
X190250Y718687D02*
X187750D01*
X189937Y720875D01*
X190250Y721500D01*
X189937Y722125D01*
X189313Y722437D01*
X188375D01*
X187750Y722125D01*
X192750Y719000D02*
X193375Y718687D01*
X194313D01*
X194937Y719000D01*
X195250Y719625D01*
Y719937D01*
X194937Y720563D01*
X194313Y720875D01*
X192750D01*
Y722437D01*
X195250D01*
X198687Y718687D02*
X199313Y719000D01*
X199937Y719625D01*
X200250Y720563D01*
Y721500D01*
X199937Y722125D01*
X199313Y722437D01*
X198687D01*
X198063Y722125D01*
X197750Y721500D01*
X198063Y720875D01*
X198687Y720563D01*
X199313D01*
X199937Y720875D01*
X200250Y721500D01*
X169250Y925250D02*
G75*
G03*
X180250Y914250I11000J0D01*
G01*
G75*
G03*
X191250Y925250I0J11000D01*
G01*
G75*
G03*
X186950Y935550I-14583J-41D01*
G01*
X173550D01*
G75*
G03*
X169250Y925250I10283J-10341D01*
G01*
X170250Y185250D02*
Y190250D01*
X169313Y190875D02*
Y192125D01*
Y191500D02*
X165563D01*
X166187Y190875D01*
X169000Y195563D02*
X169313Y196187D01*
Y196813D01*
X169000Y197437D01*
X168375Y197750D01*
X166500D01*
X165875Y197437D01*
X165563Y196813D01*
Y196187D01*
X165875Y195563D01*
X166500Y195250D01*
X168375D01*
X169000Y195563D01*
X165875Y197437D01*
X169313Y200250D02*
X165563D01*
X167437D02*
Y201187D01*
X165563Y203375D01*
X167437Y201187D02*
X169313Y203375D01*
X170250Y210250D02*
Y215250D01*
Y297750D02*
Y372750D01*
X172750D01*
X175250Y370250D01*
X177750Y372750D01*
X180250D01*
Y297750D01*
X170250D01*
Y567750D02*
Y632750D01*
X172750D01*
X175250Y630250D01*
X177750Y632750D01*
X180250D01*
Y567750D01*
X170250D01*
Y727750D02*
Y802750D01*
X172750D01*
X175250Y800250D01*
X177750Y802750D01*
X180250D01*
Y727750D01*
X170250D01*
Y885250D02*
Y895250D01*
X190250D01*
Y885250D01*
X170250D01*
X170875Y891187D02*
X172125D01*
X171500D02*
Y894937D01*
X170875Y894313D01*
X175563Y891500D02*
X176187Y891187D01*
X176813D01*
X177437Y891500D01*
X177750Y892125D01*
Y894000D01*
X177437Y894625D01*
X176813Y894937D01*
X176187D01*
X175563Y894625D01*
X175250Y894000D01*
Y892125D01*
X175563Y891500D01*
X177437Y894625D01*
X180250Y891187D02*
Y894937D01*
Y893063D02*
X181187D01*
X183375Y894937D01*
X181187Y893063D02*
X183375Y891187D01*
X175250Y190250D02*
X165250D01*
Y210250D01*
X175250D01*
Y190250D01*
X180250Y185250D02*
Y190250D01*
X179313Y190875D02*
Y192125D01*
Y191500D02*
X175563D01*
X176187Y190875D01*
X179000Y195563D02*
X179313Y196187D01*
Y196813D01*
X179000Y197437D01*
X178375Y197750D01*
X176500D01*
X175875Y197437D01*
X175563Y196813D01*
Y196187D01*
X175875Y195563D01*
X176500Y195250D01*
X178375D01*
X179000Y195563D01*
X175875Y197437D01*
X179313Y200250D02*
X175563D01*
X177437D02*
Y201187D01*
X175563Y203375D01*
X177437Y201187D02*
X179313Y203375D01*
X180250Y210250D02*
Y215250D01*
X185250Y190250D02*
X175250D01*
Y210250D01*
X185250D01*
Y190250D01*
X187750Y22750D02*
Y57750D01*
X172750D01*
Y22750D01*
X187750D01*
X190250Y890250D02*
X195250D01*
X192750Y30250D02*
Y37750D01*
X187750D01*
Y30250D01*
X192750D01*
X195250Y900250D02*
X200250D01*
X199250Y925250D02*
G75*
G03*
X210250Y914250I11000J0D01*
G01*
G75*
G03*
X221250Y925250I0J11000D01*
G01*
G75*
G03*
X216950Y935550I-14583J-41D01*
G01*
X203550D01*
G75*
G03*
X199250Y925250I10283J-10341D01*
G01*
X200250Y895250D02*
Y905250D01*
X220250D01*
Y895250D01*
X200250D01*
X200875Y901187D02*
X202125D01*
X201500D02*
Y904937D01*
X200875Y904313D01*
X205563Y901500D02*
X206187Y901187D01*
X206813D01*
X207437Y901500D01*
X207750Y902125D01*
Y904000D01*
X207437Y904625D01*
X206813Y904937D01*
X206187D01*
X205563Y904625D01*
X205250Y904000D01*
Y902125D01*
X205563Y901500D01*
X207437Y904625D01*
X210250Y901187D02*
Y904937D01*
Y903063D02*
X211187D01*
X213375Y904937D01*
X211187Y903063D02*
X213375Y901187D01*
X205250Y1017750D02*
Y1012750D01*
Y1067750D02*
Y1062750D01*
X207750Y1015250D02*
X202750D01*
X220250Y900250D02*
X225250D01*
Y890250D02*
X230250D01*
X229000Y1021500D02*
Y1009000D01*
X215220D01*
Y1021500D01*
X229000D01*
Y1074000D02*
Y1056500D01*
X215220D01*
Y1074000D01*
X229000D01*
X229250Y925250D02*
G75*
G03*
X240250Y914250I11000J0D01*
G01*
G75*
G03*
X251250Y925250I0J11000D01*
G01*
G75*
G03*
X246950Y935550I-14583J-41D01*
G01*
X233550D01*
G75*
G03*
X229250Y925250I10283J-10341D01*
G01*
X230250Y575250D02*
Y580250D01*
X229313Y587125D02*
Y588375D01*
Y587750D02*
X225563D01*
X226187Y587125D01*
X229313Y591500D02*
X225563D01*
X227437D02*
Y592437D01*
X225563Y594625D01*
X227437Y592437D02*
X229313Y594625D01*
X230250Y600250D02*
Y605250D01*
Y885250D02*
Y895250D01*
X250250D01*
Y885250D01*
X230250D01*
X230875Y891187D02*
X232125D01*
X231500D02*
Y894937D01*
X230875Y894313D01*
X235563Y891500D02*
X236187Y891187D01*
X236813D01*
X237437Y891500D01*
X237750Y892125D01*
Y894000D01*
X237437Y894625D01*
X236813Y894937D01*
X236187D01*
X235563Y894625D01*
X235250Y894000D01*
Y892125D01*
X235563Y891500D01*
X237437Y894625D01*
X240250Y891187D02*
Y894937D01*
Y893063D02*
X241187D01*
X243375Y894937D01*
X241187Y893063D02*
X243375Y891187D01*
X235250Y580250D02*
X225250D01*
Y600250D01*
X235250D01*
Y580250D01*
X240250Y600250D02*
Y580250D01*
X260250D01*
Y600250D01*
X240250D01*
X247750Y22750D02*
Y57750D01*
X232750D01*
Y22750D01*
X247750D01*
X250250Y890250D02*
X255250D01*
X252750Y30250D02*
Y37750D01*
X247750D01*
Y30250D01*
X252750D01*
X255250Y900250D02*
X260250D01*
X259250Y925250D02*
G75*
G03*
X270250Y914250I11000J0D01*
G01*
G75*
G03*
X281250Y925250I0J11000D01*
G01*
G75*
G03*
X276950Y935550I-14583J-41D01*
G01*
X263550D01*
G75*
G03*
X259250Y925250I10283J-10341D01*
G01*
X260250Y895250D02*
Y905250D01*
X280250D01*
Y895250D01*
X260250D01*
X260875Y901187D02*
X262125D01*
X261500D02*
Y904937D01*
X260875Y904313D01*
X265563Y901500D02*
X266187Y901187D01*
X266813D01*
X267437Y901500D01*
X267750Y902125D01*
Y904000D01*
X267437Y904625D01*
X266813Y904937D01*
X266187D01*
X265563Y904625D01*
X265250Y904000D01*
Y902125D01*
X265563Y901500D01*
X267437Y904625D01*
X270250Y901187D02*
Y904937D01*
Y903063D02*
X271187D01*
X273375Y904937D01*
X271187Y903063D02*
X273375Y901187D01*
X265250Y1025250D02*
Y1020250D01*
Y1060250D02*
Y1055250D01*
X267750Y952750D02*
Y987750D01*
X252750D01*
Y952750D01*
X267750D01*
Y1022750D02*
X262750D01*
X269000Y1034000D02*
Y1031500D01*
X261500D01*
Y1034000D01*
X269000D01*
Y1037750D02*
X261500D01*
X269000Y1044000D02*
Y1041500D01*
X261500D01*
Y1044000D01*
X269000D01*
Y1047750D02*
X261500D01*
X272750Y960250D02*
Y967750D01*
X267750D01*
Y960250D01*
X272750D01*
X280250Y900250D02*
X285250D01*
Y890250D02*
X290250D01*
X289250Y925250D02*
G75*
G03*
X300250Y914250I11000J0D01*
G01*
G75*
G03*
X311250Y925250I0J11000D01*
G01*
G75*
G03*
X306950Y935550I-14583J-41D01*
G01*
X293550D01*
G75*
G03*
X289250Y925250I10283J-10341D01*
G01*
X290250Y885250D02*
Y895250D01*
X310250D01*
Y885250D01*
X290250D01*
X290875Y891187D02*
X292125D01*
X291500D02*
Y894937D01*
X290875Y894313D01*
X295563Y891500D02*
X296187Y891187D01*
X296813D01*
X297437Y891500D01*
X297750Y892125D01*
Y894000D01*
X297437Y894625D01*
X296813Y894937D01*
X296187D01*
X295563Y894625D01*
X295250Y894000D01*
Y892125D01*
X295563Y891500D01*
X297437Y894625D01*
X300250Y891187D02*
Y894937D01*
Y893063D02*
X301187D01*
X303375Y894937D01*
X301187Y893063D02*
X303375Y891187D01*
X307750Y22750D02*
Y57750D01*
X292750D01*
Y22750D01*
X307750D01*
X310250Y890250D02*
X315250D01*
X312750Y30250D02*
Y37750D01*
X307750D01*
Y30250D01*
X312750D01*
X317437Y1041500D02*
Y1039000D01*
Y1061500D02*
Y1059000D01*
X316187Y1060250D02*
X318687D01*
X320250Y690250D02*
Y670250D01*
X340250D01*
Y690250D01*
X320250D01*
Y1096250D02*
X360250D01*
X320250Y1101250D02*
Y1084250D01*
X360250D01*
Y1101250D01*
X320250D01*
X330250Y615250D02*
Y620250D01*
X329313Y627125D02*
Y628375D01*
Y627750D02*
X325563D01*
X326187Y627125D01*
X329313Y631500D02*
X325563D01*
X327437D02*
Y632437D01*
X325563Y634625D01*
X327437Y632437D02*
X329313Y634625D01*
X330250Y640250D02*
Y645250D01*
Y1050250D02*
G75*
G03*
X290250I-20000J0D01*
G01*
G75*
G03*
X330250I20000J0D01*
G01*
Y1101187D02*
X332750Y1104937D01*
X330250D01*
X336187Y1103063D02*
X336813D01*
X337437Y1103375D01*
X337750Y1104000D01*
X337437Y1104625D01*
X336813Y1104937D01*
X336187D01*
X335563Y1104625D01*
X335250Y1104000D01*
X335563Y1103375D01*
X336187Y1103063D01*
X335563Y1102750D01*
X335250Y1102125D01*
X335563Y1101500D01*
X336187Y1101187D01*
X336813D01*
X337437Y1101500D01*
X337750Y1102125D01*
X337437Y1102750D01*
X336813Y1103063D01*
X340563Y1101500D02*
X341187Y1101187D01*
X341813D01*
X342437Y1101500D01*
X342750Y1102125D01*
Y1104000D01*
X342437Y1104625D01*
X341813Y1104937D01*
X341187D01*
X340563Y1104625D01*
X340250Y1104000D01*
Y1102125D01*
X340563Y1101500D01*
X342437Y1104625D01*
X345250Y1101500D02*
X345875Y1101187D01*
X346813D01*
X347437Y1101500D01*
X347750Y1102125D01*
Y1102437D01*
X347437Y1103063D01*
X346813Y1103375D01*
X345250D01*
Y1104937D01*
X347750D01*
X335250Y620250D02*
X325250D01*
Y640250D01*
X335250D01*
Y620250D01*
X367750Y22750D02*
Y57750D01*
X352750D01*
Y22750D01*
X367750D01*
X370250Y128687D02*
X372750Y132437D01*
X370250D01*
X376813Y128687D02*
Y132437D01*
X375250Y129937D01*
X377750D01*
X380250Y128687D02*
Y132437D01*
Y130563D02*
X383375D01*
Y128687D02*
Y132437D01*
X388375Y129313D02*
X388063Y129000D01*
X387437Y128687D01*
X386500D01*
X385875Y129000D01*
X385563Y129313D01*
X385250Y129937D01*
Y131187D01*
X385563Y131813D01*
X385875Y132125D01*
X386500Y132437D01*
X387437D01*
X388063Y132125D01*
X388375Y131813D01*
X391813Y128687D02*
Y132437D01*
X390250Y129937D01*
X392750D01*
X395563Y129000D02*
X396187Y128687D01*
X396813D01*
X397437Y129000D01*
X397750Y129625D01*
Y131500D01*
X397437Y132125D01*
X396813Y132437D01*
X396187D01*
X395563Y132125D01*
X395250Y131500D01*
Y129625D01*
X395563Y129000D01*
X397437Y132125D01*
X400250Y129000D02*
X400875Y128687D01*
X401813D01*
X402437Y129000D01*
X402750Y129625D01*
Y129937D01*
X402437Y130563D01*
X401813Y130875D01*
X400250D01*
Y132437D01*
X402750D01*
X405875Y128687D02*
X407125D01*
X406500D02*
Y132437D01*
X405875Y131813D01*
X372750Y30250D02*
Y37750D01*
X367750D01*
Y30250D01*
X372750D01*
X377750Y298687D02*
X380250Y302437D01*
X377750D01*
X384313Y298687D02*
Y302437D01*
X382750Y299937D01*
X385250D01*
X387750Y298687D02*
Y302437D01*
Y300563D02*
X390875D01*
Y298687D02*
Y302437D01*
X395875Y299313D02*
X395563Y299000D01*
X394937Y298687D01*
X394000D01*
X393375Y299000D01*
X393063Y299313D01*
X392750Y299937D01*
Y301187D01*
X393063Y301813D01*
X393375Y302125D01*
X394000Y302437D01*
X394937D01*
X395563Y302125D01*
X395875Y301813D01*
X398063Y299000D02*
X398687Y298687D01*
X399313D01*
X399937Y299000D01*
X400250Y299625D01*
Y301500D01*
X399937Y302125D01*
X399313Y302437D01*
X398687D01*
X398063Y302125D01*
X397750Y301500D01*
Y299625D01*
X398063Y299000D01*
X399937Y302125D01*
X403063Y299000D02*
X403687Y298687D01*
X404313D01*
X404937Y299000D01*
X405250Y299625D01*
Y301500D01*
X404937Y302125D01*
X404313Y302437D01*
X403687D01*
X403063Y302125D01*
X402750Y301500D01*
Y299625D01*
X403063Y299000D01*
X404937Y302125D01*
X377750Y558687D02*
X380250Y562437D01*
X377750D01*
X384313Y558687D02*
Y562437D01*
X382750Y559937D01*
X385250D01*
X387750Y558687D02*
Y562437D01*
Y560563D02*
X390875D01*
Y558687D02*
Y562437D01*
X395875Y559313D02*
X395563Y559000D01*
X394937Y558687D01*
X394000D01*
X393375Y559000D01*
X393063Y559313D01*
X392750Y559937D01*
Y561187D01*
X393063Y561813D01*
X393375Y562125D01*
X394000Y562437D01*
X394937D01*
X395563Y562125D01*
X395875Y561813D01*
X398063Y559000D02*
X398687Y558687D01*
X399313D01*
X399937Y559000D01*
X400250Y559625D01*
Y561500D01*
X399937Y562125D01*
X399313Y562437D01*
X398687D01*
X398063Y562125D01*
X397750Y561500D01*
Y559625D01*
X398063Y559000D01*
X399937Y562125D01*
X403063Y559000D02*
X403687Y558687D01*
X404313D01*
X404937Y559000D01*
X405250Y559625D01*
Y561500D01*
X404937Y562125D01*
X404313Y562437D01*
X403687D01*
X403063Y562125D01*
X402750Y561500D01*
Y559625D01*
X403063Y559000D01*
X404937Y562125D01*
X377750Y718687D02*
X380250Y722437D01*
X377750D01*
X384313Y718687D02*
Y722437D01*
X382750Y719937D01*
X385250D01*
X387750Y718687D02*
Y722437D01*
Y720563D02*
X390875D01*
Y718687D02*
Y722437D01*
X395875Y719313D02*
X395563Y719000D01*
X394937Y718687D01*
X394000D01*
X393375Y719000D01*
X393063Y719313D01*
X392750Y719937D01*
Y721187D01*
X393063Y721813D01*
X393375Y722125D01*
X394000Y722437D01*
X394937D01*
X395563Y722125D01*
X395875Y721813D01*
X398375Y718687D02*
X399625D01*
X399000D02*
Y722437D01*
X398375Y721813D01*
X402750Y719625D02*
X403063Y720250D01*
X403687Y720563D01*
X404313D01*
X404937Y720250D01*
X405250Y719625D01*
X404937Y719000D01*
X404313Y718687D01*
X403687D01*
X403063Y719000D01*
X402750Y719625D01*
Y720563D01*
X403063Y721500D01*
X403687Y722125D01*
X404313Y722437D01*
X408063Y719000D02*
X408687Y718687D01*
X409313D01*
X409937Y719000D01*
X410250Y719625D01*
X409937Y720250D01*
X409313Y720563D01*
X408687D01*
X409313D02*
X409937Y720875D01*
X410250Y721500D01*
X409937Y722125D01*
X409313Y722437D01*
X408687D01*
X408063Y722125D01*
X377750Y888687D02*
X380250Y892437D01*
X377750D01*
X384313Y888687D02*
Y892437D01*
X382750Y889937D01*
X385250D01*
X387750Y888687D02*
Y892437D01*
Y890563D02*
X390875D01*
Y888687D02*
Y892437D01*
X395875Y889313D02*
X395563Y889000D01*
X394937Y888687D01*
X394000D01*
X393375Y889000D01*
X393063Y889313D01*
X392750Y889937D01*
Y891187D01*
X393063Y891813D01*
X393375Y892125D01*
X394000Y892437D01*
X394937D01*
X395563Y892125D01*
X395875Y891813D01*
X398375Y888687D02*
X399625D01*
X399000D02*
Y892437D01*
X398375Y891813D01*
X402750Y889625D02*
X403063Y890250D01*
X403687Y890563D01*
X404313D01*
X404937Y890250D01*
X405250Y889625D01*
X404937Y889000D01*
X404313Y888687D01*
X403687D01*
X403063Y889000D01*
X402750Y889625D01*
Y890563D01*
X403063Y891500D01*
X403687Y892125D01*
X404313Y892437D01*
X408063Y889000D02*
X408687Y888687D01*
X409313D01*
X409937Y889000D01*
X410250Y889625D01*
X409937Y890250D01*
X409313Y890563D01*
X408687D01*
X409313D02*
X409937Y890875D01*
X410250Y891500D01*
X409937Y892125D01*
X409313Y892437D01*
X408687D01*
X408063Y892125D01*
X380250Y137750D02*
Y212750D01*
X382750D01*
X385250Y210250D01*
X387750Y212750D01*
X390250D01*
Y137750D01*
X380250D01*
Y307750D02*
Y372750D01*
X382750D01*
X385250Y370250D01*
X387750Y372750D01*
X390250D01*
Y307750D01*
X380250D01*
Y567750D02*
Y632750D01*
X382750D01*
X385250Y630250D01*
X387750Y632750D01*
X390250D01*
Y567750D01*
X380250D01*
Y727750D02*
Y802750D01*
X382750D01*
X385250Y800250D01*
X387750Y802750D01*
X390250D01*
Y727750D01*
X380250D01*
Y897750D02*
Y972750D01*
X382750D01*
X385250Y970250D01*
X387750Y972750D01*
X390250D01*
Y897750D01*
X380250D01*
X425250Y1090250D02*
X430250D01*
X427750Y22750D02*
Y57750D01*
X412750D01*
Y22750D01*
X427750D01*
X429250Y1115250D02*
G75*
G03*
X440250Y1104250I11000J0D01*
G01*
G75*
G03*
X451250Y1115250I0J11000D01*
G01*
G75*
G03*
X446950Y1125550I-14583J-41D01*
G01*
X433550D01*
G75*
G03*
X429250Y1115250I10283J-10341D01*
G01*
X430250Y1085250D02*
Y1095250D01*
X450250D01*
Y1085250D01*
X430250D01*
X430875Y1091187D02*
X432125D01*
X431500D02*
Y1094937D01*
X430875Y1094313D01*
X435563Y1091500D02*
X436187Y1091187D01*
X436813D01*
X437437Y1091500D01*
X437750Y1092125D01*
Y1094000D01*
X437437Y1094625D01*
X436813Y1094937D01*
X436187D01*
X435563Y1094625D01*
X435250Y1094000D01*
Y1092125D01*
X435563Y1091500D01*
X437437Y1094625D01*
X440250Y1091187D02*
Y1094937D01*
Y1093063D02*
X441187D01*
X443375Y1094937D01*
X441187Y1093063D02*
X443375Y1091187D01*
X432750Y30250D02*
Y37750D01*
X427750D01*
Y30250D01*
X432750D01*
X440250Y615250D02*
Y620250D01*
X439313Y627125D02*
Y628375D01*
Y627750D02*
X435563D01*
X436187Y627125D01*
X439313Y631500D02*
X435563D01*
X437437D02*
Y632437D01*
X435563Y634625D01*
X437437Y632437D02*
X439313Y634625D01*
X440250Y640250D02*
Y645250D01*
X445250Y620250D02*
X435250D01*
Y640250D01*
X445250D01*
Y620250D01*
X450250Y670250D02*
Y690250D01*
X430250D01*
Y670250D01*
X450250D01*
Y1090250D02*
X455250D01*
Y1080250D02*
X460250D01*
X459250Y1115250D02*
G75*
G03*
X470250Y1104250I11000J0D01*
G01*
G75*
G03*
X481250Y1115250I0J11000D01*
G01*
G75*
G03*
X476950Y1125550I-14583J-41D01*
G01*
X463550D01*
G75*
G03*
X459250Y1115250I10283J-10341D01*
G01*
X460250Y1075250D02*
Y1085250D01*
X480250D01*
Y1075250D01*
X460250D01*
X460875Y1081187D02*
X462125D01*
X461500D02*
Y1084937D01*
X460875Y1084313D01*
X465563Y1081500D02*
X466187Y1081187D01*
X466813D01*
X467437Y1081500D01*
X467750Y1082125D01*
Y1084000D01*
X467437Y1084625D01*
X466813Y1084937D01*
X466187D01*
X465563Y1084625D01*
X465250Y1084000D01*
Y1082125D01*
X465563Y1081500D01*
X467437Y1084625D01*
X470250Y1081187D02*
Y1084937D01*
Y1083063D02*
X471187D01*
X473375Y1084937D01*
X471187Y1083063D02*
X473375Y1081187D01*
X466850Y568950D02*
X464250Y566350D01*
X466450Y564150D01*
X469050Y566750D01*
X480250Y597750D02*
G75*
G02*
X497750Y580250I0J-17500D01*
G01*
G75*
G02*
X480250Y562750I-17500J0D01*
G01*
G75*
G02*
X462750Y580250I0J17500D01*
G01*
G75*
G02*
X480250Y597750I17500J0D01*
G01*
Y615250D02*
Y620250D01*
X479313Y621813D02*
X475563D01*
X478063Y620250D01*
Y622750D01*
X479313Y625250D02*
X475563D01*
X478063D02*
Y626187D01*
X476813Y627750D01*
X478063Y626187D02*
X479313Y627750D01*
Y630250D02*
X475563Y632750D01*
Y630250D01*
X480250Y640250D02*
Y645250D01*
Y1080250D02*
X485250D01*
Y620250D02*
X475250D01*
Y640250D01*
X485250D01*
Y620250D01*
Y1090250D02*
X490250D01*
X489250Y1115250D02*
G75*
G03*
X500250Y1104250I11000J0D01*
G01*
G75*
G03*
X511250Y1115250I0J11000D01*
G01*
G75*
G03*
X506950Y1125550I-14583J-41D01*
G01*
X493550D01*
G75*
G03*
X489250Y1115250I10283J-10341D01*
G01*
X490250Y1085250D02*
Y1095250D01*
X510250D01*
Y1085250D01*
X490250D01*
X490875Y1091187D02*
X492125D01*
X491500D02*
Y1094937D01*
X490875Y1094313D01*
X495563Y1091500D02*
X496187Y1091187D01*
X496813D01*
X497437Y1091500D01*
X497750Y1092125D01*
Y1094000D01*
X497437Y1094625D01*
X496813Y1094937D01*
X496187D01*
X495563Y1094625D01*
X495250Y1094000D01*
Y1092125D01*
X495563Y1091500D01*
X497437Y1094625D01*
X500250Y1091187D02*
Y1094937D01*
Y1093063D02*
X501187D01*
X503375Y1094937D01*
X501187Y1093063D02*
X503375Y1091187D01*
X505250Y590250D02*
X515250D01*
Y570250D01*
X505250D01*
Y590250D01*
X510250Y570250D02*
Y565250D01*
X511187Y583375D02*
Y582125D01*
Y582750D02*
X514937D01*
X514313Y583375D01*
X511187Y579000D02*
X514937D01*
X513063D02*
Y578063D01*
X514937Y575875D01*
X513063Y578063D02*
X511187Y575875D01*
X510250Y595250D02*
Y590250D01*
Y1090250D02*
X515250D01*
Y1080250D02*
X520250D01*
X519250Y1115250D02*
G75*
G03*
X530250Y1104250I11000J0D01*
G01*
G75*
G03*
X541250Y1115250I0J11000D01*
G01*
G75*
G03*
X536950Y1125550I-14583J-41D01*
G01*
X523550D01*
G75*
G03*
X519250Y1115250I10283J-10341D01*
G01*
X520250Y1075250D02*
Y1085250D01*
X540250D01*
Y1075250D01*
X520250D01*
X520875Y1081187D02*
X522125D01*
X521500D02*
Y1084937D01*
X520875Y1084313D01*
X525563Y1081500D02*
X526187Y1081187D01*
X526813D01*
X527437Y1081500D01*
X527750Y1082125D01*
Y1084000D01*
X527437Y1084625D01*
X526813Y1084937D01*
X526187D01*
X525563Y1084625D01*
X525250Y1084000D01*
Y1082125D01*
X525563Y1081500D01*
X527437Y1084625D01*
X530250Y1081187D02*
Y1084937D01*
Y1083063D02*
X531187D01*
X533375Y1084937D01*
X531187Y1083063D02*
X533375Y1081187D01*
X535250Y339250D02*
G75*
G03*
X546250Y350250I0J11000D01*
G01*
G75*
G03*
X535250Y361250I-11000J0D01*
G01*
G75*
G03*
X524950Y356950I41J-14583D01*
G01*
Y343550D01*
G75*
G03*
X535250Y339250I10341J10283D01*
G01*
X540250Y1080250D02*
X545250D01*
Y1090250D02*
X550250D01*
X549250Y1115250D02*
G75*
G03*
X560250Y1104250I11000J0D01*
G01*
G75*
G03*
X571250Y1115250I0J11000D01*
G01*
G75*
G03*
X566950Y1125550I-14583J-41D01*
G01*
X553550D01*
G75*
G03*
X549250Y1115250I10283J-10341D01*
G01*
X550250Y970250D02*
Y820250D01*
X630250D01*
Y970250D01*
X550250D01*
Y1085250D02*
Y1095250D01*
X570250D01*
Y1085250D01*
X550250D01*
X550875Y1091187D02*
X552125D01*
X551500D02*
Y1094937D01*
X550875Y1094313D01*
X555563Y1091500D02*
X556187Y1091187D01*
X556813D01*
X557437Y1091500D01*
X557750Y1092125D01*
Y1094000D01*
X557437Y1094625D01*
X556813Y1094937D01*
X556187D01*
X555563Y1094625D01*
X555250Y1094000D01*
Y1092125D01*
X555563Y1091500D01*
X557437Y1094625D01*
X560250Y1091187D02*
Y1094937D01*
Y1093063D02*
X561187D01*
X563375Y1094937D01*
X561187Y1093063D02*
X563375Y1091187D01*
X560250Y335250D02*
Y340250D01*
X559313Y340875D02*
Y342125D01*
Y341500D02*
X555563D01*
X556187Y340875D01*
X559000Y345563D02*
X559313Y346187D01*
Y346813D01*
X559000Y347437D01*
X558375Y347750D01*
X556500D01*
X555875Y347437D01*
X555563Y346813D01*
Y346187D01*
X555875Y345563D01*
X556500Y345250D01*
X558375D01*
X559000Y345563D01*
X555875Y347437D01*
X559313Y350250D02*
X555563D01*
X557437D02*
Y351187D01*
X555563Y353375D01*
X557437Y351187D02*
X559313Y353375D01*
X560250Y360250D02*
Y365250D01*
X565250Y340250D02*
X555250D01*
Y360250D01*
X565250D01*
Y340250D01*
X570250Y831187D02*
X571813Y834937D01*
X573375Y831187D01*
X570875Y832750D02*
X572750D01*
X576813Y831187D02*
Y834937D01*
X575250D02*
X578375D01*
X582750Y831187D02*
X580250D01*
X582437Y833375D01*
X582750Y834000D01*
X582437Y834625D01*
X581813Y834937D01*
X580875D01*
X580250Y834625D01*
X586187Y833063D02*
X586813D01*
X587437Y833375D01*
X587750Y834000D01*
X587437Y834625D01*
X586813Y834937D01*
X586187D01*
X585563Y834625D01*
X585250Y834000D01*
X585563Y833375D01*
X586187Y833063D01*
X585563Y832750D01*
X585250Y832125D01*
X585563Y831500D01*
X586187Y831187D01*
X586813D01*
X587437Y831500D01*
X587750Y832125D01*
X587437Y832750D01*
X586813Y833063D01*
X593375Y831813D02*
X593063Y831500D01*
X592437Y831187D01*
X591500D01*
X590875Y831500D01*
X590563Y831813D01*
X590250Y832437D01*
Y833687D01*
X590563Y834313D01*
X590875Y834625D01*
X591500Y834937D01*
X592437D01*
X593063Y834625D01*
X593375Y834313D01*
X595250Y832125D02*
X595563Y832750D01*
X596187Y833063D01*
X596813D01*
X597437Y832750D01*
X597750Y832125D01*
X597437Y831500D01*
X596813Y831187D01*
X596187D01*
X595563Y831500D01*
X595250Y832125D01*
Y833063D01*
X595563Y834000D01*
X596187Y834625D01*
X596813Y834937D01*
X601813Y831187D02*
Y834937D01*
X600250Y832437D01*
X602750D01*
X570250Y1090250D02*
X575250D01*
Y1080250D02*
X580250D01*
X579250Y1115250D02*
G75*
G03*
X590250Y1104250I11000J0D01*
G01*
G75*
G03*
X601250Y1115250I0J11000D01*
G01*
G75*
G03*
X596950Y1125550I-14583J-41D01*
G01*
X583550D01*
G75*
G03*
X579250Y1115250I10283J-10341D01*
G01*
X580250Y548687D02*
Y552437D01*
X581813Y550563D01*
X583375Y552437D01*
Y548687D01*
X588375Y549313D02*
X588063Y549000D01*
X587437Y548687D01*
X586500D01*
X585875Y549000D01*
X585563Y549313D01*
X585250Y549937D01*
Y551187D01*
X585563Y551813D01*
X585875Y552125D01*
X586500Y552437D01*
X587437D01*
X588063Y552125D01*
X588375Y551813D01*
X590875Y548687D02*
X592125D01*
X591500D02*
Y552437D01*
X590875Y551813D01*
X596813Y548687D02*
Y552437D01*
X595250Y549937D01*
X597750D01*
X600250Y549000D02*
X600875Y548687D01*
X601813D01*
X602437Y549000D01*
X602750Y549625D01*
Y549937D01*
X602437Y550563D01*
X601813Y550875D01*
X600250D01*
Y552437D01*
X602750D01*
X605563Y549000D02*
X606187Y548687D01*
X606813D01*
X607437Y549000D01*
X607750Y549625D01*
Y551500D01*
X607437Y552125D01*
X606813Y552437D01*
X606187D01*
X605563Y552125D01*
X605250Y551500D01*
Y549625D01*
X605563Y549000D01*
X607437Y552125D01*
X610563Y549000D02*
X611187Y548687D01*
X611813D01*
X612437Y549000D01*
X612750Y549625D01*
Y551500D01*
X612437Y552125D01*
X611813Y552437D01*
X611187D01*
X610563Y552125D01*
X610250Y551500D01*
Y549625D01*
X610563Y549000D01*
X612437Y552125D01*
X580250Y1075250D02*
Y1085250D01*
X600250D01*
Y1075250D01*
X580250D01*
X580875Y1081187D02*
X582125D01*
X581500D02*
Y1084937D01*
X580875Y1084313D01*
X585563Y1081500D02*
X586187Y1081187D01*
X586813D01*
X587437Y1081500D01*
X587750Y1082125D01*
Y1084000D01*
X587437Y1084625D01*
X586813Y1084937D01*
X586187D01*
X585563Y1084625D01*
X585250Y1084000D01*
Y1082125D01*
X585563Y1081500D01*
X587437Y1084625D01*
X590250Y1081187D02*
Y1084937D01*
Y1083063D02*
X591187D01*
X593375Y1084937D01*
X591187Y1083063D02*
X593375Y1081187D01*
X587750Y128687D02*
X590250Y132437D01*
X587750D01*
X594313Y128687D02*
Y132437D01*
X592750Y129937D01*
X595250D01*
X597750Y128687D02*
Y132437D01*
Y130563D02*
X600875D01*
Y128687D02*
Y132437D01*
X605875Y129313D02*
X605563Y129000D01*
X604937Y128687D01*
X604000D01*
X603375Y129000D01*
X603063Y129313D01*
X602750Y129937D01*
Y131187D01*
X603063Y131813D01*
X603375Y132125D01*
X604000Y132437D01*
X604937D01*
X605563Y132125D01*
X605875Y131813D01*
X610250Y128687D02*
X607750D01*
X609937Y130875D01*
X610250Y131500D01*
X609937Y132125D01*
X609313Y132437D01*
X608375D01*
X607750Y132125D01*
X612750Y129000D02*
X613375Y128687D01*
X614313D01*
X614937Y129000D01*
X615250Y129625D01*
Y129937D01*
X614937Y130563D01*
X614313Y130875D01*
X612750D01*
Y132437D01*
X615250D01*
X618687Y128687D02*
X619313Y129000D01*
X619937Y129625D01*
X620250Y130563D01*
Y131500D01*
X619937Y132125D01*
X619313Y132437D01*
X618687D01*
X618063Y132125D01*
X617750Y131500D01*
X618063Y130875D01*
X618687Y130563D01*
X619313D01*
X619937Y130875D01*
X620250Y131500D01*
X587750Y298687D02*
X590250Y302437D01*
X587750D01*
X594313Y298687D02*
Y302437D01*
X592750Y299937D01*
X595250D01*
X597750Y298687D02*
Y302437D01*
Y300563D02*
X600875D01*
Y298687D02*
Y302437D01*
X605875Y299313D02*
X605563Y299000D01*
X604937Y298687D01*
X604000D01*
X603375Y299000D01*
X603063Y299313D01*
X602750Y299937D01*
Y301187D01*
X603063Y301813D01*
X603375Y302125D01*
X604000Y302437D01*
X604937D01*
X605563Y302125D01*
X605875Y301813D01*
X608063Y299000D02*
X608687Y298687D01*
X609313D01*
X609937Y299000D01*
X610250Y299625D01*
Y301500D01*
X609937Y302125D01*
X609313Y302437D01*
X608687D01*
X608063Y302125D01*
X607750Y301500D01*
Y299625D01*
X608063Y299000D01*
X609937Y302125D01*
X614313Y298687D02*
Y302437D01*
X612750Y299937D01*
X615250D01*
X590250Y137750D02*
Y212750D01*
X592750D01*
X595250Y210250D01*
X597750Y212750D01*
X600250D01*
Y137750D01*
X590250D01*
Y307750D02*
Y372750D01*
X592750D01*
X595250Y370250D01*
X597750Y372750D01*
X600250D01*
Y307750D01*
X590250D01*
Y557750D02*
Y632750D01*
X592750D01*
X595250Y630250D01*
X597750Y632750D01*
X600250D01*
Y557750D01*
X590250D01*
X600250Y1080250D02*
X605250D01*
Y1090250D02*
X610250D01*
X609250Y1115250D02*
G75*
G03*
X620250Y1104250I11000J0D01*
G01*
G75*
G03*
X631250Y1115250I0J11000D01*
G01*
G75*
G03*
X626950Y1125550I-14583J-41D01*
G01*
X613550D01*
G75*
G03*
X609250Y1115250I10283J-10341D01*
G01*
X610250Y1085250D02*
Y1095250D01*
X630250D01*
Y1085250D01*
X610250D01*
X610875Y1091187D02*
X612125D01*
X611500D02*
Y1094937D01*
X610875Y1094313D01*
X615563Y1091500D02*
X616187Y1091187D01*
X616813D01*
X617437Y1091500D01*
X617750Y1092125D01*
Y1094000D01*
X617437Y1094625D01*
X616813Y1094937D01*
X616187D01*
X615563Y1094625D01*
X615250Y1094000D01*
Y1092125D01*
X615563Y1091500D01*
X617437Y1094625D01*
X620250Y1091187D02*
Y1094937D01*
Y1093063D02*
X621187D01*
X623375Y1094937D01*
X621187Y1093063D02*
X623375Y1091187D01*
X630250Y1090250D02*
X635250D01*
X632750Y932750D02*
X667750D01*
Y947750D01*
X632750D01*
Y932750D01*
X635250Y610250D02*
X640250D01*
X635250Y1080250D02*
X640250D01*
X639250Y1115250D02*
G75*
G03*
X650250Y1104250I11000J0D01*
G01*
G75*
G03*
X661250Y1115250I0J11000D01*
G01*
G75*
G03*
X656950Y1125550I-14583J-41D01*
G01*
X643550D01*
G75*
G03*
X639250Y1115250I10283J-10341D01*
G01*
X640250Y605250D02*
Y615250D01*
X660250D01*
Y605250D01*
X640250D01*
Y927750D02*
X647750D01*
Y932750D01*
X640250D01*
Y927750D01*
Y1075250D02*
Y1085250D01*
X660250D01*
Y1075250D01*
X640250D01*
X640875Y1081187D02*
X642125D01*
X641500D02*
Y1084937D01*
X640875Y1084313D01*
X645563Y1081500D02*
X646187Y1081187D01*
X646813D01*
X647437Y1081500D01*
X647750Y1082125D01*
Y1084000D01*
X647437Y1084625D01*
X646813Y1084937D01*
X646187D01*
X645563Y1084625D01*
X645250Y1084000D01*
Y1082125D01*
X645563Y1081500D01*
X647437Y1084625D01*
X650250Y1081187D02*
Y1084937D01*
Y1083063D02*
X651187D01*
X653375Y1084937D01*
X651187Y1083063D02*
X653375Y1081187D01*
X647125Y611187D02*
X648375D01*
X647750D02*
Y614937D01*
X647125Y614313D01*
X651500Y611187D02*
Y614937D01*
X653063Y613063D01*
X654625Y614937D01*
Y611187D01*
X660250Y610250D02*
X665250D01*
X660250Y1080250D02*
X665250D01*
X695250Y1090250D02*
X700250D01*
X699250Y1115250D02*
G75*
G03*
X710250Y1104250I11000J0D01*
G01*
G75*
G03*
X721250Y1115250I0J11000D01*
G01*
G75*
G03*
X716950Y1125550I-14583J-41D01*
G01*
X703550D01*
G75*
G03*
X699250Y1115250I10283J-10341D01*
G01*
X700250Y1085250D02*
Y1095250D01*
X720250D01*
Y1085250D01*
X700250D01*
X700875Y1091187D02*
X702125D01*
X701500D02*
Y1094937D01*
X700875Y1094313D01*
X705563Y1091500D02*
X706187Y1091187D01*
X706813D01*
X707437Y1091500D01*
X707750Y1092125D01*
Y1094000D01*
X707437Y1094625D01*
X706813Y1094937D01*
X706187D01*
X705563Y1094625D01*
X705250Y1094000D01*
Y1092125D01*
X705563Y1091500D01*
X707437Y1094625D01*
X710250Y1091187D02*
Y1094937D01*
Y1093063D02*
X711187D01*
X713375Y1094937D01*
X711187Y1093063D02*
X713375Y1091187D01*
X709250Y265250D02*
G75*
G03*
X720250Y254250I11000J0D01*
G01*
G75*
G03*
X731250Y265250I0J11000D01*
G01*
G75*
G03*
X726950Y275550I-14583J-41D01*
G01*
X713550D01*
G75*
G03*
X709250Y265250I10283J-10341D01*
G01*
X715250Y314000D02*
X685250D01*
Y326500D01*
X715250D01*
Y314000D01*
Y964000D02*
X685250D01*
Y976500D01*
X715250D01*
Y964000D01*
X720250Y215250D02*
Y220250D01*
X719313Y220875D02*
Y222125D01*
Y221500D02*
X715563D01*
X716187Y220875D01*
X719000Y225563D02*
X719313Y226187D01*
Y226813D01*
X719000Y227437D01*
X718375Y227750D01*
X716500D01*
X715875Y227437D01*
X715563Y226813D01*
Y226187D01*
X715875Y225563D01*
X716500Y225250D01*
X718375D01*
X719000Y225563D01*
X715875Y227437D01*
X719313Y230250D02*
X715563D01*
X717437D02*
Y231187D01*
X715563Y233375D01*
X717437Y231187D02*
X719313Y233375D01*
X720250Y240250D02*
Y245250D01*
Y1090250D02*
X725250D01*
Y220250D02*
X715250D01*
Y240250D01*
X725250D01*
Y220250D01*
Y1080250D02*
X730250D01*
X729250Y1115250D02*
G75*
G03*
X740250Y1104250I11000J0D01*
G01*
G75*
G03*
X751250Y1115250I0J11000D01*
G01*
G75*
G03*
X746950Y1125550I-14583J-41D01*
G01*
X733550D01*
G75*
G03*
X729250Y1115250I10283J-10341D01*
G01*
X730250Y1075250D02*
Y1085250D01*
X750250D01*
Y1075250D01*
X730250D01*
X730875Y1081187D02*
X732125D01*
X731500D02*
Y1084937D01*
X730875Y1084313D01*
X735563Y1081500D02*
X736187Y1081187D01*
X736813D01*
X737437Y1081500D01*
X737750Y1082125D01*
Y1084000D01*
X737437Y1084625D01*
X736813Y1084937D01*
X736187D01*
X735563Y1084625D01*
X735250Y1084000D01*
Y1082125D01*
X735563Y1081500D01*
X737437Y1084625D01*
X740250Y1081187D02*
Y1084937D01*
Y1083063D02*
X741187D01*
X743375Y1084937D01*
X741187Y1083063D02*
X743375Y1081187D01*
X739250Y265250D02*
G75*
G03*
X750250Y254250I11000J0D01*
G01*
G75*
G03*
X761250Y265250I0J11000D01*
G01*
G75*
G03*
X756950Y275550I-14583J-41D01*
G01*
X743550D01*
G75*
G03*
X739250Y265250I10283J-10341D01*
G01*
X747750Y22750D02*
Y57750D01*
X732750D01*
Y22750D01*
X747750D01*
X750250Y215250D02*
Y220250D01*
X749313Y220875D02*
Y222125D01*
Y221500D02*
X745563D01*
X746187Y220875D01*
X749000Y225563D02*
X749313Y226187D01*
Y226813D01*
X749000Y227437D01*
X748375Y227750D01*
X746500D01*
X745875Y227437D01*
X745563Y226813D01*
Y226187D01*
X745875Y225563D01*
X746500Y225250D01*
X748375D01*
X749000Y225563D01*
X745875Y227437D01*
X749313Y230250D02*
X745563D01*
X747437D02*
Y231187D01*
X745563Y233375D01*
X747437Y231187D02*
X749313Y233375D01*
X750250Y240250D02*
Y245250D01*
Y1080250D02*
X755250D01*
X752750Y30250D02*
Y37750D01*
X747750D01*
Y30250D01*
X752750D01*
X755250Y220250D02*
X745250D01*
Y240250D01*
X755250D01*
Y220250D01*
Y1090250D02*
X760250D01*
X759250Y1115250D02*
G75*
G03*
X770250Y1104250I11000J0D01*
G01*
G75*
G03*
X781250Y1115250I0J11000D01*
G01*
G75*
G03*
X776950Y1125550I-14583J-41D01*
G01*
X763550D01*
G75*
G03*
X759250Y1115250I10283J-10341D01*
G01*
X760250Y1085250D02*
Y1095250D01*
X780250D01*
Y1085250D01*
X760250D01*
X760875Y1091187D02*
X762125D01*
X761500D02*
Y1094937D01*
X760875Y1094313D01*
X765563Y1091500D02*
X766187Y1091187D01*
X766813D01*
X767437Y1091500D01*
X767750Y1092125D01*
Y1094000D01*
X767437Y1094625D01*
X766813Y1094937D01*
X766187D01*
X765563Y1094625D01*
X765250Y1094000D01*
Y1092125D01*
X765563Y1091500D01*
X767437Y1094625D01*
X770250Y1091187D02*
Y1094937D01*
Y1093063D02*
X771187D01*
X773375Y1094937D01*
X771187Y1093063D02*
X773375Y1091187D01*
X765250Y150250D02*
X770250D01*
X765250Y314000D02*
X725250D01*
Y326500D01*
X765250D01*
Y314000D01*
Y964000D02*
X725250D01*
Y976500D01*
X765250D01*
Y964000D01*
X767750Y99000D02*
X768375Y98687D01*
X769313D01*
X769937Y99000D01*
X770250Y99625D01*
Y99937D01*
X769937Y100563D01*
X769313Y100875D01*
X767750D01*
Y102437D01*
X770250D01*
X772750Y99000D02*
X773375Y98687D01*
X774313D01*
X774937Y99000D01*
X775250Y99625D01*
Y99937D01*
X774937Y100563D01*
X774313Y100875D01*
X772750D01*
Y102437D01*
X775250D01*
X777750Y99000D02*
X778375Y98687D01*
X779313D01*
X779937Y99000D01*
X780250Y99625D01*
Y99937D01*
X779937Y100563D01*
X779313Y100875D01*
X777750D01*
Y102437D01*
X780250D01*
X770563Y79937D02*
Y83687D01*
X769000Y81187D01*
X771500D01*
X774000Y79937D02*
X776500Y83687D01*
X774000D01*
X779000Y79937D02*
Y82437D01*
Y81500D02*
X779313Y82125D01*
X779937Y82437D01*
X780563D01*
X781187Y82125D01*
X781500Y81500D01*
Y79937D01*
X769250Y265250D02*
G75*
G03*
X780250Y254250I11000J0D01*
G01*
G75*
G03*
X791250Y265250I0J11000D01*
G01*
G75*
G03*
X786950Y275550I-14583J-41D01*
G01*
X773550D01*
G75*
G03*
X769250Y265250I10283J-10341D01*
G01*
X770250Y107750D02*
Y142750D01*
X772750D01*
X775250Y140250D01*
X777750Y142750D01*
X780250D01*
Y107750D01*
X770250D01*
Y145250D02*
Y155250D01*
X790250D01*
Y145250D01*
X770250D01*
X777125Y151187D02*
X778375D01*
X777750D02*
Y154937D01*
X777125Y154313D01*
X781813Y151500D02*
X782437Y151187D01*
X783063D01*
X783687Y151500D01*
X784000Y152125D01*
Y154000D01*
X783687Y154625D01*
X783063Y154937D01*
X782437D01*
X781813Y154625D01*
X781500Y154000D01*
Y152125D01*
X781813Y151500D01*
X783687Y154625D01*
X786500Y151187D02*
Y154937D01*
Y153063D02*
X787437D01*
X789625Y154937D01*
X787437Y153063D02*
X789625Y151187D01*
X780250Y215250D02*
Y220250D01*
X779313Y220875D02*
Y222125D01*
Y221500D02*
X775563D01*
X776187Y220875D01*
X779000Y225563D02*
X779313Y226187D01*
Y226813D01*
X779000Y227437D01*
X778375Y227750D01*
X776500D01*
X775875Y227437D01*
X775563Y226813D01*
Y226187D01*
X775875Y225563D01*
X776500Y225250D01*
X778375D01*
X779000Y225563D01*
X775875Y227437D01*
X779313Y230250D02*
X775563D01*
X777437D02*
Y231187D01*
X775563Y233375D01*
X777437Y231187D02*
X779313Y233375D01*
X780250Y240250D02*
Y245250D01*
Y1090250D02*
X785250D01*
Y220250D02*
X775250D01*
Y240250D01*
X785250D01*
Y220250D01*
Y1080250D02*
X790250D01*
X789250Y1115250D02*
G75*
G03*
X800250Y1104250I11000J0D01*
G01*
G75*
G03*
X811250Y1115250I0J11000D01*
G01*
G75*
G03*
X806950Y1125550I-14583J-41D01*
G01*
X793550D01*
G75*
G03*
X789250Y1115250I10283J-10341D01*
G01*
X790250Y150250D02*
X795250D01*
X790250Y1075250D02*
Y1085250D01*
X810250D01*
Y1075250D01*
X790250D01*
X790875Y1081187D02*
X792125D01*
X791500D02*
Y1084937D01*
X790875Y1084313D01*
X795563Y1081500D02*
X796187Y1081187D01*
X796813D01*
X797437Y1081500D01*
X797750Y1082125D01*
Y1084000D01*
X797437Y1084625D01*
X796813Y1084937D01*
X796187D01*
X795563Y1084625D01*
X795250Y1084000D01*
Y1082125D01*
X795563Y1081500D01*
X797437Y1084625D01*
X800250Y1081187D02*
Y1084937D01*
Y1083063D02*
X801187D01*
X803375Y1084937D01*
X801187Y1083063D02*
X803375Y1081187D01*
X799250Y265250D02*
G75*
G03*
X810250Y254250I11000J0D01*
G01*
G75*
G03*
X821250Y265250I0J11000D01*
G01*
G75*
G03*
X816950Y275550I-14583J-41D01*
G01*
X803550D01*
G75*
G03*
X799250Y265250I10283J-10341D01*
G01*
X800250Y50250D02*
X840250D01*
Y10250D01*
X800250D01*
Y50250D01*
X810250Y105250D02*
Y110250D01*
X809313Y117125D02*
Y118375D01*
Y117750D02*
X805563D01*
X806187Y117125D01*
X809000Y121813D02*
X809313Y122437D01*
Y123063D01*
X809000Y123687D01*
X808375Y124000D01*
X806500D01*
X805875Y123687D01*
X805563Y123063D01*
Y122437D01*
X805875Y121813D01*
X806500Y121500D01*
X808375D01*
X809000Y121813D01*
X805875Y123687D01*
X809313Y126500D02*
X805563D01*
X807437D02*
Y127437D01*
X805563Y129625D01*
X807437Y127437D02*
X809313Y129625D01*
X810250Y130250D02*
Y135250D01*
Y215250D02*
Y220250D01*
X809313Y220875D02*
Y222125D01*
Y221500D02*
X805563D01*
X806187Y220875D01*
X809000Y225563D02*
X809313Y226187D01*
Y226813D01*
X809000Y227437D01*
X808375Y227750D01*
X806500D01*
X805875Y227437D01*
X805563Y226813D01*
Y226187D01*
X805875Y225563D01*
X806500Y225250D01*
X808375D01*
X809000Y225563D01*
X805875Y227437D01*
X809313Y230250D02*
X805563D01*
X807437D02*
Y231187D01*
X805563Y233375D01*
X807437Y231187D02*
X809313Y233375D01*
X810250Y240250D02*
Y245250D01*
Y1080250D02*
X815250D01*
X811500Y73063D02*
X809000D01*
X815250Y110250D02*
X805250D01*
Y130250D01*
X815250D01*
Y110250D01*
Y220250D02*
X805250D01*
Y240250D01*
X815250D01*
Y220250D01*
Y314000D02*
X775250D01*
Y326500D01*
X815250D01*
Y314000D01*
Y964000D02*
X775250D01*
Y976500D01*
X815250D01*
Y964000D01*
Y1090250D02*
X820250D01*
X819250Y1115250D02*
G75*
G03*
X830250Y1104250I11000J0D01*
G01*
G75*
G03*
X841250Y1115250I0J11000D01*
G01*
G75*
G03*
X836950Y1125550I-14583J-41D01*
G01*
X823550D01*
G75*
G03*
X819250Y1115250I10283J-10341D01*
G01*
X820250Y60250D02*
G75*
G03*
Y100250I0J20000D01*
G01*
G75*
G03*
Y60250I0J-20000D01*
G01*
Y1085250D02*
Y1095250D01*
X840250D01*
Y1085250D01*
X820250D01*
X820875Y1091187D02*
X822125D01*
X821500D02*
Y1094937D01*
X820875Y1094313D01*
X825563Y1091500D02*
X826187Y1091187D01*
X826813D01*
X827437Y1091500D01*
X827750Y1092125D01*
Y1094000D01*
X827437Y1094625D01*
X826813Y1094937D01*
X826187D01*
X825563Y1094625D01*
X825250Y1094000D01*
Y1092125D01*
X825563Y1091500D01*
X827437Y1094625D01*
X830250Y1091187D02*
Y1094937D01*
Y1093063D02*
X831187D01*
X833375Y1094937D01*
X831187Y1093063D02*
X833375Y1091187D01*
X829250Y265250D02*
G75*
G03*
X840250Y254250I11000J0D01*
G01*
G75*
G03*
X851250Y265250I0J11000D01*
G01*
G75*
G03*
X846950Y275550I-14583J-41D01*
G01*
X833550D01*
G75*
G03*
X829250Y265250I10283J-10341D01*
G01*
X831500Y73063D02*
X829000D01*
X830250Y74313D02*
Y71813D01*
X840250Y215250D02*
Y220250D01*
X839313Y220875D02*
Y222125D01*
Y221500D02*
X835563D01*
X836187Y220875D01*
X839000Y225563D02*
X839313Y226187D01*
Y226813D01*
X839000Y227437D01*
X838375Y227750D01*
X836500D01*
X835875Y227437D01*
X835563Y226813D01*
Y226187D01*
X835875Y225563D01*
X836500Y225250D01*
X838375D01*
X839000Y225563D01*
X835875Y227437D01*
X839313Y230250D02*
X835563D01*
X837437D02*
Y231187D01*
X835563Y233375D01*
X837437Y231187D02*
X839313Y233375D01*
X840250Y240250D02*
Y245250D01*
Y1090250D02*
X845250D01*
Y220250D02*
X835250D01*
Y240250D01*
X845250D01*
Y220250D01*
Y1080250D02*
X850250D01*
X849250Y1115250D02*
G75*
G03*
X860250Y1104250I11000J0D01*
G01*
G75*
G03*
X871250Y1115250I0J11000D01*
G01*
G75*
G03*
X866950Y1125550I-14583J-41D01*
G01*
X853550D01*
G75*
G03*
X849250Y1115250I10283J-10341D01*
G01*
X850250Y1075250D02*
Y1085250D01*
X870250D01*
Y1075250D01*
X850250D01*
X850875Y1081187D02*
X852125D01*
X851500D02*
Y1084937D01*
X850875Y1084313D01*
X855563Y1081500D02*
X856187Y1081187D01*
X856813D01*
X857437Y1081500D01*
X857750Y1082125D01*
Y1084000D01*
X857437Y1084625D01*
X856813Y1084937D01*
X856187D01*
X855563Y1084625D01*
X855250Y1084000D01*
Y1082125D01*
X855563Y1081500D01*
X857437Y1084625D01*
X860250Y1081187D02*
Y1084937D01*
Y1083063D02*
X861187D01*
X863375Y1084937D01*
X861187Y1083063D02*
X863375Y1081187D01*
X855250Y314000D02*
X815250D01*
Y326500D01*
X855250D01*
Y314000D01*
Y964000D02*
X815250D01*
Y976500D01*
X855250D01*
Y964000D01*
X857750Y99000D02*
X858375Y98687D01*
X859313D01*
X859937Y99000D01*
X860250Y99625D01*
Y99937D01*
X859937Y100563D01*
X859313Y100875D01*
X857750D01*
Y102437D01*
X860250D01*
X862750Y99000D02*
X863375Y98687D01*
X864313D01*
X864937Y99000D01*
X865250Y99625D01*
Y99937D01*
X864937Y100563D01*
X864313Y100875D01*
X862750D01*
Y102437D01*
X865250D01*
X867750Y99000D02*
X868375Y98687D01*
X869313D01*
X869937Y99000D01*
X870250Y99625D01*
Y99937D01*
X869937Y100563D01*
X869313Y100875D01*
X867750D01*
Y102437D01*
X870250D01*
X859313Y60250D02*
X859937Y59937D01*
X860563D01*
X861187Y60250D01*
X861500Y60875D01*
Y62750D01*
X861187Y63375D01*
X860563Y63687D01*
X859937D01*
X859313Y63375D01*
X859000Y62750D01*
Y60875D01*
X859313Y60250D01*
X861187Y63375D01*
X864313Y59937D02*
X864625Y60250D01*
X864313Y60563D01*
X864000Y60250D01*
X864313Y59937D01*
X870563D02*
Y63687D01*
X869000Y61187D01*
X871500D01*
X874000Y59937D02*
X876500Y63687D01*
X874000D01*
X879000Y62437D02*
Y60875D01*
X879313Y60250D01*
X879937Y59937D01*
X880563D01*
X881187Y60250D01*
X881500Y60875D01*
Y62437D02*
Y59937D01*
X861500Y79937D02*
X859000D01*
X861187Y82125D01*
X861500Y82750D01*
X861187Y83375D01*
X860563Y83687D01*
X859625D01*
X859000Y83375D01*
X866500Y79937D02*
X864000D01*
X866187Y82125D01*
X866500Y82750D01*
X866187Y83375D01*
X865563Y83687D01*
X864625D01*
X864000Y83375D01*
X869000Y79937D02*
Y82437D01*
Y81500D02*
X869313Y82125D01*
X869937Y82437D01*
X870563D01*
X871187Y82125D01*
X871500Y81500D01*
Y79937D01*
X859250Y265250D02*
G75*
G03*
X870250Y254250I11000J0D01*
G01*
G75*
G03*
X881250Y265250I0J11000D01*
G01*
G75*
G03*
X876950Y275550I-14583J-41D01*
G01*
X863550D01*
G75*
G03*
X859250Y265250I10283J-10341D01*
G01*
X860250Y107750D02*
Y142750D01*
X862750D01*
X865250Y140250D01*
X867750Y142750D01*
X870250D01*
Y107750D01*
X860250D01*
X865250Y150250D02*
X870250D01*
Y145250D02*
Y155250D01*
X890250D01*
Y145250D01*
X870250D01*
Y215250D02*
Y220250D01*
X869313Y220875D02*
Y222125D01*
Y221500D02*
X865563D01*
X866187Y220875D01*
X869000Y225563D02*
X869313Y226187D01*
Y226813D01*
X869000Y227437D01*
X868375Y227750D01*
X866500D01*
X865875Y227437D01*
X865563Y226813D01*
Y226187D01*
X865875Y225563D01*
X866500Y225250D01*
X868375D01*
X869000Y225563D01*
X865875Y227437D01*
X869313Y230250D02*
X865563D01*
X867437D02*
Y231187D01*
X865563Y233375D01*
X867437Y231187D02*
X869313Y233375D01*
X870250Y240250D02*
Y245250D01*
Y1080250D02*
X875250D01*
Y220250D02*
X865250D01*
Y240250D01*
X875250D01*
Y220250D01*
Y1090250D02*
X880250D01*
X877125Y151187D02*
X878375D01*
X877750D02*
Y154937D01*
X877125Y154313D01*
X881500Y151187D02*
Y154937D01*
Y153063D02*
X882437D01*
X884625Y154937D01*
X882437Y153063D02*
X884625Y151187D01*
X879250Y1115250D02*
G75*
G03*
X890250Y1104250I11000J0D01*
G01*
G75*
G03*
X901250Y1115250I0J11000D01*
G01*
G75*
G03*
X896950Y1125550I-14583J-41D01*
G01*
X883550D01*
G75*
G03*
X879250Y1115250I10283J-10341D01*
G01*
X880250Y1085250D02*
Y1095250D01*
X900250D01*
Y1085250D01*
X880250D01*
X880875Y1091187D02*
X882125D01*
X881500D02*
Y1094937D01*
X880875Y1094313D01*
X885563Y1091500D02*
X886187Y1091187D01*
X886813D01*
X887437Y1091500D01*
X887750Y1092125D01*
Y1094000D01*
X887437Y1094625D01*
X886813Y1094937D01*
X886187D01*
X885563Y1094625D01*
X885250Y1094000D01*
Y1092125D01*
X885563Y1091500D01*
X887437Y1094625D01*
X890250Y1091187D02*
Y1094937D01*
Y1093063D02*
X891187D01*
X893375Y1094937D01*
X891187Y1093063D02*
X893375Y1091187D01*
X889250Y265250D02*
G75*
G03*
X900250Y254250I11000J0D01*
G01*
G75*
G03*
X911250Y265250I0J11000D01*
G01*
G75*
G03*
X906950Y275550I-14583J-41D01*
G01*
X893550D01*
G75*
G03*
X889250Y265250I10283J-10341D01*
G01*
X890250Y30250D02*
Y50250D01*
X870250D01*
Y30250D01*
X890250D01*
Y150250D02*
X895250D01*
Y120250D02*
X905250D01*
Y100250D01*
X895250D01*
Y120250D01*
X900250Y100250D02*
Y95250D01*
X901187Y109625D02*
Y108375D01*
Y109000D02*
X904937D01*
X904313Y109625D01*
X901187Y105250D02*
X904937D01*
X903063D02*
Y104313D01*
X904937Y102125D01*
X903063Y104313D02*
X901187Y102125D01*
X900250Y125250D02*
Y120250D01*
Y215250D02*
Y220250D01*
X899313Y220875D02*
Y222125D01*
Y221500D02*
X895563D01*
X896187Y220875D01*
X899000Y225563D02*
X899313Y226187D01*
Y226813D01*
X899000Y227437D01*
X898375Y227750D01*
X896500D01*
X895875Y227437D01*
X895563Y226813D01*
Y226187D01*
X895875Y225563D01*
X896500Y225250D01*
X898375D01*
X899000Y225563D01*
X895875Y227437D01*
X899313Y230250D02*
X895563D01*
X897437D02*
Y231187D01*
X895563Y233375D01*
X897437Y231187D02*
X899313Y233375D01*
X900250Y240250D02*
Y245250D01*
Y1090250D02*
X905250D01*
Y220250D02*
X895250D01*
Y240250D01*
X905250D01*
Y220250D01*
Y314000D02*
X865250D01*
Y326500D01*
X905250D01*
Y314000D01*
Y964000D02*
X865250D01*
Y976500D01*
X905250D01*
Y964000D01*
Y1080250D02*
X910250D01*
X909250Y1115250D02*
G75*
G03*
X920250Y1104250I11000J0D01*
G01*
G75*
G03*
X931250Y1115250I0J11000D01*
G01*
G75*
G03*
X926950Y1125550I-14583J-41D01*
G01*
X913550D01*
G75*
G03*
X909250Y1115250I10283J-10341D01*
G01*
X910250Y1075250D02*
Y1085250D01*
X930250D01*
Y1075250D01*
X910250D01*
X910875Y1081187D02*
X912125D01*
X911500D02*
Y1084937D01*
X910875Y1084313D01*
X915563Y1081500D02*
X916187Y1081187D01*
X916813D01*
X917437Y1081500D01*
X917750Y1082125D01*
Y1084000D01*
X917437Y1084625D01*
X916813Y1084937D01*
X916187D01*
X915563Y1084625D01*
X915250Y1084000D01*
Y1082125D01*
X915563Y1081500D01*
X917437Y1084625D01*
X920250Y1081187D02*
Y1084937D01*
Y1083063D02*
X921187D01*
X923375Y1084937D01*
X921187Y1083063D02*
X923375Y1081187D01*
X919250Y265250D02*
G75*
G03*
X930250Y254250I11000J0D01*
G01*
G75*
G03*
X941250Y265250I0J11000D01*
G01*
G75*
G03*
X936950Y275550I-14583J-41D01*
G01*
X923550D01*
G75*
G03*
X919250Y265250I10283J-10341D01*
G01*
X930250Y215250D02*
Y220250D01*
X929313Y220875D02*
Y222125D01*
Y221500D02*
X925563D01*
X926187Y220875D01*
X929000Y225563D02*
X929313Y226187D01*
Y226813D01*
X929000Y227437D01*
X928375Y227750D01*
X926500D01*
X925875Y227437D01*
X925563Y226813D01*
Y226187D01*
X925875Y225563D01*
X926500Y225250D01*
X928375D01*
X929000Y225563D01*
X925875Y227437D01*
X929313Y230250D02*
X925563D01*
X927437D02*
Y231187D01*
X925563Y233375D01*
X927437Y231187D02*
X929313Y233375D01*
X930250Y240250D02*
Y245250D01*
Y1080250D02*
X935250D01*
Y220250D02*
X925250D01*
Y240250D01*
X935250D01*
Y220250D01*
X945250Y314000D02*
X905250D01*
Y326500D01*
X945250D01*
Y314000D01*
Y964000D02*
X905250D01*
Y976500D01*
X945250D01*
Y964000D01*
D02*
D90*
X810250Y31431D02*
X810841Y31136D01*
X811726D01*
X812317Y31431D01*
X812612Y32022D01*
Y32317D01*
X812317Y32907D01*
X811726Y33203D01*
X810250D01*
Y34679D01*
X812612D01*
X815270Y31431D02*
X815860Y31136D01*
X816451D01*
X817041Y31431D01*
X817337Y32022D01*
Y33793D01*
X817041Y34384D01*
X816451Y34679D01*
X815860D01*
X815270Y34384D01*
X814974Y33793D01*
Y32022D01*
X815270Y31431D01*
X817041Y34384D01*
X819994Y31431D02*
X820585Y31136D01*
X821175D01*
X821766Y31431D01*
X822061Y32022D01*
Y33793D01*
X821766Y34384D01*
X821175Y34679D01*
X820585D01*
X819994Y34384D01*
X819699Y33793D01*
Y32022D01*
X819994Y31431D01*
X821766Y34384D01*
X824423Y31136D02*
Y34679D01*
Y32317D02*
X825309D01*
X826785Y33498D01*
X825309Y32317D02*
X826785Y31136D01*
X811726Y91136D02*
Y94679D01*
X810250Y92317D01*
X812612D01*
X814974Y91136D02*
X817337Y94679D01*
X814974D01*
X819699Y93498D02*
Y92022D01*
X819994Y91431D01*
X820585Y91136D01*
X821175D01*
X821766Y91431D01*
X822061Y92022D01*
Y93498D02*
Y91136D01*
X824423D02*
Y94679D01*
X827376D01*
X826785Y92907D02*
X824423D01*
D02*
D91*
X557970Y968750D02*
X618376D01*
X563376Y821750D02*
X618376D01*
D02*
D92*
X167750Y275250D02*
X182750D01*
G75*
G03*
Y285250I0J5000D01*
G01*
X167750D01*
G75*
G03*
Y275250I0J-5000D01*
G01*
Y545250D02*
X182750D01*
G75*
G03*
Y555250I0J5000D01*
G01*
X167750D01*
G75*
G03*
Y545250I0J-5000D01*
G01*
Y705250D02*
X182750D01*
G75*
G03*
Y715250I0J5000D01*
G01*
X167750D01*
G75*
G03*
Y705250I0J-5000D01*
G01*
X377750Y115250D02*
X392750D01*
G75*
G03*
Y125250I0J5000D01*
G01*
X377750D01*
G75*
G03*
Y115250I0J-5000D01*
G01*
Y285250D02*
X392750D01*
G75*
G03*
Y295250I0J5000D01*
G01*
X377750D01*
G75*
G03*
Y285250I0J-5000D01*
G01*
Y545250D02*
X392750D01*
G75*
G03*
Y555250I0J5000D01*
G01*
X377750D01*
G75*
G03*
Y545250I0J-5000D01*
G01*
Y705250D02*
X392750D01*
G75*
G03*
Y715250I0J5000D01*
G01*
X377750D01*
G75*
G03*
Y705250I0J-5000D01*
G01*
Y875250D02*
X392750D01*
G75*
G03*
Y885250I0J5000D01*
G01*
X377750D01*
G75*
G03*
Y875250I0J-5000D01*
G01*
X385250Y1037750D02*
Y1052750D01*
G75*
G03*
X375250I-5000J0D01*
G01*
Y1037750D01*
G75*
G03*
X385250I5000J0D01*
G01*
X405250D02*
Y1052750D01*
G75*
G03*
X395250I-5000J0D01*
G01*
Y1037750D01*
G75*
G03*
X405250I5000J0D01*
G01*
X562750Y315250D02*
X547750D01*
G75*
G03*
Y305250I0J-5000D01*
G01*
X562750D01*
G75*
G03*
Y315250I0J5000D01*
G01*
X587750Y115250D02*
X602750D01*
G75*
G03*
Y125250I0J5000D01*
G01*
X587750D01*
G75*
G03*
Y115250I0J-5000D01*
G01*
Y285250D02*
X602750D01*
G75*
G03*
Y295250I0J5000D01*
G01*
X587750D01*
G75*
G03*
Y285250I0J-5000D01*
G01*
Y535250D02*
X602750D01*
G75*
G03*
Y545250I0J5000D01*
G01*
X587750D01*
G75*
G03*
Y535250I0J-5000D01*
G01*
Y785250D02*
X602750D01*
G75*
G03*
Y795250I0J5000D01*
G01*
X587750D01*
G75*
G03*
Y785250I0J-5000D01*
G01*
X767750Y85250D02*
X782750D01*
G75*
G03*
Y95250I0J5000D01*
G01*
X767750D01*
G75*
G03*
Y85250I0J-5000D01*
G01*
X787750Y155250D02*
X802750D01*
G75*
G03*
Y165250I0J5000D01*
G01*
X787750D01*
G75*
G03*
Y155250I0J-5000D01*
G01*
X857750Y65250D02*
X872750D01*
G75*
G03*
Y75250I0J5000D01*
G01*
X857750D01*
G75*
G03*
Y65250I0J-5000D01*
G01*
Y85250D02*
X872750D01*
G75*
G03*
Y95250I0J5000D01*
G01*
X857750D01*
G75*
G03*
Y85250I0J-5000D01*
G01*
Y155250D02*
X872750D01*
G75*
G03*
Y165250I0J5000D01*
G01*
X857750D01*
G75*
G03*
Y155250I0J-5000D01*
G01*
X0Y0D02*
M02*
