G04 DesignSpark PCB Gerber Version 10.0 Build 5299*
%FSLAX35Y35*%
%MOIN*%
%ADD78O,0.06000X0.11000*%
%ADD84R,0.06000X0.08000*%
%ADD79R,0.04563X0.04563*%
%ADD11C,0.03937*%
%ADD80C,0.04563*%
%ADD76C,0.04800*%
%ADD77C,0.05600*%
%ADD81O,0.11000X0.06000*%
%ADD83R,0.08000X0.06000*%
%ADD71C,0.06000*%
%ADD18C,0.06890*%
%ADD82C,0.07000*%
%ADD20C,0.08661*%
X0Y0D02*
D02*
D11*
X20250Y500250D02*
X100250D01*
X20250Y520250D02*
X90250D01*
X20250Y860250D02*
G75*
G02*
X30250Y850250I0J-10000D01*
G01*
X20250Y860250D02*
X30250D01*
Y850250D02*
Y760250D01*
G75*
G03*
X110250Y680250I80000J0D01*
G01*
X190250D01*
G75*
G03*
X220250Y710250I0J30000D01*
G01*
Y730250D01*
G75*
G03*
X190250Y760250I-30000J0D01*
G01*
X30250Y860250D02*
G75*
G02*
X70250Y900250I40000J0D01*
G01*
X30250Y860250D02*
Y850250D01*
X40250D02*
G75*
G02*
X80250Y890250I40000J0D01*
G01*
X100250D01*
X50250Y560250D02*
G75*
G03*
X60250Y550250I10000J0D01*
G01*
X170250D01*
X50250Y560250D02*
Y590250D01*
Y620250D01*
Y650250D01*
Y840250D02*
G75*
G02*
X90250Y880250I40000J0D01*
G01*
X140250D01*
G75*
G03*
X150250Y890250I0J10000D01*
G01*
G75*
G03*
X140250Y900250I-10000J0D01*
G01*
X130250D01*
X60250Y30250D02*
G75*
G03*
X70250Y20250I10000J0D01*
G01*
X110250D01*
G75*
G03*
X120250Y30250I0J10000D01*
G01*
X60250Y470250D02*
X70250D01*
G75*
G03*
X80250Y480250I0J10000D01*
G01*
Y490250D01*
X60250Y830250D02*
G75*
G02*
X100250Y870250I40000J0D01*
G01*
X140250D01*
G75*
G03*
X160250Y890250I0J20000D01*
G01*
X70250Y140250D02*
X110250D01*
G75*
G03*
X120250Y150250I0J10000D01*
G01*
Y180250D01*
X70250Y140250D02*
X20250D01*
X70250Y340250D02*
X160250D01*
X70250Y510250D02*
X20250D01*
X70250Y530250D02*
X20250D01*
X70250Y820250D02*
G75*
G02*
X110250Y860250I40000J0D01*
G01*
X200250D01*
G75*
G03*
X210250Y870250I0J10000D01*
G01*
Y890250D01*
G75*
G03*
X200250Y900250I-10000J0D01*
G01*
X190250D01*
X80250Y360250D02*
X160250D01*
X80250Y450250D02*
Y400250D01*
G75*
G03*
X90250Y390250I10000J0D01*
G01*
X210250D01*
X80250Y540250D02*
G75*
G03*
X90250Y530250I10000J0D01*
G01*
X80250Y540250D02*
G75*
G02*
X70250Y530250I-10000J0D01*
G01*
X80250Y580250D02*
Y570250D01*
G75*
G02*
X70250Y560250I-10000J0D01*
G01*
X60250D01*
X80250Y640250D02*
Y630250D01*
G75*
G02*
X70250Y620250I-10000J0D01*
G01*
X60250D01*
X80250Y810250D02*
Y820250D01*
G75*
G02*
X110250Y850250I30000J0D01*
G01*
X200250D01*
G75*
G03*
X220250Y870250I0J20000D01*
G01*
Y890250D01*
X90250Y330250D02*
X160250D01*
X90250Y520250D02*
X600250D01*
G75*
G03*
X620250Y540250I0J20000D01*
G01*
Y560250D01*
G75*
G03*
X610250Y570250I-10000J0D01*
G01*
X90250Y530250D02*
X70250D01*
X90250Y610250D02*
Y600250D01*
G75*
G02*
X80250Y590250I-10000J0D01*
G01*
X60250D01*
X90250Y670250D02*
Y660250D01*
G75*
G02*
X80250Y650250I-10000J0D01*
G01*
X60250D01*
X90250Y800250D02*
Y820250D01*
G75*
G02*
X110250Y840250I20000J0D01*
G01*
X260250D01*
G75*
G03*
X270250Y850250I0J10000D01*
G01*
Y890250D01*
G75*
G03*
X260250Y900250I-10000J0D01*
G01*
X250250D01*
X100250Y370250D02*
X160250D01*
X100250Y500250D02*
X600250D01*
G75*
G03*
X640250Y540250I0J40000D01*
G01*
Y560250D01*
G75*
G03*
X610250Y590250I-30000J0D01*
G01*
X100250Y790250D02*
Y820250D01*
G75*
G02*
X110250Y830250I10000J0D01*
G01*
X260250D01*
G75*
G03*
X280250Y850250I0J20000D01*
G01*
Y890250D01*
X110250Y130250D02*
X20250D01*
X110250Y350250D02*
X160250D01*
X110250Y400250D02*
X760250D01*
X110250Y900250D02*
X100250D01*
G75*
G02*
X90250Y910250I0J10000D01*
G01*
Y920250D01*
X120250Y30250D02*
G75*
G03*
X130250Y20250I10000J0D01*
G01*
X170250D01*
G75*
G03*
X180250Y30250I0J10000D01*
G01*
X120250Y220250D02*
X130250D01*
X120250Y410250D02*
X640250D01*
X130250Y120250D02*
X20250D01*
X130250Y130250D02*
X110250D01*
X130250Y180250D02*
Y150250D01*
G75*
G02*
X110250Y130250I-20000J0D01*
G01*
X130250Y220250D02*
X140250D01*
X130250Y420250D02*
X240250D01*
X140250Y130250D02*
G75*
G03*
X150250Y120250I10000J0D01*
G01*
X140250Y130250D02*
G75*
G02*
X130250Y120250I-10000J0D01*
G01*
X140250Y180250D02*
Y130250D01*
Y220250D02*
X150250D01*
X140250Y430250D02*
X250250D01*
X140250Y890250D02*
X130250D01*
G75*
G02*
X120250Y900250I0J10000D01*
G01*
Y920250D01*
X150250Y120250D02*
X130250D01*
X150250Y180250D02*
Y170250D01*
G75*
G03*
X190250Y130250I40000J0D01*
G01*
G75*
G02*
X200250Y120250I0J-10000D01*
G01*
G75*
G02*
X190250Y110250I-10000J0D01*
G01*
X150250Y220250D02*
X160250D01*
X150250Y440250D02*
X260250D01*
X160250Y180250D02*
Y170250D01*
G75*
G03*
X190250Y140250I30000J0D01*
G01*
X250250D01*
G75*
G02*
X260250Y130250I0J-10000D01*
G01*
X160250Y220250D02*
X170250D01*
X160250Y320250D02*
G75*
G03*
X150250Y310250I0J-10000D01*
G01*
Y300250D01*
G75*
G03*
X160250Y290250I10000J0D01*
G01*
X260250D01*
G75*
G03*
X270250Y300250I0J10000D01*
G01*
Y310250D01*
G75*
G02*
X280250Y320250I10000J0D01*
G01*
X370250D01*
X160250Y610250D02*
G75*
G02*
X150250Y620250I0J10000D01*
G01*
Y660250D01*
G75*
G02*
X160250Y670250I10000J0D01*
G01*
X190250D01*
G75*
G03*
X230250Y710250I0J40000D01*
G01*
Y780250D01*
X160250Y620250D02*
G75*
G02*
X170250Y610250I0J-10000D01*
G01*
Y570250D01*
G75*
G03*
X180250Y560250I10000J0D01*
G01*
X190250D01*
X160250Y740250D02*
X110250D01*
G75*
G02*
X70250Y780250I0J40000D01*
G01*
Y820250D01*
X160250Y750250D02*
X110250D01*
G75*
G02*
X80250Y780250I0J30000D01*
G01*
Y810250D01*
X160250Y760250D02*
X110250D01*
G75*
G02*
X90250Y780250I0J20000D01*
G01*
Y800250D01*
X160250Y770250D02*
X110250D01*
G75*
G02*
X100250Y780250I0J10000D01*
G01*
Y790250D01*
X170250Y220250D02*
X180250D01*
X170250Y280250D02*
G75*
G03*
X180250Y270250I10000J0D01*
G01*
X340250D01*
X170250Y380250D02*
X70250D01*
G75*
G02*
X50250Y400250I0J20000D01*
G01*
Y470250D01*
X170250Y550250D02*
G75*
G03*
X180250Y540250I10000J0D01*
G01*
X300250D01*
G75*
G03*
X320250Y560250I0J20000D01*
G01*
Y610250D01*
G75*
G02*
X330250Y620250I10000J0D01*
G01*
G75*
G02*
X340250Y610250I0J-10000D01*
G01*
Y560250D01*
G75*
G03*
X350250Y550250I10000J0D01*
G01*
X380250D01*
X170250Y900250D02*
X160250D01*
G75*
G02*
X150250Y910250I0J10000D01*
G01*
Y920250D01*
X180250Y30250D02*
G75*
G03*
X190250Y20250I10000J0D01*
G01*
X230250D01*
G75*
G03*
X240250Y30250I0J10000D01*
G01*
X180250Y220250D02*
G75*
G02*
X190250Y210250I0J-10000D01*
G01*
Y180250D01*
G75*
G03*
X200250Y170250I10000J0D01*
G01*
X280250D01*
G75*
G02*
X290250Y160250I0J-10000D01*
G01*
Y150250D01*
G75*
G03*
X300250Y140250I10000J0D01*
G01*
X370250D01*
X180250Y280250D02*
X380250D01*
G75*
G03*
X390250Y290250I0J10000D01*
G01*
X190250Y110250D02*
X20250D01*
X190250Y120250D02*
X150250D01*
X190250Y300250D02*
X260250D01*
X190250Y310250D02*
X250250D01*
X190250Y320250D02*
X240250D01*
X190250Y450250D02*
X370250D01*
X190250Y590250D02*
G75*
G02*
X180250Y600250I0J10000D01*
G01*
Y610250D01*
G75*
G03*
X160250Y630250I-20000J0D01*
G01*
X190250Y730250D02*
G75*
G02*
X180250Y720250I-10000J0D01*
G01*
X110250D01*
G75*
G02*
X60250Y770250I0J50000D01*
G01*
Y830250D01*
X190250Y740250D02*
G75*
G02*
X200250Y730250I0J-10000D01*
G01*
Y710250D01*
G75*
G02*
X190250Y700250I-10000J0D01*
G01*
X110250D01*
G75*
G02*
X50250Y760250I0J60000D01*
G01*
Y840250D01*
X190250Y750250D02*
G75*
G02*
X210250Y730250I0J-20000D01*
G01*
Y710250D01*
G75*
G02*
X190250Y690250I-20000J0D01*
G01*
X110250D01*
G75*
G02*
X40250Y760250I0J70000D01*
G01*
Y850250D01*
X190250Y770250D02*
G75*
G03*
X210250Y790250I0J20000D01*
G01*
Y800250D01*
G75*
G03*
X190250Y820250I-20000J0D01*
G01*
X160250D01*
X190250Y790250D02*
G75*
G03*
X200250Y800250I0J10000D01*
G01*
G75*
G03*
X190250Y810250I-10000J0D01*
G01*
X160250D01*
X200250Y460250D02*
X360250D01*
X200250Y890250D02*
X190250D01*
G75*
G02*
X180250Y900250I0J10000D01*
G01*
Y920250D01*
X210250Y390250D02*
X690250D01*
X210250Y470250D02*
X750250D01*
X220250Y360250D02*
X190250D01*
X220250Y570250D02*
X190250D01*
X230250Y350250D02*
X190250D01*
X230250Y900250D02*
X220250D01*
G75*
G02*
X210250Y910250I0J10000D01*
G01*
Y920250D01*
X240250Y30250D02*
G75*
G03*
X250250Y20250I10000J0D01*
G01*
X290250D01*
G75*
G03*
X300250Y30250I0J10000D01*
G01*
X240250Y420250D02*
X850250D01*
X250250Y100250D02*
X20250D01*
X250250D02*
G75*
G03*
X260250Y110250I0J10000D01*
G01*
Y130250D01*
X250250Y110250D02*
X190250D01*
X250250Y430250D02*
X840250D01*
X250250Y580250D02*
G75*
G03*
X260250Y590250I0J10000D01*
G01*
Y630250D01*
G75*
G03*
X250250Y640250I-10000J0D01*
G01*
X170250D01*
X260250Y440250D02*
X830250D01*
X260250Y890250D02*
X250250D01*
G75*
G02*
X240250Y900250I0J10000D01*
G01*
Y920250D01*
X265250Y1015250D02*
Y985250D01*
G75*
G02*
X260250Y980250I-5000J0D01*
G01*
X265250Y1065250D02*
Y1055250D01*
G75*
G03*
X280250Y1040250I15000J0D01*
G01*
X310250D01*
X290250Y900250D02*
X280250D01*
G75*
G02*
X270250Y910250I0J10000D01*
G01*
Y920250D01*
X300250Y30250D02*
G75*
G03*
X310250Y20250I10000J0D01*
G01*
X350250D01*
G75*
G03*
X360250Y30250I0J10000D01*
G01*
X310250Y90250D02*
X20250D01*
X310250D02*
G75*
G03*
X320250Y100250I0J10000D01*
G01*
G75*
G03*
X310250Y110250I-10000J0D01*
G01*
X290250D01*
G75*
G02*
X270250Y130250I0J20000D01*
G01*
G75*
G03*
X250250Y150250I-20000J0D01*
G01*
X190250D01*
G75*
G02*
X170250Y170250I0J20000D01*
G01*
Y180250D01*
X310250Y100250D02*
X250250D01*
X310250Y1040250D02*
X330250D01*
X320250Y890250D02*
X310250D01*
G75*
G02*
X300250Y900250I0J10000D01*
G01*
Y920250D01*
X320250Y1090250D02*
G75*
G03*
X310250Y1080250I0J-10000D01*
G01*
Y1060250D01*
X320250Y1090250D02*
X250250D01*
G75*
G03*
X240250Y1080250I0J-10000D01*
G01*
Y980250D01*
G75*
G03*
X250250Y970250I10000J0D01*
G01*
X260250D01*
X330250Y480250D02*
X740250D01*
X330250Y610250D02*
Y560250D01*
G75*
G03*
X350250Y540250I20000J0D01*
G01*
X380250D01*
G75*
G03*
X390250Y550250I0J10000D01*
G01*
X330250Y1040250D02*
X350250D01*
X330250Y1090250D02*
X320250D01*
X340250Y1050250D02*
G75*
G03*
X350250Y1040250I10000J0D01*
G01*
X340250Y1050250D02*
G75*
G02*
X330250Y1040250I-10000J0D01*
G01*
X340250Y1090250D02*
Y1050250D01*
X350250Y770250D02*
G75*
G02*
X370250Y790250I20000J0D01*
G01*
X350250Y810250D02*
Y770250D01*
Y1040250D02*
X380250D01*
X360250Y30250D02*
G75*
G03*
X370250Y20250I10000J0D01*
G01*
X410250D01*
G75*
G03*
X420250Y30250I0J10000D01*
G01*
X360250Y80250D02*
X370250D01*
G75*
G03*
X380250Y90250I0J10000D01*
G01*
G75*
G03*
X370250Y100250I-10000J0D01*
G01*
X340250D01*
G75*
G02*
X330250Y110250I0J10000D01*
G01*
G75*
G03*
X320250Y120250I-10000J0D01*
G01*
X290250D01*
G75*
G02*
X280250Y130250I0J10000D01*
G01*
G75*
G03*
X250250Y160250I-30000J0D01*
G01*
X190250D01*
G75*
G02*
X180250Y170250I0J10000D01*
G01*
Y180250D01*
X360250Y80250D02*
X20250D01*
X360250Y460250D02*
X820250D01*
X360250Y590250D02*
Y570250D01*
G75*
G03*
X370250Y560250I10000J0D01*
G01*
X400250D01*
G75*
G03*
X410250Y570250I0J10000D01*
G01*
Y600250D01*
G75*
G03*
X400250Y610250I-10000J0D01*
G01*
X370250Y90250D02*
X310250D01*
X370250Y160250D02*
G75*
G02*
X320250Y210250I0J50000D01*
G01*
G75*
G02*
X380250Y270250I60000J0D01*
G01*
X400250D01*
G75*
G03*
X410250Y280250I0J10000D01*
G01*
Y300250D01*
G75*
G03*
X400250Y310250I-10000J0D01*
G01*
X370250Y170250D02*
G75*
G02*
X330250Y210250I0J40000D01*
G01*
G75*
G02*
X380250Y260250I50000J0D01*
G01*
X670250D01*
X370250Y190250D02*
G75*
G02*
X350250Y210250I0J20000D01*
G01*
G75*
G02*
X380250Y240250I30000J0D01*
G01*
X640250D01*
X370250Y210250D02*
G75*
G02*
X380250Y220250I10000J0D01*
G01*
X680250D01*
X370250Y340250D02*
G75*
G02*
X380250Y330250I0J-10000D01*
G01*
G75*
G03*
X390250Y320250I10000J0D01*
G01*
X400250D01*
X370250Y360250D02*
X400250D01*
X370250Y450250D02*
X730250D01*
X370250Y580250D02*
X390250D01*
X370250Y600250D02*
G75*
G03*
X360250Y590250I0J-10000D01*
G01*
X370250Y610250D02*
G75*
G03*
Y600250I0J-5000D01*
G01*
Y610250D02*
G75*
G03*
X360250Y600250I0J-10000D01*
G01*
Y590250D01*
X370250Y740250D02*
X380250D01*
G75*
G02*
X390250Y730250I0J-10000D01*
G01*
X370250Y790250D02*
G75*
G02*
X350250Y810250I0J20000D01*
G01*
X370250Y910250D02*
X380250D01*
G75*
G02*
X390250Y900250I0J-10000D01*
G01*
Y890250D01*
X370250Y960250D02*
G75*
G03*
X350250Y940250I0J-20000D01*
G01*
Y810250D01*
X370250Y1090250D02*
X350250D01*
X380250Y290250D02*
G75*
G02*
X390250Y300250I10000J0D01*
G01*
X400250D01*
X380250Y1040250D02*
X400250D01*
X380250Y1050250D02*
Y1080250D01*
G75*
G03*
X370250Y1090250I-10000J0D01*
G01*
X390250Y120250D02*
Y110250D01*
G75*
G03*
X410250Y90250I20000J0D01*
G01*
X430250D01*
X470250D01*
G75*
G02*
X480250Y80250I0J-10000D01*
G01*
Y30250D01*
G75*
G02*
X470250Y20250I-10000J0D01*
G01*
X430250D01*
G75*
G02*
X420250Y30250I0J10000D01*
G01*
X390250Y580250D02*
X400250D01*
X390250Y720250D02*
Y710250D01*
Y730250D02*
Y720250D01*
Y890250D02*
Y880250D01*
X400250Y140250D02*
G75*
G03*
X410250Y130250I10000J0D01*
G01*
X570250D01*
X400250Y150250D02*
X420250D01*
X430250Y140250D01*
X560250D01*
X400250Y170250D02*
X520250D01*
G75*
G02*
X530250Y160250I0J-10000D01*
G01*
X400250Y180250D02*
X520250D01*
X400250Y190250D02*
X550250D01*
X400250Y200250D02*
X540250D01*
X400250Y350250D02*
G75*
G03*
X410250Y360250I0J10000D01*
G01*
Y370250D01*
G75*
G03*
X400250Y380250I-10000J0D01*
G01*
X220250D01*
X400250Y350250D02*
G75*
G03*
X390250Y340250I0J-10000D01*
G01*
G75*
G03*
X400250Y330250I10000J0D01*
G01*
Y590250D02*
G75*
G02*
X390250Y580250I-10000J0D01*
G01*
X400250Y600250D02*
G75*
G02*
X390250Y610250I0J10000D01*
G01*
G75*
G03*
X380250Y620250I-10000J0D01*
G01*
X370250D01*
X400250Y730250D02*
G75*
G03*
X390250Y720250I0J-10000D01*
G01*
X400250Y740250D02*
G75*
G03*
X390250Y730250I0J-10000D01*
G01*
X400250Y790250D02*
G75*
G03*
X410250Y800250I0J10000D01*
G01*
Y900250D01*
G75*
G03*
X400250Y910250I-10000J0D01*
G01*
Y900250D02*
G75*
G03*
X390250Y890250I0J-10000D01*
G01*
X400250Y970250D02*
X600250D01*
X400250Y1050250D02*
Y1080250D01*
G75*
G03*
X390250Y1090250I-10000J0D01*
G01*
X370250D01*
X420250Y570250D02*
Y630250D01*
G75*
G03*
X410250Y640250I-10000J0D01*
G01*
X370250D01*
G75*
G02*
X350250Y660250I0J20000D01*
G01*
Y770250D01*
X420250Y870250D02*
Y800250D01*
G75*
G02*
X400250Y780250I-20000J0D01*
G01*
X430250Y80250D02*
X360250D01*
X430250Y280250D02*
X590250D01*
G75*
G03*
X600250Y290250I0J10000D01*
G01*
X430250Y880250D02*
Y800250D01*
G75*
G02*
X400250Y770250I-30000J0D01*
G01*
X430250Y930250D02*
X400250D01*
X440250Y890250D02*
Y800250D01*
G75*
G02*
X400250Y760250I-40000J0D01*
G01*
X440250Y920250D02*
Y930250D01*
G75*
G03*
X430250Y940250I-10000J0D01*
G01*
X400250D01*
X450250Y900250D02*
Y800250D01*
G75*
G02*
X400250Y750250I-50000J0D01*
G01*
X450250Y910250D02*
Y930250D01*
G75*
G03*
X430250Y950250I-20000J0D01*
G01*
X400250D01*
X460250Y1090250D02*
X450250D01*
G75*
G02*
X440250Y1100250I0J10000D01*
G01*
Y1110250D01*
X480250Y570250D02*
G75*
G03*
X470250Y580250I-10000J0D01*
G01*
X440250D01*
G75*
G02*
X430250Y590250I0J10000D01*
G01*
Y630250D01*
G75*
G03*
X410250Y650250I-20000J0D01*
G01*
X370250D01*
G75*
G02*
X360250Y660250I0J10000D01*
G01*
Y700250D01*
G75*
G02*
X370250Y710250I10000J0D01*
G01*
X380250D01*
X480250Y570250D02*
Y550250D01*
G75*
G03*
X490250Y540250I10000J0D01*
G01*
X590250D01*
X490250Y1080250D02*
X480250D01*
G75*
G02*
X470250Y1090250I0J10000D01*
G01*
Y1110250D01*
X520250Y60250D02*
X650250D01*
G75*
G03*
X750250Y160250I0J100000D01*
G01*
G75*
G02*
X760250Y170250I10000J0D01*
G01*
X890250D01*
G75*
G03*
X930250Y210250I0J40000D01*
G01*
X520250Y180250D02*
X580250D01*
X520250Y1090250D02*
X510250D01*
G75*
G02*
X500250Y1100250I0J10000D01*
G01*
Y1110250D01*
X530250Y530250D02*
X90250D01*
X540250Y80250D02*
X650250D01*
G75*
G03*
X730250Y160250I0J80000D01*
G01*
G75*
G02*
X760250Y190250I30000J0D01*
G01*
X850250D01*
G75*
G03*
X870250Y210250I0J20000D01*
G01*
X540250Y160250D02*
X580250D01*
X550250Y70250D02*
X650250D01*
G75*
G03*
X740250Y160250I0J90000D01*
G01*
G75*
G02*
X760250Y180250I20000J0D01*
G01*
X870250D01*
G75*
G03*
X900250Y210250I0J30000D01*
G01*
X550250Y170250D02*
X580250D01*
X550250Y310250D02*
G75*
G03*
X560250Y300250I10000J0D01*
G01*
X590250D01*
X600250Y310250D01*
X610250D01*
X550250Y1080250D02*
X540250D01*
G75*
G02*
X530250Y1090250I0J10000D01*
G01*
Y1110250D01*
X560250Y110250D02*
X650250D01*
G75*
G03*
X700250Y160250I0J50000D01*
G01*
Y170250D01*
X560250Y310250D02*
X580250D01*
X560250Y840250D02*
G75*
G02*
X570250Y830250I0J-10000D01*
G01*
G75*
G03*
X580250Y820250I10000J0D01*
G01*
X830250D01*
X560250Y850250D02*
G75*
G03*
X550250Y840250I0J-10000D01*
G01*
Y820250D01*
G75*
G03*
X560250Y810250I10000J0D01*
G01*
X840250D01*
X560250Y860250D02*
G75*
G03*
X540250Y840250I0J-20000D01*
G01*
Y820250D01*
G75*
G03*
X560250Y800250I20000J0D01*
G01*
X850250D01*
X560250Y870250D02*
G75*
G03*
X530250Y840250I0J-30000D01*
G01*
Y810250D01*
G75*
G03*
X560250Y780250I30000J0D01*
G01*
X940250D01*
X560250Y880250D02*
G75*
G03*
X520250Y840250I0J-40000D01*
G01*
Y810250D01*
G75*
G03*
X560250Y770250I40000J0D01*
G01*
X930250D01*
X560250Y890250D02*
G75*
G03*
X510250Y840250I0J-50000D01*
G01*
Y810250D01*
G75*
G03*
X560250Y760250I50000J0D01*
G01*
X920250D01*
X560250Y900250D02*
G75*
G03*
X500250Y840250I0J-60000D01*
G01*
Y810250D01*
G75*
G03*
X560250Y750250I60000J0D01*
G01*
X910250D01*
X560250Y910250D02*
G75*
G03*
X490250Y840250I0J-70000D01*
G01*
Y810250D01*
G75*
G03*
X560250Y740250I70000J0D01*
G01*
X900250D01*
X560250Y920250D02*
G75*
G03*
X480250Y840250I0J-80000D01*
G01*
Y810250D01*
G75*
G03*
X560250Y730250I80000J0D01*
G01*
X890250D01*
X560250Y930250D02*
G75*
G03*
X470250Y840250I0J-90000D01*
G01*
Y810250D01*
G75*
G03*
X560250Y720250I90000J0D01*
G01*
X880250D01*
X560250Y940250D02*
G75*
G03*
X460250Y840250I0J-100000D01*
G01*
Y810250D01*
G75*
G03*
X560250Y710250I100000J0D01*
G01*
X870250D01*
X580250Y150250D02*
X540250D01*
G75*
G02*
X530250Y160250I0J10000D01*
G01*
X580250Y210250D02*
X410250D01*
X580250Y340250D02*
Y330250D01*
Y360250D02*
Y350250D01*
Y490250D02*
X340250D01*
X580250Y570250D02*
G75*
G02*
X520250Y630250I0J60000D01*
G01*
G75*
G02*
X590250Y700250I70000J0D01*
G01*
X810250D01*
X580250Y580250D02*
G75*
G02*
X530250Y630250I0J50000D01*
G01*
G75*
G02*
X590250Y690250I60000J0D01*
G01*
X800250D01*
X580250Y590250D02*
G75*
G02*
X540250Y630250I0J40000D01*
G01*
G75*
G02*
X590250Y680250I50000J0D01*
G01*
X790250D01*
X580250Y600250D02*
G75*
G02*
X550250Y630250I0J30000D01*
G01*
G75*
G02*
X590250Y670250I40000J0D01*
G01*
X780250D01*
X580250Y610250D02*
G75*
G02*
X560250Y630250I0J20000D01*
G01*
G75*
G02*
X590250Y660250I30000J0D01*
G01*
X760250D01*
X580250Y620250D02*
G75*
G02*
X570250Y630250I0J10000D01*
G01*
G75*
G02*
X590250Y650250I20000J0D01*
G01*
X730250D01*
X580250Y630250D02*
G75*
G02*
X590250Y640250I10000J0D01*
G01*
X750250D01*
X580250Y1090250D02*
X570250D01*
G75*
G02*
X560250Y1100250I0J10000D01*
G01*
Y1110250D01*
X590250Y930250D02*
G75*
G03*
X610250Y910250I20000J0D01*
G01*
Y330250D02*
Y320250D01*
Y350250D02*
Y340250D01*
Y360250D02*
X600250D01*
G75*
G03*
X590250Y350250I0J-10000D01*
G01*
Y330250D01*
G75*
G02*
X580250Y320250I-10000J0D01*
G01*
X610250Y560250D02*
Y540250D01*
G75*
G02*
X600250Y530250I-10000J0D01*
G01*
X530250D01*
X610250Y580250D02*
G75*
G02*
X630250Y560250I0J-20000D01*
G01*
Y540250D01*
G75*
G02*
X600250Y510250I-30000J0D01*
G01*
X70250D01*
X610250Y600250D02*
X660250D01*
X610250Y610250D02*
X630250D01*
X610250Y620250D02*
X690250D01*
X610250Y910250D02*
G75*
G03*
X620250Y920250I-7071J17071D01*
G01*
X610250Y1080250D02*
X600250D01*
G75*
G02*
X590250Y1090250I0J10000D01*
G01*
Y1110250D01*
X620250Y830250D02*
X820250D01*
X620250Y840250D02*
X810250D01*
X620250Y850250D02*
X800250D01*
X620250Y860250D02*
X790250D01*
X620250Y870250D02*
X780250D01*
X620250Y900250D02*
G75*
G03*
X610250Y910250I-10000J0D01*
G01*
X630250Y270250D02*
X430250D01*
G75*
G02*
X420250Y280250I0J10000D01*
G01*
Y330250D01*
G75*
G03*
X410250Y340250I-10000J0D01*
G01*
X400250D01*
X640250Y240250D02*
X670250D01*
G75*
G03*
X680250Y250250I0J10000D01*
G01*
Y270250D01*
G75*
G02*
X720250Y310250I40000J0D01*
G01*
X750250D01*
G75*
G03*
X760250Y320250I0J10000D01*
G01*
X640250Y410250D02*
X740250D01*
X640250Y1090250D02*
X630250D01*
G75*
G02*
X620250Y1100250I0J10000D01*
G01*
Y1110250D01*
X650250Y130250D02*
X570250D01*
X650250Y250250D02*
X380250D01*
G75*
G03*
X340250Y210250I0J-40000D01*
G01*
G75*
G03*
X370250Y180250I30000J0D01*
G01*
X650250Y300250D02*
X610250D01*
G75*
G03*
X600250Y290250I0J-10000D01*
G01*
X660250Y230250D02*
X380250D01*
G75*
G03*
X360250Y210250I0J-20000D01*
G01*
G75*
G03*
X370250Y200250I10000J0D01*
G01*
X660250Y600250D02*
X680250D01*
X660250D02*
G75*
G03*
X670250Y610250I0J10000D01*
G01*
G75*
G03*
X680250Y600250I10000J0D01*
G01*
X670250Y1080250D02*
X660250D01*
G75*
G02*
X650250Y1090250I0J10000D01*
G01*
Y1110250D01*
X680250Y600250D02*
X700250D01*
Y170250D02*
Y270250D01*
G75*
G02*
X720250Y290250I20000J0D01*
G01*
X820250D01*
G75*
G03*
X840250Y310250I0J20000D01*
G01*
Y320250D01*
X710250Y590250D02*
X660250D01*
G75*
G03*
X650250Y580250I0J-10000D01*
G01*
Y540250D01*
G75*
G02*
X590250Y490250I-55000J5000D01*
G01*
X580250D01*
X720250Y250250D02*
Y260250D01*
Y1080250D02*
Y1020250D01*
G75*
G03*
X730250Y1010250I10000J0D01*
G01*
X860250D01*
G75*
G02*
X880250Y990250I0J-20000D01*
G01*
Y970250D01*
X730250Y1090250D02*
X720250D01*
G75*
G02*
X710250Y1100250I0J10000D01*
G01*
Y1110250D01*
X740250Y40250D02*
G75*
G02*
X750250Y30250I0J-10000D01*
G01*
G75*
G03*
X760250Y20250I10000J0D01*
G01*
X890250D01*
X740250Y880250D02*
X730250D01*
G75*
G02*
X720250Y890250I0J10000D01*
G01*
Y970250D01*
G75*
G03*
X710250Y980250I-10000J0D01*
G01*
X380250D01*
G75*
G03*
X370250Y970250I0J-10000D01*
G01*
X750250Y250250D02*
Y260250D01*
X760250Y120250D02*
G75*
G03*
X750250Y110250I0J-10000D01*
G01*
Y90250D01*
G75*
G02*
X740250Y80250I-10000J0D01*
G01*
G75*
G03*
X730250Y70250I0J-10000D01*
G01*
Y40250D01*
G75*
G03*
X740250Y30250I10000J0D01*
G01*
X760250Y140250D02*
G75*
G02*
X770250Y130250I0J-10000D01*
G01*
X760250Y1080250D02*
X750250D01*
G75*
G02*
X740250Y1090250I0J10000D01*
G01*
Y1110250D01*
X770250Y130250D02*
Y150250D01*
G75*
G02*
X780250Y160250I10000J0D01*
G01*
X790250D01*
X770250Y130250D02*
Y90250D01*
X780250Y250250D02*
Y260250D01*
Y1080250D02*
Y1040250D01*
G75*
G03*
X790250Y1030250I10000J0D01*
G01*
X860250D01*
G75*
G02*
X900250Y990250I0J-40000D01*
G01*
Y970250D01*
X790250Y110250D02*
G75*
G03*
X780250Y100250I0J-10000D01*
G01*
Y90250D01*
X790250Y130250D02*
X800250D01*
G75*
G02*
X810250Y120250I0J-10000D01*
G01*
Y100250D01*
X790250Y1090250D02*
X780250D01*
G75*
G02*
X770250Y1100250I0J10000D01*
G01*
Y1110250D01*
X800250Y110250D02*
Y100250D01*
G75*
G03*
X810250Y90250I10000J0D01*
G01*
X820250D01*
G75*
G02*
X830250Y80250I0J-10000D01*
G01*
X800250Y110250D02*
G75*
G03*
X790250Y120250I-10000J0D01*
G01*
X800250Y110250D02*
Y120250D01*
G75*
G03*
X790250Y130250I-10000J0D01*
G01*
X810250Y80250D02*
X780250D01*
G75*
G02*
X770250Y90250I0J10000D01*
G01*
X810250Y250250D02*
Y260250D01*
X820250Y50250D02*
G75*
G02*
X830250Y60250I10000J0D01*
G01*
G75*
G03*
X840250Y70250I0J10000D01*
G01*
Y120250D01*
G75*
G02*
X850250Y130250I10000J0D01*
G01*
X820250Y70250D02*
X750250D01*
G75*
G03*
X740250Y60250I0J-10000D01*
G01*
Y50250D01*
X820250Y1080250D02*
X810250D01*
G75*
G02*
X800250Y1090250I0J10000D01*
G01*
Y1110250D01*
X830250Y50250D02*
G75*
G03*
X840250Y40250I10000J0D01*
G01*
X880250D01*
G75*
G03*
X900250Y60250I0J20000D01*
G01*
Y90250D01*
X830250Y320250D02*
Y310250D01*
G75*
G02*
X820250Y300250I-10000J0D01*
G01*
X720250D01*
G75*
G03*
X690250Y270250I0J-30000D01*
G01*
Y160250D01*
G75*
G02*
X660250Y130250I-30000J0D01*
G01*
X650250D01*
X840250Y210250D02*
G75*
G02*
X830250Y200250I-10000J0D01*
G01*
X760250D01*
G75*
G03*
X720250Y160250I0J-40000D01*
G01*
G75*
G02*
X650250Y90250I-70000J0D01*
G01*
X530250D01*
X840250Y250250D02*
Y260250D01*
Y1080250D02*
Y1060250D01*
G75*
G03*
X850250Y1050250I10000J0D01*
G01*
X860250D01*
G75*
G02*
X920250Y990250I0J-60000D01*
G01*
Y970250D01*
X850250Y320250D02*
Y310250D01*
G75*
G02*
X820250Y280250I-30000J0D01*
G01*
X720250D01*
G75*
G03*
X710250Y270250I0J-10000D01*
G01*
Y160250D01*
G75*
G02*
X650250Y100250I-60000J0D01*
G01*
X510250D01*
X850250Y1090250D02*
X840250D01*
G75*
G02*
X830250Y1100250I0J10000D01*
G01*
Y1110250D01*
X860250Y70250D02*
Y90250D01*
Y130250D01*
G75*
G03*
X850250Y140250I-10000J0D01*
G01*
X860250Y160250D02*
G75*
G03*
X850250Y150250I0J-10000D01*
G01*
Y140250D01*
X870250Y70250D02*
X880250D01*
G75*
G03*
X890250Y80250I0J10000D01*
G01*
Y110250D01*
G75*
G03*
X880250Y120250I-10000J0D01*
G01*
X870250Y90250D02*
Y100250D01*
G75*
G02*
X880250Y110250I10000J0D01*
G01*
X870250Y250250D02*
Y260250D01*
Y970250D02*
Y990250D01*
G75*
G03*
X860250Y1000250I-10000J0D01*
G01*
X730250D01*
G75*
G02*
X710250Y1020250I0J20000D01*
G01*
Y1080250D01*
G75*
G03*
X700250Y1090250I-10000J0D01*
G01*
X690250D01*
X870250D02*
X880250D01*
G75*
G02*
X890250Y1080250I0J-10000D01*
G01*
G75*
G03*
X910250Y1060250I20000J0D01*
G01*
X920250D01*
G75*
G02*
X930250Y1050250I0J-10000D01*
G01*
Y1040250D01*
X880250Y140250D02*
Y150250D01*
G75*
G02*
X890250Y160250I10000J0D01*
G01*
G75*
G03*
X940250Y210250I0J50000D01*
G01*
Y290250D01*
G75*
G03*
X930250Y300250I-10000J0D01*
G01*
X860250D01*
X880250Y1080250D02*
X870250D01*
G75*
G02*
X860250Y1090250I0J10000D01*
G01*
Y1110250D01*
X890250Y970250D02*
Y990250D01*
G75*
G03*
X860250Y1020250I-30000J0D01*
G01*
X790250D01*
G75*
G02*
X770250Y1040250I0J20000D01*
G01*
Y1080250D01*
G75*
G03*
X760250Y1090250I-10000J0D01*
G01*
X750250D01*
X900250Y130250D02*
Y150250D01*
Y130250D02*
X880250D01*
X900250Y250250D02*
Y260250D01*
Y1080250D02*
G75*
G03*
X910250Y1070250I10000J0D01*
G01*
X920250D01*
G75*
G02*
X940250Y1050250I0J-20000D01*
G01*
Y970250D01*
X910250D02*
Y990250D01*
G75*
G03*
X860250Y1040250I-50000J0D01*
G01*
X850250D01*
G75*
G02*
X830250Y1060250I0J20000D01*
G01*
Y1080250D01*
G75*
G03*
X820250Y1090250I-10000J0D01*
G01*
X810250D01*
X910250D02*
X900250D01*
G75*
G02*
X890250Y1100250I0J10000D01*
G01*
Y1110250D01*
X930250Y250250D02*
Y260250D01*
Y970250D02*
Y1040250D01*
X940250Y1080250D02*
X930250D01*
G75*
G02*
X920250Y1090250I0J10000D01*
G01*
Y1110250D01*
D02*
D18*
X250250Y580250D03*
Y600250D03*
X330250Y670250D03*
Y690250D03*
X440250Y670250D03*
Y690250D03*
X800250Y30250D03*
X810250Y50250D03*
X820250D03*
X830250D03*
X840250Y30250D03*
X880250D03*
Y50250D03*
D02*
D71*
X70250Y900250D03*
X80250Y450250D03*
Y490250D03*
Y540250D03*
Y580250D03*
Y600250D03*
Y640250D03*
X90250Y570250D03*
Y610250D03*
Y630250D03*
Y670250D03*
X100250Y890250D03*
X110250Y900250D03*
X120250Y180250D03*
Y220250D03*
X130250Y180250D03*
Y220250D03*
Y900250D03*
X140250Y180250D03*
Y220250D03*
Y890250D03*
X150250Y180250D03*
Y220250D03*
X160250Y180250D03*
Y220250D03*
Y890250D03*
X170250Y180250D03*
Y220250D03*
Y900250D03*
X180250Y180250D03*
Y220250D03*
X190250Y900250D03*
X200250Y890250D03*
X220250D03*
X230250Y570250D03*
Y610250D03*
Y900250D03*
X250250D03*
X260250Y890250D03*
X265250Y1015250D03*
Y1065250D03*
X280250Y890250D03*
X290250Y900250D03*
X320250Y890250D03*
X330250Y610250D03*
Y650250D03*
X420250Y1090250D03*
X440250Y610250D03*
Y650250D03*
X450250Y1080250D03*
X460250Y1090250D03*
X480250Y610250D03*
Y650250D03*
Y1090250D03*
X490250Y1080250D03*
X510250Y560250D03*
Y600250D03*
Y1080250D03*
X520250Y1090250D03*
X540250D03*
X550250Y1080250D03*
X560250Y330250D03*
Y370250D03*
X570250Y1080250D03*
X580250Y1090250D03*
X600250D03*
X610250Y1080250D03*
X630250Y610250D03*
Y1080250D03*
X640250Y1090250D03*
X670250Y610250D03*
Y1080250D03*
X690250Y1090250D03*
X720250Y210250D03*
Y250250D03*
Y1080250D03*
X730250Y1090250D03*
X750250Y210250D03*
Y250250D03*
Y1090250D03*
X760250Y150250D03*
Y1080250D03*
X780250Y210250D03*
Y250250D03*
Y1080250D03*
X790250Y1090250D03*
X800250Y150250D03*
X810250Y100250D03*
Y140250D03*
Y210250D03*
Y250250D03*
Y1090250D03*
X820250Y1080250D03*
X840250Y210250D03*
Y250250D03*
Y1080250D03*
X850250Y1090250D03*
X860250Y150250D03*
X870250Y210250D03*
Y250250D03*
Y1090250D03*
X880250Y1080250D03*
X900250Y90250D03*
Y130250D03*
Y150250D03*
Y210250D03*
Y250250D03*
Y1080250D03*
X910250Y1090250D03*
X930250Y210250D03*
Y250250D03*
X940250Y1080250D03*
D02*
D20*
X60250Y30250D03*
Y40250D03*
Y50250D03*
X120250Y30250D03*
Y40250D03*
Y50250D03*
X170250Y280250D03*
Y550250D03*
Y710250D03*
X180250Y30250D03*
Y40250D03*
Y50250D03*
Y280250D03*
Y550250D03*
Y710250D03*
X240250Y30250D03*
Y40250D03*
Y50250D03*
X260250Y960250D03*
Y970250D03*
Y980250D03*
X300250Y30250D03*
Y40250D03*
Y50250D03*
X310250Y1040250D03*
Y1060250D03*
X360250Y30250D03*
Y40250D03*
Y50250D03*
X380250Y120250D03*
Y290250D03*
Y550250D03*
Y710250D03*
Y880250D03*
Y1040250D03*
Y1050250D03*
X390250Y120250D03*
Y290250D03*
Y550250D03*
Y710250D03*
Y880250D03*
X400250Y1040250D03*
Y1050250D03*
X420250Y30250D03*
Y40250D03*
Y50250D03*
X550250Y310250D03*
X560250D03*
X590250Y120250D03*
Y290250D03*
Y540250D03*
Y790250D03*
X600250Y120250D03*
Y290250D03*
Y540250D03*
Y790250D03*
X640250Y940250D03*
X650250D03*
X660250D03*
X740250Y30250D03*
Y40250D03*
Y50250D03*
X770250Y90250D03*
X780250D03*
X790250Y160250D03*
X800250D03*
X810250Y80250D03*
X830250D03*
X860250Y70250D03*
Y90250D03*
Y160250D03*
X870250Y70250D03*
Y90250D03*
Y160250D03*
D02*
D76*
X40250Y850250D03*
X50250Y840250D03*
X60250Y830250D03*
X70250Y140250D03*
Y340250D03*
Y510250D03*
Y820250D03*
X80250Y360250D03*
Y810250D03*
X90250Y330250D03*
Y520250D03*
Y800250D03*
X100250Y370250D03*
Y500250D03*
Y790250D03*
X110250Y350250D03*
Y400250D03*
X120250Y410250D03*
X130250Y130250D03*
Y420250D03*
X140250Y430250D03*
X150250Y440250D03*
X160250Y810250D03*
Y820250D03*
X170250Y640250D03*
X190250Y120250D03*
Y450250D03*
Y560250D03*
X200250Y460250D03*
X210250Y390250D03*
Y470250D03*
X220250Y360250D03*
Y380250D03*
Y570250D03*
X230250Y350250D03*
Y780250D03*
X240250Y320250D03*
Y420250D03*
X250250Y110250D03*
Y310250D03*
Y430250D03*
X260250Y300250D03*
Y440250D03*
X310250Y100250D03*
X330250Y480250D03*
X340250Y490250D03*
X360250Y460250D03*
X370250Y90250D03*
Y450250D03*
X410250Y210250D03*
X420250Y570250D03*
Y870250D03*
X430250Y80250D03*
Y280250D03*
Y880250D03*
Y930250D03*
X440250Y890250D03*
Y920250D03*
X450250Y900250D03*
Y910250D03*
X510250Y100250D03*
X520250Y60250D03*
Y180250D03*
X530250Y90250D03*
Y160250D03*
Y530250D03*
X540250Y80250D03*
Y160250D03*
Y200250D03*
X550250Y70250D03*
Y170250D03*
Y190250D03*
X560250Y110250D03*
Y140250D03*
X570250Y130250D03*
X580250Y490250D03*
X590250Y930250D03*
X600250Y970250D03*
X630250Y270250D03*
X640250Y240250D03*
X650250Y250250D03*
X660250Y230250D03*
X670250Y260250D03*
X680250Y220250D03*
X690250Y390250D03*
Y620250D03*
X700250Y600250D03*
X710250Y590250D03*
X730250Y450250D03*
Y650250D03*
X740250Y410250D03*
Y480250D03*
Y880250D03*
X750250Y470250D03*
Y640250D03*
X760250Y400250D03*
Y660250D03*
X780250Y670250D03*
Y870250D03*
X790250Y680250D03*
Y860250D03*
X800250Y690250D03*
Y850250D03*
X810250Y700250D03*
Y840250D03*
X820250Y70250D03*
Y460250D03*
Y830250D03*
X830250Y440250D03*
Y820250D03*
X840250Y430250D03*
Y810250D03*
X850250Y420250D03*
Y800250D03*
X870250Y710250D03*
X880250Y720250D03*
X890250Y20250D03*
Y730250D03*
X900250Y740250D03*
X910250Y750250D03*
X920250Y760250D03*
X930250Y770250D03*
X940250Y780250D03*
D02*
D77*
X170250Y380250D03*
X340250Y270250D03*
X400250Y300250D03*
X640250Y410250D03*
X650250Y300250D03*
X860250D03*
D02*
D78*
X690250Y320250D03*
Y970250D03*
X700250Y320250D03*
Y970250D03*
X710250Y320250D03*
Y970250D03*
X730250Y320250D03*
Y970250D03*
X740250Y320250D03*
Y970250D03*
X750250Y320250D03*
Y970250D03*
X760250Y320250D03*
Y970250D03*
X780250Y320250D03*
Y970250D03*
X790250Y320250D03*
Y970250D03*
X800250Y320250D03*
Y970250D03*
X810250Y320250D03*
Y970250D03*
X820250Y320250D03*
Y970250D03*
X830250Y320250D03*
Y970250D03*
X840250Y320250D03*
Y970250D03*
X850250Y320250D03*
Y970250D03*
X870250Y320250D03*
Y970250D03*
X880250Y320250D03*
Y970250D03*
X890250Y320250D03*
Y970250D03*
X900250Y320250D03*
Y970250D03*
X910250Y320250D03*
Y970250D03*
X920250Y320250D03*
Y970250D03*
X930250Y320250D03*
Y970250D03*
X940250Y320250D03*
Y970250D03*
D02*
D79*
X560250Y960250D03*
D02*
D80*
Y830250D03*
Y840250D03*
Y850250D03*
Y860250D03*
Y870250D03*
Y880250D03*
Y890250D03*
Y900250D03*
Y910250D03*
Y920250D03*
Y930250D03*
Y940250D03*
Y950250D03*
X620250Y830250D03*
Y840250D03*
Y850250D03*
Y860250D03*
Y870250D03*
Y880250D03*
Y890250D03*
Y900250D03*
Y910250D03*
Y920250D03*
Y930250D03*
Y940250D03*
Y950250D03*
Y960250D03*
D02*
D81*
X20250Y80250D03*
Y90250D03*
Y100250D03*
Y110250D03*
Y120250D03*
Y130250D03*
Y140250D03*
Y500250D03*
Y510250D03*
Y520250D03*
Y530250D03*
Y790250D03*
Y800250D03*
Y810250D03*
Y820250D03*
Y830250D03*
Y840250D03*
Y850250D03*
Y860250D03*
X160250Y300250D03*
Y310250D03*
Y320250D03*
Y330250D03*
Y340250D03*
Y350250D03*
Y360250D03*
Y370250D03*
Y570250D03*
Y580250D03*
Y590250D03*
Y600250D03*
Y610250D03*
Y620250D03*
Y630250D03*
Y730250D03*
Y740250D03*
Y750250D03*
Y760250D03*
Y770250D03*
Y780250D03*
Y790250D03*
Y800250D03*
X190250Y300250D03*
Y310250D03*
Y320250D03*
Y330250D03*
Y340250D03*
Y350250D03*
Y360250D03*
Y370250D03*
Y570250D03*
Y580250D03*
Y590250D03*
Y600250D03*
Y610250D03*
Y620250D03*
Y630250D03*
Y730250D03*
Y740250D03*
Y750250D03*
Y760250D03*
Y770250D03*
Y780250D03*
Y790250D03*
Y800250D03*
X370250Y140250D03*
Y150250D03*
Y160250D03*
Y170250D03*
Y180250D03*
Y190250D03*
Y200250D03*
Y210250D03*
Y310250D03*
Y320250D03*
Y330250D03*
Y340250D03*
Y350250D03*
Y360250D03*
Y370250D03*
Y570250D03*
Y580250D03*
Y590250D03*
Y600250D03*
Y610250D03*
Y620250D03*
Y630250D03*
Y730250D03*
Y740250D03*
Y750250D03*
Y760250D03*
Y770250D03*
Y780250D03*
Y790250D03*
Y800250D03*
Y900250D03*
Y910250D03*
Y920250D03*
Y930250D03*
Y940250D03*
Y950250D03*
Y960250D03*
Y970250D03*
X400250Y140250D03*
Y150250D03*
Y160250D03*
Y170250D03*
Y180250D03*
Y190250D03*
Y200250D03*
Y210250D03*
Y310250D03*
Y320250D03*
Y330250D03*
Y340250D03*
Y350250D03*
Y360250D03*
Y370250D03*
Y570250D03*
Y580250D03*
Y590250D03*
Y600250D03*
Y610250D03*
Y620250D03*
Y630250D03*
Y730250D03*
Y740250D03*
Y750250D03*
Y760250D03*
Y770250D03*
Y780250D03*
Y790250D03*
Y800250D03*
Y900250D03*
Y910250D03*
Y920250D03*
Y930250D03*
Y940250D03*
Y950250D03*
Y960250D03*
Y970250D03*
X580250Y140250D03*
Y150250D03*
Y160250D03*
Y170250D03*
Y180250D03*
Y190250D03*
Y200250D03*
Y210250D03*
Y310250D03*
Y320250D03*
Y330250D03*
Y340250D03*
Y350250D03*
Y360250D03*
Y370250D03*
Y560250D03*
Y570250D03*
Y580250D03*
Y590250D03*
Y600250D03*
Y610250D03*
Y620250D03*
Y630250D03*
X610250Y140250D03*
Y150250D03*
Y160250D03*
Y170250D03*
Y180250D03*
Y190250D03*
Y200250D03*
Y210250D03*
Y310250D03*
Y320250D03*
Y330250D03*
Y340250D03*
Y350250D03*
Y360250D03*
Y370250D03*
Y560250D03*
Y570250D03*
Y580250D03*
Y590250D03*
Y600250D03*
Y610250D03*
Y620250D03*
Y630250D03*
X760250Y110250D03*
Y120250D03*
Y130250D03*
Y140250D03*
X790250Y110250D03*
Y120250D03*
Y130250D03*
Y140250D03*
X850250Y110250D03*
Y120250D03*
Y130250D03*
Y140250D03*
X880250Y110250D03*
Y120250D03*
Y130250D03*
Y140250D03*
D02*
D82*
X330250Y1090250D03*
X340250D03*
X350250D03*
X480250Y570250D03*
Y590250D03*
X490250Y580250D03*
D02*
D83*
X90250Y920250D03*
Y930250D03*
X120250Y920250D03*
Y930250D03*
X150250Y920250D03*
Y930250D03*
X180250Y920250D03*
Y930250D03*
X210250Y920250D03*
Y930250D03*
X240250Y920250D03*
Y930250D03*
X270250Y920250D03*
Y930250D03*
X300250Y920250D03*
Y930250D03*
X440250Y1110250D03*
Y1120250D03*
X470250Y1110250D03*
Y1120250D03*
X500250Y1110250D03*
Y1120250D03*
X530250Y1110250D03*
Y1120250D03*
X560250Y1110250D03*
Y1120250D03*
X590250Y1110250D03*
Y1120250D03*
X620250Y1110250D03*
Y1120250D03*
X650250Y1110250D03*
Y1120250D03*
X710250Y1110250D03*
Y1120250D03*
X720250Y260250D03*
Y270250D03*
X740250Y1110250D03*
Y1120250D03*
X750250Y260250D03*
Y270250D03*
X770250Y1110250D03*
Y1120250D03*
X780250Y260250D03*
Y270250D03*
X800250Y1110250D03*
Y1120250D03*
X810250Y260250D03*
Y270250D03*
X830250Y1110250D03*
Y1120250D03*
X840250Y260250D03*
Y270250D03*
X860250Y1110250D03*
Y1120250D03*
X870250Y260250D03*
Y270250D03*
X890250Y1110250D03*
Y1120250D03*
X900250Y260250D03*
Y270250D03*
X920250Y1110250D03*
Y1120250D03*
X930250Y260250D03*
Y270250D03*
D02*
D84*
X50250Y470250D03*
Y560250D03*
Y590250D03*
Y620250D03*
Y650250D03*
X60250Y470250D03*
Y560250D03*
Y590250D03*
Y620250D03*
Y650250D03*
X530250Y350250D03*
X540250D03*
X0Y0D02*
M02*
