G05
M48
INCH,TZ
FMAT,2
T1C000.02400
T2C000.02988
T3C000.03000
T4C000.03200
T5C000.03500
T6C000.03543
T7C000.04200
T8C000.04331
%
T001
X0.40250Y8.50250
X0.50250Y8.40250
X0.60250Y8.30250
X0.70250Y1.40250
X0.70250Y3.40250
X0.70250Y5.10250
X0.70250Y8.20250
X0.80250Y3.60250
X0.80250Y8.10250
X0.90250Y3.30250
X0.90250Y5.20250
X0.90250Y8.00250
X1.00250Y3.70250
X1.00250Y5.00250
X1.00250Y7.90250
X1.10250Y3.50250
X1.10250Y4.00250
X1.20250Y4.10250
X1.30250Y1.30250
X1.30250Y4.20250
X1.40250Y4.30250
X1.50250Y4.40250
X1.60250Y8.10250
X1.60250Y8.20250
X1.70250Y6.40250
X1.90250Y1.20250
X1.90250Y4.50250
X1.90250Y5.60250
X2.00250Y4.60250
X2.10250Y3.90250
X2.10250Y4.70250
X2.20250Y3.60250
X2.20250Y3.80250
X2.20250Y5.70250
X2.30250Y3.50250
X2.30250Y7.80250
X2.40250Y3.20250
X2.40250Y4.20250
X2.50250Y1.10250
X2.50250Y3.10250
X2.50250Y4.30250
X2.60250Y3.00250
X2.60250Y4.40250
X3.10250Y1.00250
X3.30250Y4.80250
X3.40250Y4.90250
X3.60250Y4.60250
X3.70250Y0.90250
X3.70250Y4.50250
X4.10250Y2.10250
X4.20250Y5.70250
X4.20250Y8.70250
X4.30250Y0.80250
X4.30250Y2.80250
X4.30250Y8.80250
X4.30250Y9.30250
X4.40250Y8.90250
X4.40250Y9.20250
X4.50250Y9.00250
X4.50250Y9.10250
X5.10250Y1.00250
X5.20250Y0.60250
X5.20250Y1.80250
X5.30250Y0.90250
X5.30250Y1.60250
X5.30250Y5.30250
X5.40250Y0.80250
X5.40250Y1.60250
X5.40250Y2.00250
X5.50250Y0.70250
X5.50250Y1.70250
X5.50250Y1.90250
X5.60250Y1.10250
X5.60250Y1.40250
X5.70250Y1.30250
X5.80250Y4.90250
X5.90250Y9.30250
X6.00250Y9.70250
X6.30250Y2.70250
X6.40250Y2.40250
X6.50250Y2.50250
X6.60250Y2.30250
X6.70250Y2.60250
X6.80250Y2.20250
X6.90250Y3.90250
X6.90250Y6.20250
X7.00250Y6.00250
X7.10250Y5.90250
X7.30250Y4.50250
X7.30250Y6.50250
X7.40250Y4.10250
X7.40250Y4.80250
X7.40250Y8.80250
X7.50250Y4.70250
X7.50250Y6.40250
X7.60250Y4.00250
X7.60250Y6.60250
X7.80250Y6.70250
X7.80250Y8.70250
X7.90250Y6.80250
X7.90250Y8.60250
X8.00250Y6.90250
X8.00250Y8.50250
X8.10250Y7.00250
X8.10250Y8.40250
X8.20250Y0.70250
X8.20250Y4.60250
X8.20250Y8.30250
X8.30250Y4.40250
X8.30250Y8.20250
X8.40250Y4.30250
X8.40250Y8.10250
X8.50250Y4.20250
X8.50250Y8.00250
X8.70250Y7.10250
X8.80250Y7.20250
X8.90250Y0.20250
X8.90250Y7.30250
X9.00250Y7.40250
X9.10250Y7.50250
X9.20250Y7.60250
X9.30250Y7.70250
X9.40250Y7.80250
T002
X5.60250Y8.30250
X5.60250Y8.40250
X5.60250Y8.50250
X5.60250Y8.60250
X5.60250Y8.70250
X5.60250Y8.80250
X5.60250Y8.90250
X5.60250Y9.00250
X5.60250Y9.10250
X5.60250Y9.20250
X5.60250Y9.30250
X5.60250Y9.40250
X5.60250Y9.50250
X5.60250Y9.60250
X6.20250Y8.30250
X6.20250Y8.40250
X6.20250Y8.50250
X6.20250Y8.60250
X6.20250Y8.70250
X6.20250Y8.80250
X6.20250Y8.90250
X6.20250Y9.00250
X6.20250Y9.10250
X6.20250Y9.20250
X6.20250Y9.30250
X6.20250Y9.40250
X6.20250Y9.50250
X6.20250Y9.60250
T003
X0.50250Y4.70250
X0.50250Y5.60250
X0.50250Y5.90250
X0.50250Y6.20250
X0.50250Y6.50250
X0.60250Y4.70250
X0.60250Y5.60250
X0.60250Y5.90250
X0.60250Y6.20250
X0.60250Y6.50250
X0.90250Y9.20250
X0.90250Y9.30250
X1.20250Y9.20250
X1.20250Y9.30250
X1.50250Y9.20250
X1.50250Y9.30250
X1.80250Y9.20250
X1.80250Y9.30250
X2.10250Y9.20250
X2.10250Y9.30250
X2.40250Y9.20250
X2.40250Y9.30250
X2.70250Y9.20250
X2.70250Y9.30250
X3.00250Y9.20250
X3.00250Y9.30250
X4.40250Y11.10250
X4.40250Y11.20250
X4.70250Y11.10250
X4.70250Y11.20250
X5.00250Y11.10250
X5.00250Y11.20250
X5.30250Y3.50250
X5.30250Y11.10250
X5.30250Y11.20250
X5.40250Y3.50250
X5.60250Y11.10250
X5.60250Y11.20250
X5.90250Y11.10250
X5.90250Y11.20250
X6.20250Y11.10250
X6.20250Y11.20250
X6.50250Y11.10250
X6.50250Y11.20250
X7.10250Y11.10250
X7.10250Y11.20250
X7.20250Y2.60250
X7.20250Y2.70250
X7.40250Y11.10250
X7.40250Y11.20250
X7.50250Y2.60250
X7.50250Y2.70250
X7.70250Y11.10250
X7.70250Y11.20250
X7.80250Y2.60250
X7.80250Y2.70250
X8.00250Y11.10250
X8.00250Y11.20250
X8.10250Y2.60250
X8.10250Y2.70250
X8.30250Y11.10250
X8.30250Y11.20250
X8.40250Y2.60250
X8.40250Y2.70250
X8.60250Y11.10250
X8.60250Y11.20250
X8.70250Y2.60250
X8.70250Y2.70250
X8.90250Y11.10250
X8.90250Y11.20250
X9.00250Y2.60250
X9.00250Y2.70250
X9.20250Y11.10250
X9.20250Y11.20250
X9.30250Y2.60250
X9.30250Y2.70250
T004
X0.20250Y0.80250
X0.20250Y0.90250
X0.20250Y1.00250
X0.20250Y1.10250
X0.20250Y1.20250
X0.20250Y1.30250
X0.20250Y1.40250
X0.20250Y5.00250
X0.20250Y5.10250
X0.20250Y5.20250
X0.20250Y5.30250
X0.20250Y7.90250
X0.20250Y8.00250
X0.20250Y8.10250
X0.20250Y8.20250
X0.20250Y8.30250
X0.20250Y8.40250
X0.20250Y8.50250
X0.20250Y8.60250
X0.70250Y9.00250
X0.80250Y4.50250
X0.80250Y4.90250
X0.80250Y5.40250
X0.80250Y5.80250
X0.80250Y6.00250
X0.80250Y6.40250
X0.90250Y5.70250
X0.90250Y6.10250
X0.90250Y6.30250
X0.90250Y6.70250
X1.00250Y8.90250
X1.10250Y9.00250
X1.20250Y1.80250
X1.20250Y2.20250
X1.30250Y1.80250
X1.30250Y2.20250
X1.30250Y9.00250
X1.40250Y1.80250
X1.40250Y2.20250
X1.40250Y8.90250
X1.50250Y1.80250
X1.50250Y2.20250
X1.60250Y1.80250
X1.60250Y2.20250
X1.60250Y3.00250
X1.60250Y3.10250
X1.60250Y3.20250
X1.60250Y3.30250
X1.60250Y3.40250
X1.60250Y3.50250
X1.60250Y3.60250
X1.60250Y3.70250
X1.60250Y5.70250
X1.60250Y5.80250
X1.60250Y5.90250
X1.60250Y6.00250
X1.60250Y6.10250
X1.60250Y6.20250
X1.60250Y6.30250
X1.60250Y7.30250
X1.60250Y7.40250
X1.60250Y7.50250
X1.60250Y7.60250
X1.60250Y7.70250
X1.60250Y7.80250
X1.60250Y7.90250
X1.60250Y8.00250
X1.60250Y8.90250
X1.70250Y1.80250
X1.70250Y2.20250
X1.70250Y3.80250
X1.70250Y9.00250
X1.80250Y1.80250
X1.80250Y2.20250
X1.90250Y3.00250
X1.90250Y3.10250
X1.90250Y3.20250
X1.90250Y3.30250
X1.90250Y3.40250
X1.90250Y3.50250
X1.90250Y3.60250
X1.90250Y3.70250
X1.90250Y5.70250
X1.90250Y5.80250
X1.90250Y5.90250
X1.90250Y6.00250
X1.90250Y6.10250
X1.90250Y6.20250
X1.90250Y6.30250
X1.90250Y7.30250
X1.90250Y7.40250
X1.90250Y7.50250
X1.90250Y7.60250
X1.90250Y7.70250
X1.90250Y7.80250
X1.90250Y7.90250
X1.90250Y8.00250
X1.90250Y9.00250
X2.00250Y8.90250
X2.20250Y8.90250
X2.30250Y5.70250
X2.30250Y6.10250
X2.30250Y9.00250
X2.50250Y9.00250
X2.60250Y8.90250
X2.80250Y8.90250
X2.90250Y9.00250
X3.20250Y8.90250
X3.30250Y6.10250
X3.30250Y6.50250
X3.40250Y2.70250
X3.70250Y1.40250
X3.70250Y1.50250
X3.70250Y1.60250
X3.70250Y1.70250
X3.70250Y1.80250
X3.70250Y1.90250
X3.70250Y2.00250
X3.70250Y2.10250
X3.70250Y3.10250
X3.70250Y3.20250
X3.70250Y3.30250
X3.70250Y3.40250
X3.70250Y3.50250
X3.70250Y3.60250
X3.70250Y3.70250
X3.70250Y5.70250
X3.70250Y5.80250
X3.70250Y5.90250
X3.70250Y6.00250
X3.70250Y6.10250
X3.70250Y6.20250
X3.70250Y6.30250
X3.70250Y7.30250
X3.70250Y7.40250
X3.70250Y7.50250
X3.70250Y7.60250
X3.70250Y7.70250
X3.70250Y7.80250
X3.70250Y7.90250
X3.70250Y8.00250
X3.70250Y9.00250
X3.70250Y9.10250
X3.70250Y9.20250
X3.70250Y9.30250
X3.70250Y9.40250
X3.70250Y9.50250
X3.70250Y9.60250
X3.70250Y9.70250
X4.00250Y1.40250
X4.00250Y1.50250
X4.00250Y1.60250
X4.00250Y1.70250
X4.00250Y1.80250
X4.00250Y1.90250
X4.00250Y2.00250
X4.00250Y2.10250
X4.00250Y3.00250
X4.00250Y3.10250
X4.00250Y3.20250
X4.00250Y3.30250
X4.00250Y3.40250
X4.00250Y3.50250
X4.00250Y3.60250
X4.00250Y3.70250
X4.00250Y5.70250
X4.00250Y5.80250
X4.00250Y5.90250
X4.00250Y6.00250
X4.00250Y6.10250
X4.00250Y6.20250
X4.00250Y6.30250
X4.00250Y7.30250
X4.00250Y7.40250
X4.00250Y7.50250
X4.00250Y7.60250
X4.00250Y7.70250
X4.00250Y7.80250
X4.00250Y7.90250
X4.00250Y8.00250
X4.00250Y9.00250
X4.00250Y9.10250
X4.00250Y9.20250
X4.00250Y9.30250
X4.00250Y9.40250
X4.00250Y9.50250
X4.00250Y9.60250
X4.00250Y9.70250
X4.20250Y10.90250
X4.40250Y6.10250
X4.40250Y6.50250
X4.50250Y10.80250
X4.60250Y10.90250
X4.80250Y5.70250
X4.80250Y5.90250
X4.80250Y6.10250
X4.80250Y6.50250
X4.80250Y10.90250
X4.90250Y5.80250
X4.90250Y10.80250
X5.10250Y5.60250
X5.10250Y6.00250
X5.10250Y10.80250
X5.20250Y10.90250
X5.40250Y10.90250
X5.50250Y10.80250
X5.60250Y3.30250
X5.60250Y3.70250
X5.70250Y10.80250
X5.80250Y1.40250
X5.80250Y1.50250
X5.80250Y1.60250
X5.80250Y1.70250
X5.80250Y1.80250
X5.80250Y1.90250
X5.80250Y2.00250
X5.80250Y2.10250
X5.80250Y3.10250
X5.80250Y3.20250
X5.80250Y3.30250
X5.80250Y3.40250
X5.80250Y3.50250
X5.80250Y3.60250
X5.80250Y3.70250
X5.80250Y5.60250
X5.80250Y5.70250
X5.80250Y5.80250
X5.80250Y5.90250
X5.80250Y6.00250
X5.80250Y6.10250
X5.80250Y6.20250
X5.80250Y6.30250
X5.80250Y10.90250
X6.00250Y10.90250
X6.10250Y1.40250
X6.10250Y1.50250
X6.10250Y1.60250
X6.10250Y1.70250
X6.10250Y1.80250
X6.10250Y1.90250
X6.10250Y2.00250
X6.10250Y2.10250
X6.10250Y3.10250
X6.10250Y3.20250
X6.10250Y3.30250
X6.10250Y3.40250
X6.10250Y3.50250
X6.10250Y3.60250
X6.10250Y3.70250
X6.10250Y5.60250
X6.10250Y5.70250
X6.10250Y5.80250
X6.10250Y5.90250
X6.10250Y6.00250
X6.10250Y6.10250
X6.10250Y6.20250
X6.10250Y6.30250
X6.10250Y10.80250
X6.30250Y6.10250
X6.30250Y10.80250
X6.40250Y4.10250
X6.40250Y10.90250
X6.50250Y3.00250
X6.70250Y6.10250
X6.70250Y10.80250
X6.90250Y3.20250
X6.90250Y9.70250
X6.90250Y10.90250
X7.00250Y3.20250
X7.00250Y9.70250
X7.10250Y3.20250
X7.10250Y9.70250
X7.20250Y2.10250
X7.20250Y2.50250
X7.20250Y10.80250
X7.30250Y3.20250
X7.30250Y9.70250
X7.30250Y10.90250
X7.40250Y3.20250
X7.40250Y9.70250
X7.50250Y2.10250
X7.50250Y2.50250
X7.50250Y3.20250
X7.50250Y9.70250
X7.50250Y10.90250
X7.60250Y1.10250
X7.60250Y1.20250
X7.60250Y1.30250
X7.60250Y1.40250
X7.60250Y1.50250
X7.60250Y3.20250
X7.60250Y9.70250
X7.60250Y10.80250
X7.80250Y2.10250
X7.80250Y2.50250
X7.80250Y3.20250
X7.80250Y9.70250
X7.80250Y10.80250
X7.90250Y1.10250
X7.90250Y1.20250
X7.90250Y1.30250
X7.90250Y1.40250
X7.90250Y3.20250
X7.90250Y9.70250
X7.90250Y10.90250
X8.00250Y1.50250
X8.00250Y3.20250
X8.00250Y9.70250
X8.10250Y1.00250
X8.10250Y1.40250
X8.10250Y2.10250
X8.10250Y2.50250
X8.10250Y3.20250
X8.10250Y9.70250
X8.10250Y10.90250
X8.20250Y3.20250
X8.20250Y9.70250
X8.20250Y10.80250
X8.30250Y3.20250
X8.30250Y9.70250
X8.40250Y2.10250
X8.40250Y2.50250
X8.40250Y3.20250
X8.40250Y9.70250
X8.40250Y10.80250
X8.50250Y1.10250
X8.50250Y1.20250
X8.50250Y1.30250
X8.50250Y1.40250
X8.50250Y3.20250
X8.50250Y9.70250
X8.50250Y10.90250
X8.60250Y1.50250
X8.60250Y3.00250
X8.70250Y2.10250
X8.70250Y2.50250
X8.70250Y3.20250
X8.70250Y9.70250
X8.70250Y10.90250
X8.80250Y1.10250
X8.80250Y1.20250
X8.80250Y1.30250
X8.80250Y1.40250
X8.80250Y3.20250
X8.80250Y9.70250
X8.80250Y10.80250
X8.90250Y3.20250
X8.90250Y9.70250
X9.00250Y0.90250
X9.00250Y1.30250
X9.00250Y1.50250
X9.00250Y2.10250
X9.00250Y2.50250
X9.00250Y3.20250
X9.00250Y9.70250
X9.00250Y10.80250
X9.10250Y3.20250
X9.10250Y9.70250
X9.10250Y10.90250
X9.20250Y3.20250
X9.20250Y9.70250
X9.30250Y2.10250
X9.30250Y2.50250
X9.30250Y3.20250
X9.30250Y9.70250
X9.40250Y3.20250
X9.40250Y9.70250
X9.40250Y10.80250
T005
X2.50250Y5.80250
X2.50250Y6.00250
X2.65250Y10.15250
X2.65250Y10.65250
X3.30250Y6.70250
X3.30250Y6.90250
X4.40250Y6.70250
X4.40250Y6.90250
X8.00250Y0.30250
X8.10250Y0.50250
X8.20250Y0.50250
X8.30250Y0.50250
X8.40250Y0.30250
X8.80250Y0.30250
X8.80250Y0.50250
T006
X1.70250Y2.80250
X1.70250Y5.50250
X1.70250Y7.10250
X1.80250Y2.80250
X1.80250Y5.50250
X1.80250Y7.10250
X3.10250Y10.40250
X3.10250Y10.60250
X3.80250Y1.20250
X3.80250Y2.90250
X3.80250Y5.50250
X3.80250Y7.10250
X3.80250Y8.80250
X3.80250Y10.40250
X3.80250Y10.50250
X3.90250Y1.20250
X3.90250Y2.90250
X3.90250Y5.50250
X3.90250Y7.10250
X3.90250Y8.80250
X4.00250Y10.40250
X4.00250Y10.50250
X5.50250Y3.10250
X5.60250Y3.10250
X5.90250Y1.20250
X5.90250Y2.90250
X5.90250Y5.40250
X5.90250Y7.90250
X6.00250Y1.20250
X6.00250Y2.90250
X6.00250Y5.40250
X6.00250Y7.90250
X7.70250Y0.90250
X7.80250Y0.90250
X7.90250Y1.60250
X8.00250Y1.60250
X8.10250Y0.80250
X8.30250Y0.80250
X8.60250Y0.70250
X8.60250Y0.90250
X8.60250Y1.60250
X8.70250Y0.70250
X8.70250Y0.90250
X8.70250Y1.60250
T007
X3.30250Y10.90250
X3.40250Y10.90250
X3.50250Y10.90250
T008
X0.60250Y0.30250
X0.60250Y0.40250
X0.60250Y0.50250
X1.20250Y0.30250
X1.20250Y0.40250
X1.20250Y0.50250
X1.80250Y0.30250
X1.80250Y0.40250
X1.80250Y0.50250
X2.40250Y0.30250
X2.40250Y0.40250
X2.40250Y0.50250
X2.60250Y9.60250
X2.60250Y9.70250
X2.60250Y9.80250
X3.00250Y0.30250
X3.00250Y0.40250
X3.00250Y0.50250
X3.60250Y0.30250
X3.60250Y0.40250
X3.60250Y0.50250
X4.20250Y0.30250
X4.20250Y0.40250
X4.20250Y0.50250
X6.40250Y9.40250
X6.50250Y9.40250
X6.60250Y9.40250
X7.40250Y0.30250
X7.40250Y0.40250
X7.40250Y0.50250
M30
